<?xml version="1.0" encoding="utf-8" standalone="no"?>
<!DOCTYPE svg PUBLIC "-//W3C//DTD SVG 1.1//EN"
  "http://www.w3.org/Graphics/SVG/1.1/DTD/svg11.dtd">
<svg height="414pt" version="1.1" viewBox="0 0 972 414" width="972pt" xmlns="http://www.w3.org/2000/svg" xmlns:xlink="http://www.w3.org/1999/xlink">
 <metadata>
  <rdf:RDF xmlns:cc="http://creativecommons.org/ns#" xmlns:dc="http://purl.org/dc/elements/1.1/" xmlns:rdf="http://www.w3.org/1999/02/22-rdf-syntax-ns#">
   <cc:Work>
    <dc:type rdf:resource="http://purl.org/dc/dcmitype/StillImage"/>
    <dc:date>2022-04-11T09:45:19.010749</dc:date>
    <dc:format>image/svg+xml</dc:format>
    <dc:creator>
     <cc:Agent>
      <dc:title>Matplotlib v3.4.3, https://matplotlib.org/</dc:title>
     </cc:Agent>
    </dc:creator>
   </cc:Work>
  </rdf:RDF>
 </metadata>
 <defs>
  <style type="text/css">*{stroke-linecap:butt;stroke-linejoin:round;}</style>
 </defs>
 <g id="figure_1">
  <g id="patch_1">
   <path d="M 0 414 
L 972 414 
L 972 0 
L 0 0 
z
" style="fill:none;"/>
  </g>
  <g id="axes_1">
   <g id="patch_2">
    <path d="M 56.175 190.441607 
L 336.15 190.441607 
L 336.15 26.8 
L 56.175 26.8 
z
" style="fill:#ffffff;"/>
   </g>
   <g id="matplotlib.axis_1">
    <g id="xtick_1">
     <g id="line2d_1">
      <defs>
       <path d="M 0 0 
L 0 3.5 
" id="mf188b31e14" style="stroke:#000000;stroke-width:0.8;"/>
      </defs>
      <g>
       <use style="stroke:#000000;stroke-width:0.8;" x="68.901136" xlink:href="#mf188b31e14" y="190.441607"/>
      </g>
     </g>
    </g>
    <g id="xtick_2">
     <g id="line2d_2">
      <g>
       <use style="stroke:#000000;stroke-width:0.8;" x="122.484868" xlink:href="#mf188b31e14" y="190.441607"/>
      </g>
     </g>
    </g>
    <g id="xtick_3">
     <g id="line2d_3">
      <g>
       <use style="stroke:#000000;stroke-width:0.8;" x="189.464533" xlink:href="#mf188b31e14" y="190.441607"/>
      </g>
     </g>
    </g>
    <g id="xtick_4">
     <g id="line2d_4">
      <g>
       <use style="stroke:#000000;stroke-width:0.8;" x="256.444199" xlink:href="#mf188b31e14" y="190.441607"/>
      </g>
     </g>
    </g>
    <g id="xtick_5">
     <g id="line2d_5">
      <g>
       <use style="stroke:#000000;stroke-width:0.8;" x="323.423864" xlink:href="#mf188b31e14" y="190.441607"/>
      </g>
     </g>
    </g>
   </g>
   <g id="matplotlib.axis_2">
    <g id="ytick_1">
     <g id="line2d_6">
      <path clip-path="url(#p05cbe3c3de)" d="M 56.175 169.328832 
L 336.15 169.328832 
" style="fill:none;stroke:#b0b0b0;stroke-linecap:square;stroke-width:0.8;"/>
     </g>
     <g id="line2d_7">
      <defs>
       <path d="M 0 0 
L -3.5 0 
" id="m983a48d73f" style="stroke:#000000;stroke-width:0.8;"/>
      </defs>
      <g>
       <use style="stroke:#000000;stroke-width:0.8;" x="56.175" xlink:href="#m983a48d73f" y="169.328832"/>
      </g>
     </g>
     <g id="text_1">
      <!-- 10 -->
      <g transform="translate(36.45 173.128051)scale(0.1 -0.1)">
       <defs>
        <path d="M 794 531 
L 1825 531 
L 1825 4091 
L 703 3866 
L 703 4441 
L 1819 4666 
L 2450 4666 
L 2450 531 
L 3481 531 
L 3481 0 
L 794 0 
L 794 531 
z
" id="DejaVuSans-31" transform="scale(0.015625)"/>
        <path d="M 2034 4250 
Q 1547 4250 1301 3770 
Q 1056 3291 1056 2328 
Q 1056 1369 1301 889 
Q 1547 409 2034 409 
Q 2525 409 2770 889 
Q 3016 1369 3016 2328 
Q 3016 3291 2770 3770 
Q 2525 4250 2034 4250 
z
M 2034 4750 
Q 2819 4750 3233 4129 
Q 3647 3509 3647 2328 
Q 3647 1150 3233 529 
Q 2819 -91 2034 -91 
Q 1250 -91 836 529 
Q 422 1150 422 2328 
Q 422 3509 836 4129 
Q 1250 4750 2034 4750 
z
" id="DejaVuSans-30" transform="scale(0.015625)"/>
       </defs>
       <use xlink:href="#DejaVuSans-31"/>
       <use x="63.623047" xlink:href="#DejaVuSans-30"/>
      </g>
     </g>
    </g>
    <g id="ytick_2">
     <g id="line2d_8">
      <path clip-path="url(#p05cbe3c3de)" d="M 56.175 136.515822 
L 336.15 136.515822 
" style="fill:none;stroke:#b0b0b0;stroke-linecap:square;stroke-width:0.8;"/>
     </g>
     <g id="line2d_9">
      <g>
       <use style="stroke:#000000;stroke-width:0.8;" x="56.175" xlink:href="#m983a48d73f" y="136.515822"/>
      </g>
     </g>
     <g id="text_2">
      <!-- 20 -->
      <g transform="translate(36.45 140.315041)scale(0.1 -0.1)">
       <defs>
        <path d="M 1228 531 
L 3431 531 
L 3431 0 
L 469 0 
L 469 531 
Q 828 903 1448 1529 
Q 2069 2156 2228 2338 
Q 2531 2678 2651 2914 
Q 2772 3150 2772 3378 
Q 2772 3750 2511 3984 
Q 2250 4219 1831 4219 
Q 1534 4219 1204 4116 
Q 875 4013 500 3803 
L 500 4441 
Q 881 4594 1212 4672 
Q 1544 4750 1819 4750 
Q 2544 4750 2975 4387 
Q 3406 4025 3406 3419 
Q 3406 3131 3298 2873 
Q 3191 2616 2906 2266 
Q 2828 2175 2409 1742 
Q 1991 1309 1228 531 
z
" id="DejaVuSans-32" transform="scale(0.015625)"/>
       </defs>
       <use xlink:href="#DejaVuSans-32"/>
       <use x="63.623047" xlink:href="#DejaVuSans-30"/>
      </g>
     </g>
    </g>
    <g id="ytick_3">
     <g id="line2d_10">
      <path clip-path="url(#p05cbe3c3de)" d="M 56.175 103.702813 
L 336.15 103.702813 
" style="fill:none;stroke:#b0b0b0;stroke-linecap:square;stroke-width:0.8;"/>
     </g>
     <g id="line2d_11">
      <g>
       <use style="stroke:#000000;stroke-width:0.8;" x="56.175" xlink:href="#m983a48d73f" y="103.702813"/>
      </g>
     </g>
     <g id="text_3">
      <!-- 30 -->
      <g transform="translate(36.45 107.502031)scale(0.1 -0.1)">
       <defs>
        <path d="M 2597 2516 
Q 3050 2419 3304 2112 
Q 3559 1806 3559 1356 
Q 3559 666 3084 287 
Q 2609 -91 1734 -91 
Q 1441 -91 1130 -33 
Q 819 25 488 141 
L 488 750 
Q 750 597 1062 519 
Q 1375 441 1716 441 
Q 2309 441 2620 675 
Q 2931 909 2931 1356 
Q 2931 1769 2642 2001 
Q 2353 2234 1838 2234 
L 1294 2234 
L 1294 2753 
L 1863 2753 
Q 2328 2753 2575 2939 
Q 2822 3125 2822 3475 
Q 2822 3834 2567 4026 
Q 2313 4219 1838 4219 
Q 1578 4219 1281 4162 
Q 984 4106 628 3988 
L 628 4550 
Q 988 4650 1302 4700 
Q 1616 4750 1894 4750 
Q 2613 4750 3031 4423 
Q 3450 4097 3450 3541 
Q 3450 3153 3228 2886 
Q 3006 2619 2597 2516 
z
" id="DejaVuSans-33" transform="scale(0.015625)"/>
       </defs>
       <use xlink:href="#DejaVuSans-33"/>
       <use x="63.623047" xlink:href="#DejaVuSans-30"/>
      </g>
     </g>
    </g>
    <g id="ytick_4">
     <g id="line2d_12">
      <path clip-path="url(#p05cbe3c3de)" d="M 56.175 70.889803 
L 336.15 70.889803 
" style="fill:none;stroke:#b0b0b0;stroke-linecap:square;stroke-width:0.8;"/>
     </g>
     <g id="line2d_13">
      <g>
       <use style="stroke:#000000;stroke-width:0.8;" x="56.175" xlink:href="#m983a48d73f" y="70.889803"/>
      </g>
     </g>
     <g id="text_4">
      <!-- 40 -->
      <g transform="translate(36.45 74.689022)scale(0.1 -0.1)">
       <defs>
        <path d="M 2419 4116 
L 825 1625 
L 2419 1625 
L 2419 4116 
z
M 2253 4666 
L 3047 4666 
L 3047 1625 
L 3713 1625 
L 3713 1100 
L 3047 1100 
L 3047 0 
L 2419 0 
L 2419 1100 
L 313 1100 
L 313 1709 
L 2253 4666 
z
" id="DejaVuSans-34" transform="scale(0.015625)"/>
       </defs>
       <use xlink:href="#DejaVuSans-34"/>
       <use x="63.623047" xlink:href="#DejaVuSans-30"/>
      </g>
     </g>
    </g>
    <g id="ytick_5">
     <g id="line2d_14">
      <path clip-path="url(#p05cbe3c3de)" d="M 56.175 38.076793 
L 336.15 38.076793 
" style="fill:none;stroke:#b0b0b0;stroke-linecap:square;stroke-width:0.8;"/>
     </g>
     <g id="line2d_15">
      <g>
       <use style="stroke:#000000;stroke-width:0.8;" x="56.175" xlink:href="#m983a48d73f" y="38.076793"/>
      </g>
     </g>
     <g id="text_5">
      <!-- 50 -->
      <g transform="translate(36.45 41.876012)scale(0.1 -0.1)">
       <defs>
        <path d="M 691 4666 
L 3169 4666 
L 3169 4134 
L 1269 4134 
L 1269 2991 
Q 1406 3038 1543 3061 
Q 1681 3084 1819 3084 
Q 2600 3084 3056 2656 
Q 3513 2228 3513 1497 
Q 3513 744 3044 326 
Q 2575 -91 1722 -91 
Q 1428 -91 1123 -41 
Q 819 9 494 109 
L 494 744 
Q 775 591 1075 516 
Q 1375 441 1709 441 
Q 2250 441 2565 725 
Q 2881 1009 2881 1497 
Q 2881 1984 2565 2268 
Q 2250 2553 1709 2553 
Q 1456 2553 1204 2497 
Q 953 2441 691 2322 
L 691 4666 
z
" id="DejaVuSans-35" transform="scale(0.015625)"/>
       </defs>
       <use xlink:href="#DejaVuSans-35"/>
       <use x="63.623047" xlink:href="#DejaVuSans-30"/>
      </g>
     </g>
    </g>
    <g id="text_6">
     <!-- Top-k accuracy (%) -->
     <g transform="translate(29.954375 165.652679)rotate(-90)scale(0.12 -0.12)">
      <defs>
       <path d="M -19 4666 
L 3928 4666 
L 3928 4134 
L 2272 4134 
L 2272 0 
L 1638 0 
L 1638 4134 
L -19 4134 
L -19 4666 
z
" id="DejaVuSans-54" transform="scale(0.015625)"/>
       <path d="M 1959 3097 
Q 1497 3097 1228 2736 
Q 959 2375 959 1747 
Q 959 1119 1226 758 
Q 1494 397 1959 397 
Q 2419 397 2687 759 
Q 2956 1122 2956 1747 
Q 2956 2369 2687 2733 
Q 2419 3097 1959 3097 
z
M 1959 3584 
Q 2709 3584 3137 3096 
Q 3566 2609 3566 1747 
Q 3566 888 3137 398 
Q 2709 -91 1959 -91 
Q 1206 -91 779 398 
Q 353 888 353 1747 
Q 353 2609 779 3096 
Q 1206 3584 1959 3584 
z
" id="DejaVuSans-6f" transform="scale(0.015625)"/>
       <path d="M 1159 525 
L 1159 -1331 
L 581 -1331 
L 581 3500 
L 1159 3500 
L 1159 2969 
Q 1341 3281 1617 3432 
Q 1894 3584 2278 3584 
Q 2916 3584 3314 3078 
Q 3713 2572 3713 1747 
Q 3713 922 3314 415 
Q 2916 -91 2278 -91 
Q 1894 -91 1617 61 
Q 1341 213 1159 525 
z
M 3116 1747 
Q 3116 2381 2855 2742 
Q 2594 3103 2138 3103 
Q 1681 3103 1420 2742 
Q 1159 2381 1159 1747 
Q 1159 1113 1420 752 
Q 1681 391 2138 391 
Q 2594 391 2855 752 
Q 3116 1113 3116 1747 
z
" id="DejaVuSans-70" transform="scale(0.015625)"/>
       <path d="M 313 2009 
L 1997 2009 
L 1997 1497 
L 313 1497 
L 313 2009 
z
" id="DejaVuSans-2d" transform="scale(0.015625)"/>
       <path d="M 581 4863 
L 1159 4863 
L 1159 1991 
L 2875 3500 
L 3609 3500 
L 1753 1863 
L 3688 0 
L 2938 0 
L 1159 1709 
L 1159 0 
L 581 0 
L 581 4863 
z
" id="DejaVuSans-6b" transform="scale(0.015625)"/>
       <path id="DejaVuSans-20" transform="scale(0.015625)"/>
       <path d="M 2194 1759 
Q 1497 1759 1228 1600 
Q 959 1441 959 1056 
Q 959 750 1161 570 
Q 1363 391 1709 391 
Q 2188 391 2477 730 
Q 2766 1069 2766 1631 
L 2766 1759 
L 2194 1759 
z
M 3341 1997 
L 3341 0 
L 2766 0 
L 2766 531 
Q 2569 213 2275 61 
Q 1981 -91 1556 -91 
Q 1019 -91 701 211 
Q 384 513 384 1019 
Q 384 1609 779 1909 
Q 1175 2209 1959 2209 
L 2766 2209 
L 2766 2266 
Q 2766 2663 2505 2880 
Q 2244 3097 1772 3097 
Q 1472 3097 1187 3025 
Q 903 2953 641 2809 
L 641 3341 
Q 956 3463 1253 3523 
Q 1550 3584 1831 3584 
Q 2591 3584 2966 3190 
Q 3341 2797 3341 1997 
z
" id="DejaVuSans-61" transform="scale(0.015625)"/>
       <path d="M 3122 3366 
L 3122 2828 
Q 2878 2963 2633 3030 
Q 2388 3097 2138 3097 
Q 1578 3097 1268 2742 
Q 959 2388 959 1747 
Q 959 1106 1268 751 
Q 1578 397 2138 397 
Q 2388 397 2633 464 
Q 2878 531 3122 666 
L 3122 134 
Q 2881 22 2623 -34 
Q 2366 -91 2075 -91 
Q 1284 -91 818 406 
Q 353 903 353 1747 
Q 353 2603 823 3093 
Q 1294 3584 2113 3584 
Q 2378 3584 2631 3529 
Q 2884 3475 3122 3366 
z
" id="DejaVuSans-63" transform="scale(0.015625)"/>
       <path d="M 544 1381 
L 544 3500 
L 1119 3500 
L 1119 1403 
Q 1119 906 1312 657 
Q 1506 409 1894 409 
Q 2359 409 2629 706 
Q 2900 1003 2900 1516 
L 2900 3500 
L 3475 3500 
L 3475 0 
L 2900 0 
L 2900 538 
Q 2691 219 2414 64 
Q 2138 -91 1772 -91 
Q 1169 -91 856 284 
Q 544 659 544 1381 
z
M 1991 3584 
L 1991 3584 
z
" id="DejaVuSans-75" transform="scale(0.015625)"/>
       <path d="M 2631 2963 
Q 2534 3019 2420 3045 
Q 2306 3072 2169 3072 
Q 1681 3072 1420 2755 
Q 1159 2438 1159 1844 
L 1159 0 
L 581 0 
L 581 3500 
L 1159 3500 
L 1159 2956 
Q 1341 3275 1631 3429 
Q 1922 3584 2338 3584 
Q 2397 3584 2469 3576 
Q 2541 3569 2628 3553 
L 2631 2963 
z
" id="DejaVuSans-72" transform="scale(0.015625)"/>
       <path d="M 2059 -325 
Q 1816 -950 1584 -1140 
Q 1353 -1331 966 -1331 
L 506 -1331 
L 506 -850 
L 844 -850 
Q 1081 -850 1212 -737 
Q 1344 -625 1503 -206 
L 1606 56 
L 191 3500 
L 800 3500 
L 1894 763 
L 2988 3500 
L 3597 3500 
L 2059 -325 
z
" id="DejaVuSans-79" transform="scale(0.015625)"/>
       <path d="M 1984 4856 
Q 1566 4138 1362 3434 
Q 1159 2731 1159 2009 
Q 1159 1288 1364 580 
Q 1569 -128 1984 -844 
L 1484 -844 
Q 1016 -109 783 600 
Q 550 1309 550 2009 
Q 550 2706 781 3412 
Q 1013 4119 1484 4856 
L 1984 4856 
z
" id="DejaVuSans-28" transform="scale(0.015625)"/>
       <path d="M 4653 2053 
Q 4381 2053 4226 1822 
Q 4072 1591 4072 1178 
Q 4072 772 4226 539 
Q 4381 306 4653 306 
Q 4919 306 5073 539 
Q 5228 772 5228 1178 
Q 5228 1588 5073 1820 
Q 4919 2053 4653 2053 
z
M 4653 2450 
Q 5147 2450 5437 2106 
Q 5728 1763 5728 1178 
Q 5728 594 5436 251 
Q 5144 -91 4653 -91 
Q 4153 -91 3862 251 
Q 3572 594 3572 1178 
Q 3572 1766 3864 2108 
Q 4156 2450 4653 2450 
z
M 1428 4353 
Q 1159 4353 1004 4120 
Q 850 3888 850 3481 
Q 850 3069 1003 2837 
Q 1156 2606 1428 2606 
Q 1700 2606 1854 2837 
Q 2009 3069 2009 3481 
Q 2009 3884 1853 4118 
Q 1697 4353 1428 4353 
z
M 4250 4750 
L 4750 4750 
L 1831 -91 
L 1331 -91 
L 4250 4750 
z
M 1428 4750 
Q 1922 4750 2215 4408 
Q 2509 4066 2509 3481 
Q 2509 2891 2217 2550 
Q 1925 2209 1428 2209 
Q 931 2209 642 2551 
Q 353 2894 353 3481 
Q 353 4063 643 4406 
Q 934 4750 1428 4750 
z
" id="DejaVuSans-25" transform="scale(0.015625)"/>
       <path d="M 513 4856 
L 1013 4856 
Q 1481 4119 1714 3412 
Q 1947 2706 1947 2009 
Q 1947 1309 1714 600 
Q 1481 -109 1013 -844 
L 513 -844 
Q 928 -128 1133 580 
Q 1338 1288 1338 2009 
Q 1338 2731 1133 3434 
Q 928 4138 513 4856 
z
" id="DejaVuSans-29" transform="scale(0.015625)"/>
      </defs>
      <use xlink:href="#DejaVuSans-54"/>
      <use x="44.083984" xlink:href="#DejaVuSans-6f"/>
      <use x="105.265625" xlink:href="#DejaVuSans-70"/>
      <use x="168.742188" xlink:href="#DejaVuSans-2d"/>
      <use x="204.826172" xlink:href="#DejaVuSans-6b"/>
      <use x="262.736328" xlink:href="#DejaVuSans-20"/>
      <use x="294.523438" xlink:href="#DejaVuSans-61"/>
      <use x="355.802734" xlink:href="#DejaVuSans-63"/>
      <use x="410.783203" xlink:href="#DejaVuSans-63"/>
      <use x="465.763672" xlink:href="#DejaVuSans-75"/>
      <use x="529.142578" xlink:href="#DejaVuSans-72"/>
      <use x="570.255859" xlink:href="#DejaVuSans-61"/>
      <use x="631.535156" xlink:href="#DejaVuSans-63"/>
      <use x="686.515625" xlink:href="#DejaVuSans-79"/>
      <use x="745.695312" xlink:href="#DejaVuSans-20"/>
      <use x="777.482422" xlink:href="#DejaVuSans-28"/>
      <use x="816.496094" xlink:href="#DejaVuSans-25"/>
      <use x="911.515625" xlink:href="#DejaVuSans-29"/>
     </g>
    </g>
   </g>
   <g id="line2d_16">
    <path clip-path="url(#p05cbe3c3de)" d="M 68.901136 183.003352 
L 82.297069 183.003352 
L 82.297069 164.922679 
L 95.693002 164.922679 
L 95.693002 149.560326 
L 109.088935 149.560326 
L 109.088935 135.431938 
L 122.484868 135.431938 
L 122.484868 124.719433 
L 135.880801 124.719433 
L 135.880801 116.339758 
L 149.276734 116.339758 
L 149.276734 108.75986 
L 162.672667 108.75986 
L 162.672667 103.375654 
L 176.0686 103.375654 
L 176.0686 97.93934 
L 189.464533 97.93934 
L 189.464533 93.886349 
L 202.860467 93.886349 
L 202.860467 89.412892 
L 216.2564 89.412892 
L 216.2564 83.999169 
L 229.652333 83.999169 
L 229.652333 79.812689 
L 243.048266 79.812689 
L 243.048266 76.247611 
L 256.444199 76.247611 
L 256.444199 73.579093 
L 269.840132 73.579093 
L 269.840132 70.491547 
L 283.236065 70.491547 
L 283.236065 67.089057 
L 296.631998 67.089057 
L 296.631998 63.287264 
L 310.027931 63.287264 
L 310.027931 60.284269 
L 323.423864 60.284269 
L 323.423864 57.882616 
" style="fill:none;stroke:#000000;stroke-linecap:square;stroke-width:1.5;"/>
   </g>
   <g id="line2d_17">
    <path clip-path="url(#p05cbe3c3de)" d="M 68.901136 172.755359 
L 82.297069 172.755359 
L 82.297069 150.008264 
L 95.693002 150.008264 
L 95.693002 132.105942 
L 109.088935 132.105942 
L 109.088935 117.69289 
L 122.484868 117.69289 
L 122.484868 106.186534 
L 135.880801 106.186534 
L 135.880801 96.772035 
L 149.276734 96.772035 
L 149.276734 88.89068 
L 162.672667 88.89068 
L 162.672667 82.270345 
L 176.0686 82.270345 
L 176.0686 76.02446 
L 189.464533 76.02446 
L 189.464533 70.744766 
L 202.860467 70.744766 
L 202.860467 65.73884 
L 216.2564 65.73884 
L 216.2564 60.835791 
L 229.652333 60.835791 
L 229.652333 56.285031 
L 243.048266 56.285031 
L 243.048266 52.407759 
L 256.444199 52.407759 
L 256.444199 49.087172 
L 269.840132 49.087172 
L 269.840132 45.609453 
L 283.236065 45.609453 
L 283.236065 42.496921 
L 296.631998 42.496921 
L 296.631998 39.801301 
L 310.027931 39.801301 
L 310.027931 36.98582 
L 323.423864 36.98582 
L 323.423864 34.238255 
" style="fill:none;stroke:#0000ff;stroke-linecap:square;stroke-width:1.5;"/>
   </g>
   <g id="line2d_18">
    <path clip-path="url(#p05cbe3c3de)" d="M 68.901136 182.200374 
L 82.297069 182.200374 
L 82.297069 164.143133 
L 95.693002 164.143133 
L 95.693002 148.473366 
L 109.088935 148.473366 
L 109.088935 134.6139 
L 122.484868 134.6139 
L 122.484868 123.722703 
L 135.880801 123.722703 
L 135.880801 115.481677 
L 149.276734 115.481677 
L 149.276734 108.095571 
L 162.672667 108.095571 
L 162.672667 102.35233 
L 176.0686 102.35233 
L 176.0686 97.103594 
L 189.464533 97.103594 
L 189.464533 92.555098 
L 202.860467 92.555098 
L 202.860467 88.622977 
L 216.2564 88.622977 
L 216.2564 83.137113 
L 229.652333 83.137113 
L 229.652333 79.048338 
L 243.048266 79.048338 
L 243.048266 75.328584 
L 256.444199 75.328584 
L 256.444199 72.565867 
L 269.840132 72.565867 
L 269.840132 69.399561 
L 283.236065 69.399561 
L 283.236065 66.255575 
L 296.631998 66.255575 
L 296.631998 62.538376 
L 310.027931 62.538376 
L 310.027931 59.641924 
L 323.423864 59.641924 
L 323.423864 56.665055 
" style="fill:none;stroke:#ff0000;stroke-linecap:square;stroke-width:1.5;"/>
   </g>
   <g id="line2d_19">
    <path clip-path="url(#p05cbe3c3de)" d="M 68.901136 180.671994 
L 82.297069 180.671994 
L 82.297069 160.625522 
L 95.693002 160.625522 
L 95.693002 146.480819 
L 109.088935 146.480819 
L 109.088935 134.581355 
L 122.484868 134.581355 
L 122.484868 125.403482 
L 135.880801 125.403482 
L 135.880801 117.26418 
L 149.276734 117.26418 
L 149.276734 109.291116 
L 162.672667 109.291116 
L 162.672667 103.419951 
L 176.0686 103.419951 
L 176.0686 98.57248 
L 189.464533 98.57248 
L 189.464533 93.329384 
L 202.860467 93.329384 
L 202.860467 88.402138 
L 216.2564 88.402138 
L 216.2564 83.974244 
L 229.652333 83.974244 
L 229.652333 79.843794 
L 243.048266 79.843794 
L 243.048266 76.941729 
L 256.444199 76.941729 
L 256.444199 73.988188 
L 269.840132 73.988188 
L 269.840132 70.50584 
L 283.236065 70.50584 
L 283.236065 67.594192 
L 296.631998 67.594192 
L 296.631998 64.909953 
L 310.027931 64.909953 
L 310.027931 62.238142 
L 323.423864 62.238142 
L 323.423864 60.166294 
" style="fill:none;stroke:#008000;stroke-linecap:square;stroke-width:1.5;"/>
   </g>
   <g id="line2d_20">
    <path clip-path="url(#p05cbe3c3de)" d="M 68.901136 178.974981 
L 82.297069 178.974981 
L 82.297069 158.724351 
L 95.693002 158.724351 
L 95.693002 141.926657 
L 109.088935 141.926657 
L 109.088935 127.010849 
L 122.484868 127.010849 
L 122.484868 113.768913 
L 135.880801 113.768913 
L 135.880801 104.412101 
L 149.276734 104.412101 
L 149.276734 97.359456 
L 162.672667 97.359456 
L 162.672667 91.417655 
L 176.0686 91.417655 
L 176.0686 84.849216 
L 189.464533 84.849216 
L 189.464533 79.566162 
L 202.860467 79.566162 
L 202.860467 74.088991 
L 216.2564 74.088991 
L 216.2564 69.507138 
L 229.652333 69.507138 
L 229.652333 64.784504 
L 243.048266 64.784504 
L 243.048266 60.613567 
L 256.444199 60.613567 
L 256.444199 57.254081 
L 269.840132 57.254081 
L 269.840132 53.72774 
L 283.236065 53.72774 
L 283.236065 50.582124 
L 296.631998 50.582124 
L 296.631998 47.609345 
L 310.027931 47.609345 
L 310.027931 44.370801 
L 323.423864 44.370801 
L 323.423864 41.6397 
" style="fill:none;stroke:#ffa500;stroke-linecap:square;stroke-width:1.5;"/>
   </g>
   <g id="patch_3">
    <path d="M 56.175 190.441607 
L 56.175 26.8 
" style="fill:none;stroke:#000000;stroke-linecap:square;stroke-linejoin:miter;stroke-width:0.8;"/>
   </g>
   <g id="patch_4">
    <path d="M 336.15 190.441607 
L 336.15 26.8 
" style="fill:none;stroke:#000000;stroke-linecap:square;stroke-linejoin:miter;stroke-width:0.8;"/>
   </g>
   <g id="patch_5">
    <path d="M 56.175 190.441607 
L 336.15 190.441607 
" style="fill:none;stroke:#000000;stroke-linecap:square;stroke-linejoin:miter;stroke-width:0.8;"/>
   </g>
   <g id="patch_6">
    <path d="M 56.175 26.8 
L 336.15 26.8 
" style="fill:none;stroke:#000000;stroke-linecap:square;stroke-linejoin:miter;stroke-width:0.8;"/>
   </g>
   <g id="text_7">
    <!-- CFM-ID -->
    <g transform="translate(171.98625 20.8)scale(0.12 -0.12)">
     <defs>
      <path d="M 4288 256 
Q 3956 84 3597 -3 
Q 3238 -91 2847 -91 
Q 1681 -91 1000 561 
Q 319 1213 319 2328 
Q 319 3447 1000 4098 
Q 1681 4750 2847 4750 
Q 3238 4750 3597 4662 
Q 3956 4575 4288 4403 
L 4288 3438 
Q 3953 3666 3628 3772 
Q 3303 3878 2944 3878 
Q 2300 3878 1931 3465 
Q 1563 3053 1563 2328 
Q 1563 1606 1931 1193 
Q 2300 781 2944 781 
Q 3303 781 3628 887 
Q 3953 994 4288 1222 
L 4288 256 
z
" id="DejaVuSans-Bold-43" transform="scale(0.015625)"/>
      <path d="M 588 4666 
L 3834 4666 
L 3834 3756 
L 1791 3756 
L 1791 2888 
L 3713 2888 
L 3713 1978 
L 1791 1978 
L 1791 0 
L 588 0 
L 588 4666 
z
" id="DejaVuSans-Bold-46" transform="scale(0.015625)"/>
      <path d="M 588 4666 
L 2119 4666 
L 3181 2169 
L 4250 4666 
L 5778 4666 
L 5778 0 
L 4641 0 
L 4641 3413 
L 3566 897 
L 2803 897 
L 1728 3413 
L 1728 0 
L 588 0 
L 588 4666 
z
" id="DejaVuSans-Bold-4d" transform="scale(0.015625)"/>
      <path d="M 347 2297 
L 2309 2297 
L 2309 1388 
L 347 1388 
L 347 2297 
z
" id="DejaVuSans-Bold-2d" transform="scale(0.015625)"/>
      <path d="M 588 4666 
L 1791 4666 
L 1791 0 
L 588 0 
L 588 4666 
z
" id="DejaVuSans-Bold-49" transform="scale(0.015625)"/>
      <path d="M 1791 3756 
L 1791 909 
L 2222 909 
Q 2959 909 3348 1275 
Q 3738 1641 3738 2338 
Q 3738 3031 3350 3393 
Q 2963 3756 2222 3756 
L 1791 3756 
z
M 588 4666 
L 1856 4666 
Q 2919 4666 3439 4514 
Q 3959 4363 4331 4000 
Q 4659 3684 4818 3271 
Q 4978 2859 4978 2338 
Q 4978 1809 4818 1395 
Q 4659 981 4331 666 
Q 3956 303 3431 151 
Q 2906 0 1856 0 
L 588 0 
L 588 4666 
z
" id="DejaVuSans-Bold-44" transform="scale(0.015625)"/>
     </defs>
     <use xlink:href="#DejaVuSans-Bold-43"/>
     <use x="73.388672" xlink:href="#DejaVuSans-Bold-46"/>
     <use x="141.699219" xlink:href="#DejaVuSans-Bold-4d"/>
     <use x="241.210938" xlink:href="#DejaVuSans-Bold-2d"/>
     <use x="282.714844" xlink:href="#DejaVuSans-Bold-49"/>
     <use x="319.921875" xlink:href="#DejaVuSans-Bold-44"/>
    </g>
   </g>
   <g id="legend_1">
    <g id="patch_7">
     <path d="M 231.05 185.441607 
L 329.15 185.441607 
Q 331.15 185.441607 331.15 183.441607 
L 331.15 108.007232 
Q 331.15 106.007232 329.15 106.007232 
L 231.05 106.007232 
Q 229.05 106.007232 229.05 108.007232 
L 229.05 183.441607 
Q 229.05 185.441607 231.05 185.441607 
z
" style="fill:#ffffff;opacity:0.8;stroke:#cccccc;stroke-linejoin:miter;"/>
    </g>
    <g id="line2d_21">
     <path d="M 233.05 115.607232 
L 253.05 115.607232 
" style="fill:none;stroke:#000000;stroke-linecap:square;stroke-width:1.5;"/>
    </g>
    <g id="line2d_22"/>
    <g id="text_8">
     <!-- Only-MS$^2$ -->
     <g transform="translate(261.05 119.107232)scale(0.1 -0.1)">
      <defs>
       <path d="M 2522 4238 
Q 1834 4238 1429 3725 
Q 1025 3213 1025 2328 
Q 1025 1447 1429 934 
Q 1834 422 2522 422 
Q 3209 422 3611 934 
Q 4013 1447 4013 2328 
Q 4013 3213 3611 3725 
Q 3209 4238 2522 4238 
z
M 2522 4750 
Q 3503 4750 4090 4092 
Q 4678 3434 4678 2328 
Q 4678 1225 4090 567 
Q 3503 -91 2522 -91 
Q 1538 -91 948 565 
Q 359 1222 359 2328 
Q 359 3434 948 4092 
Q 1538 4750 2522 4750 
z
" id="DejaVuSans-4f" transform="scale(0.015625)"/>
       <path d="M 3513 2113 
L 3513 0 
L 2938 0 
L 2938 2094 
Q 2938 2591 2744 2837 
Q 2550 3084 2163 3084 
Q 1697 3084 1428 2787 
Q 1159 2491 1159 1978 
L 1159 0 
L 581 0 
L 581 3500 
L 1159 3500 
L 1159 2956 
Q 1366 3272 1645 3428 
Q 1925 3584 2291 3584 
Q 2894 3584 3203 3211 
Q 3513 2838 3513 2113 
z
" id="DejaVuSans-6e" transform="scale(0.015625)"/>
       <path d="M 603 4863 
L 1178 4863 
L 1178 0 
L 603 0 
L 603 4863 
z
" id="DejaVuSans-6c" transform="scale(0.015625)"/>
       <path d="M 628 4666 
L 1569 4666 
L 2759 1491 
L 3956 4666 
L 4897 4666 
L 4897 0 
L 4281 0 
L 4281 4097 
L 3078 897 
L 2444 897 
L 1241 4097 
L 1241 0 
L 628 0 
L 628 4666 
z
" id="DejaVuSans-4d" transform="scale(0.015625)"/>
       <path d="M 3425 4513 
L 3425 3897 
Q 3066 4069 2747 4153 
Q 2428 4238 2131 4238 
Q 1616 4238 1336 4038 
Q 1056 3838 1056 3469 
Q 1056 3159 1242 3001 
Q 1428 2844 1947 2747 
L 2328 2669 
Q 3034 2534 3370 2195 
Q 3706 1856 3706 1288 
Q 3706 609 3251 259 
Q 2797 -91 1919 -91 
Q 1588 -91 1214 -16 
Q 841 59 441 206 
L 441 856 
Q 825 641 1194 531 
Q 1563 422 1919 422 
Q 2459 422 2753 634 
Q 3047 847 3047 1241 
Q 3047 1584 2836 1778 
Q 2625 1972 2144 2069 
L 1759 2144 
Q 1053 2284 737 2584 
Q 422 2884 422 3419 
Q 422 4038 858 4394 
Q 1294 4750 2059 4750 
Q 2388 4750 2728 4690 
Q 3069 4631 3425 4513 
z
" id="DejaVuSans-53" transform="scale(0.015625)"/>
      </defs>
      <use transform="translate(0 0.765625)" xlink:href="#DejaVuSans-4f"/>
      <use transform="translate(78.710938 0.765625)" xlink:href="#DejaVuSans-6e"/>
      <use transform="translate(142.089844 0.765625)" xlink:href="#DejaVuSans-6c"/>
      <use transform="translate(169.873047 0.765625)" xlink:href="#DejaVuSans-79"/>
      <use transform="translate(229.052734 0.765625)" xlink:href="#DejaVuSans-2d"/>
      <use transform="translate(265.136719 0.765625)" xlink:href="#DejaVuSans-4d"/>
      <use transform="translate(351.416016 0.765625)" xlink:href="#DejaVuSans-53"/>
      <use transform="translate(415.849609 39.046875)scale(0.7)" xlink:href="#DejaVuSans-32"/>
     </g>
    </g>
    <g id="line2d_23">
     <path d="M 233.05 130.30567 
L 253.05 130.30567 
" style="fill:none;stroke:#0000ff;stroke-linecap:square;stroke-width:1.5;"/>
    </g>
    <g id="line2d_24"/>
    <g id="text_9">
     <!-- LC-MS$^2$Struct -->
     <g transform="translate(261.05 133.80567)scale(0.1 -0.1)">
      <defs>
       <path d="M 628 4666 
L 1259 4666 
L 1259 531 
L 3531 531 
L 3531 0 
L 628 0 
L 628 4666 
z
" id="DejaVuSans-4c" transform="scale(0.015625)"/>
       <path d="M 4122 4306 
L 4122 3641 
Q 3803 3938 3442 4084 
Q 3081 4231 2675 4231 
Q 1875 4231 1450 3742 
Q 1025 3253 1025 2328 
Q 1025 1406 1450 917 
Q 1875 428 2675 428 
Q 3081 428 3442 575 
Q 3803 722 4122 1019 
L 4122 359 
Q 3791 134 3420 21 
Q 3050 -91 2638 -91 
Q 1578 -91 968 557 
Q 359 1206 359 2328 
Q 359 3453 968 4101 
Q 1578 4750 2638 4750 
Q 3056 4750 3426 4639 
Q 3797 4528 4122 4306 
z
" id="DejaVuSans-43" transform="scale(0.015625)"/>
       <path d="M 1172 4494 
L 1172 3500 
L 2356 3500 
L 2356 3053 
L 1172 3053 
L 1172 1153 
Q 1172 725 1289 603 
Q 1406 481 1766 481 
L 2356 481 
L 2356 0 
L 1766 0 
Q 1100 0 847 248 
Q 594 497 594 1153 
L 594 3053 
L 172 3053 
L 172 3500 
L 594 3500 
L 594 4494 
L 1172 4494 
z
" id="DejaVuSans-74" transform="scale(0.015625)"/>
      </defs>
      <use transform="translate(0 0.765625)" xlink:href="#DejaVuSans-4c"/>
      <use transform="translate(55.712891 0.765625)" xlink:href="#DejaVuSans-43"/>
      <use transform="translate(125.537109 0.765625)" xlink:href="#DejaVuSans-2d"/>
      <use transform="translate(161.621094 0.765625)" xlink:href="#DejaVuSans-4d"/>
      <use transform="translate(247.900391 0.765625)" xlink:href="#DejaVuSans-53"/>
      <use transform="translate(312.333984 39.046875)scale(0.7)" xlink:href="#DejaVuSans-32"/>
      <use transform="translate(359.604492 0.765625)" xlink:href="#DejaVuSans-53"/>
      <use transform="translate(423.081055 0.765625)" xlink:href="#DejaVuSans-74"/>
      <use transform="translate(462.290039 0.765625)" xlink:href="#DejaVuSans-72"/>
      <use transform="translate(503.40332 0.765625)" xlink:href="#DejaVuSans-75"/>
      <use transform="translate(566.782227 0.765625)" xlink:href="#DejaVuSans-63"/>
      <use transform="translate(621.762695 0.765625)" xlink:href="#DejaVuSans-74"/>
     </g>
    </g>
    <g id="line2d_25">
     <path d="M 233.05 144.983795 
L 253.05 144.983795 
" style="fill:none;stroke:#ff0000;stroke-linecap:square;stroke-width:1.5;"/>
    </g>
    <g id="line2d_26"/>
    <g id="text_10">
     <!-- MS$^2$+RT -->
     <g transform="translate(261.05 148.483795)scale(0.1 -0.1)">
      <defs>
       <path d="M 2944 4013 
L 2944 2272 
L 4684 2272 
L 4684 1741 
L 2944 1741 
L 2944 0 
L 2419 0 
L 2419 1741 
L 678 1741 
L 678 2272 
L 2419 2272 
L 2419 4013 
L 2944 4013 
z
" id="DejaVuSans-2b" transform="scale(0.015625)"/>
       <path d="M 2841 2188 
Q 3044 2119 3236 1894 
Q 3428 1669 3622 1275 
L 4263 0 
L 3584 0 
L 2988 1197 
Q 2756 1666 2539 1819 
Q 2322 1972 1947 1972 
L 1259 1972 
L 1259 0 
L 628 0 
L 628 4666 
L 2053 4666 
Q 2853 4666 3247 4331 
Q 3641 3997 3641 3322 
Q 3641 2881 3436 2590 
Q 3231 2300 2841 2188 
z
M 1259 4147 
L 1259 2491 
L 2053 2491 
Q 2509 2491 2742 2702 
Q 2975 2913 2975 3322 
Q 2975 3731 2742 3939 
Q 2509 4147 2053 4147 
L 1259 4147 
z
" id="DejaVuSans-52" transform="scale(0.015625)"/>
      </defs>
      <use transform="translate(0 0.765625)" xlink:href="#DejaVuSans-4d"/>
      <use transform="translate(86.279297 0.765625)" xlink:href="#DejaVuSans-53"/>
      <use transform="translate(150.712891 39.046875)scale(0.7)" xlink:href="#DejaVuSans-32"/>
      <use transform="translate(197.983398 0.765625)" xlink:href="#DejaVuSans-2b"/>
      <use transform="translate(281.772461 0.765625)" xlink:href="#DejaVuSans-52"/>
      <use transform="translate(351.254883 0.765625)" xlink:href="#DejaVuSans-54"/>
     </g>
    </g>
    <g id="line2d_27">
     <path d="M 233.05 161.163482 
L 253.05 161.163482 
" style="fill:none;stroke:#008000;stroke-linecap:square;stroke-width:1.5;"/>
    </g>
    <g id="line2d_28"/>
    <g id="text_11">
     <!-- MS$^2$+logP -->
     <g transform="translate(261.05 164.663482)scale(0.1 -0.1)">
      <defs>
       <path d="M 2906 1791 
Q 2906 2416 2648 2759 
Q 2391 3103 1925 3103 
Q 1463 3103 1205 2759 
Q 947 2416 947 1791 
Q 947 1169 1205 825 
Q 1463 481 1925 481 
Q 2391 481 2648 825 
Q 2906 1169 2906 1791 
z
M 3481 434 
Q 3481 -459 3084 -895 
Q 2688 -1331 1869 -1331 
Q 1566 -1331 1297 -1286 
Q 1028 -1241 775 -1147 
L 775 -588 
Q 1028 -725 1275 -790 
Q 1522 -856 1778 -856 
Q 2344 -856 2625 -561 
Q 2906 -266 2906 331 
L 2906 616 
Q 2728 306 2450 153 
Q 2172 0 1784 0 
Q 1141 0 747 490 
Q 353 981 353 1791 
Q 353 2603 747 3093 
Q 1141 3584 1784 3584 
Q 2172 3584 2450 3431 
Q 2728 3278 2906 2969 
L 2906 3500 
L 3481 3500 
L 3481 434 
z
" id="DejaVuSans-67" transform="scale(0.015625)"/>
       <path d="M 1259 4147 
L 1259 2394 
L 2053 2394 
Q 2494 2394 2734 2622 
Q 2975 2850 2975 3272 
Q 2975 3691 2734 3919 
Q 2494 4147 2053 4147 
L 1259 4147 
z
M 628 4666 
L 2053 4666 
Q 2838 4666 3239 4311 
Q 3641 3956 3641 3272 
Q 3641 2581 3239 2228 
Q 2838 1875 2053 1875 
L 1259 1875 
L 1259 0 
L 628 0 
L 628 4666 
z
" id="DejaVuSans-50" transform="scale(0.015625)"/>
      </defs>
      <use transform="translate(0 0.765625)" xlink:href="#DejaVuSans-4d"/>
      <use transform="translate(86.279297 0.765625)" xlink:href="#DejaVuSans-53"/>
      <use transform="translate(150.712891 39.046875)scale(0.7)" xlink:href="#DejaVuSans-32"/>
      <use transform="translate(197.983398 0.765625)" xlink:href="#DejaVuSans-2b"/>
      <use transform="translate(281.772461 0.765625)" xlink:href="#DejaVuSans-6c"/>
      <use transform="translate(309.555664 0.765625)" xlink:href="#DejaVuSans-6f"/>
      <use transform="translate(370.737305 0.765625)" xlink:href="#DejaVuSans-67"/>
      <use transform="translate(434.213867 0.765625)" xlink:href="#DejaVuSans-50"/>
     </g>
    </g>
    <g id="line2d_29">
     <path d="M 233.05 175.86192 
L 253.05 175.86192 
" style="fill:none;stroke:#ffa500;stroke-linecap:square;stroke-width:1.5;"/>
    </g>
    <g id="line2d_30"/>
    <g id="text_12">
     <!-- MS$^2$+RO -->
     <g transform="translate(261.05 179.36192)scale(0.1 -0.1)">
      <use transform="translate(0 0.765625)" xlink:href="#DejaVuSans-4d"/>
      <use transform="translate(86.279297 0.765625)" xlink:href="#DejaVuSans-53"/>
      <use transform="translate(150.712891 39.046875)scale(0.7)" xlink:href="#DejaVuSans-32"/>
      <use transform="translate(197.983398 0.765625)" xlink:href="#DejaVuSans-2b"/>
      <use transform="translate(281.772461 0.765625)" xlink:href="#DejaVuSans-52"/>
      <use transform="translate(351.254883 0.765625)" xlink:href="#DejaVuSans-4f"/>
     </g>
    </g>
   </g>
  </g>
  <g id="axes_2">
   <g id="patch_8">
    <path d="M 368.7 190.441607 
L 648.675 190.441607 
L 648.675 26.8 
L 368.7 26.8 
z
" style="fill:#ffffff;"/>
   </g>
   <g id="matplotlib.axis_3">
    <g id="xtick_6">
     <g id="line2d_31">
      <g>
       <use style="stroke:#000000;stroke-width:0.8;" x="381.426136" xlink:href="#mf188b31e14" y="190.441607"/>
      </g>
     </g>
    </g>
    <g id="xtick_7">
     <g id="line2d_32">
      <g>
       <use style="stroke:#000000;stroke-width:0.8;" x="435.009868" xlink:href="#mf188b31e14" y="190.441607"/>
      </g>
     </g>
    </g>
    <g id="xtick_8">
     <g id="line2d_33">
      <g>
       <use style="stroke:#000000;stroke-width:0.8;" x="501.989533" xlink:href="#mf188b31e14" y="190.441607"/>
      </g>
     </g>
    </g>
    <g id="xtick_9">
     <g id="line2d_34">
      <g>
       <use style="stroke:#000000;stroke-width:0.8;" x="568.969199" xlink:href="#mf188b31e14" y="190.441607"/>
      </g>
     </g>
    </g>
    <g id="xtick_10">
     <g id="line2d_35">
      <g>
       <use style="stroke:#000000;stroke-width:0.8;" x="635.948864" xlink:href="#mf188b31e14" y="190.441607"/>
      </g>
     </g>
    </g>
   </g>
   <g id="matplotlib.axis_4">
    <g id="ytick_6">
     <g id="line2d_36">
      <path clip-path="url(#p3b3dc2d1d2)" d="M 368.7 173.929462 
L 648.675 173.929462 
" style="fill:none;stroke:#b0b0b0;stroke-linecap:square;stroke-width:0.8;"/>
     </g>
     <g id="line2d_37">
      <g>
       <use style="stroke:#000000;stroke-width:0.8;" x="368.7" xlink:href="#m983a48d73f" y="173.929462"/>
      </g>
     </g>
     <g id="text_13">
      <!-- 10 -->
      <g transform="translate(348.975 177.728681)scale(0.1 -0.1)">
       <use xlink:href="#DejaVuSans-31"/>
       <use x="63.623047" xlink:href="#DejaVuSans-30"/>
      </g>
     </g>
    </g>
    <g id="ytick_7">
     <g id="line2d_38">
      <path clip-path="url(#p3b3dc2d1d2)" d="M 368.7 145.107906 
L 648.675 145.107906 
" style="fill:none;stroke:#b0b0b0;stroke-linecap:square;stroke-width:0.8;"/>
     </g>
     <g id="line2d_39">
      <g>
       <use style="stroke:#000000;stroke-width:0.8;" x="368.7" xlink:href="#m983a48d73f" y="145.107906"/>
      </g>
     </g>
     <g id="text_14">
      <!-- 20 -->
      <g transform="translate(348.975 148.907124)scale(0.1 -0.1)">
       <use xlink:href="#DejaVuSans-32"/>
       <use x="63.623047" xlink:href="#DejaVuSans-30"/>
      </g>
     </g>
    </g>
    <g id="ytick_8">
     <g id="line2d_40">
      <path clip-path="url(#p3b3dc2d1d2)" d="M 368.7 116.286349 
L 648.675 116.286349 
" style="fill:none;stroke:#b0b0b0;stroke-linecap:square;stroke-width:0.8;"/>
     </g>
     <g id="line2d_41">
      <g>
       <use style="stroke:#000000;stroke-width:0.8;" x="368.7" xlink:href="#m983a48d73f" y="116.286349"/>
      </g>
     </g>
     <g id="text_15">
      <!-- 30 -->
      <g transform="translate(348.975 120.085568)scale(0.1 -0.1)">
       <use xlink:href="#DejaVuSans-33"/>
       <use x="63.623047" xlink:href="#DejaVuSans-30"/>
      </g>
     </g>
    </g>
    <g id="ytick_9">
     <g id="line2d_42">
      <path clip-path="url(#p3b3dc2d1d2)" d="M 368.7 87.464792 
L 648.675 87.464792 
" style="fill:none;stroke:#b0b0b0;stroke-linecap:square;stroke-width:0.8;"/>
     </g>
     <g id="line2d_43">
      <g>
       <use style="stroke:#000000;stroke-width:0.8;" x="368.7" xlink:href="#m983a48d73f" y="87.464792"/>
      </g>
     </g>
     <g id="text_16">
      <!-- 40 -->
      <g transform="translate(348.975 91.264011)scale(0.1 -0.1)">
       <use xlink:href="#DejaVuSans-34"/>
       <use x="63.623047" xlink:href="#DejaVuSans-30"/>
      </g>
     </g>
    </g>
    <g id="ytick_10">
     <g id="line2d_44">
      <path clip-path="url(#p3b3dc2d1d2)" d="M 368.7 58.643236 
L 648.675 58.643236 
" style="fill:none;stroke:#b0b0b0;stroke-linecap:square;stroke-width:0.8;"/>
     </g>
     <g id="line2d_45">
      <g>
       <use style="stroke:#000000;stroke-width:0.8;" x="368.7" xlink:href="#m983a48d73f" y="58.643236"/>
      </g>
     </g>
     <g id="text_17">
      <!-- 50 -->
      <g transform="translate(348.975 62.442454)scale(0.1 -0.1)">
       <use xlink:href="#DejaVuSans-35"/>
       <use x="63.623047" xlink:href="#DejaVuSans-30"/>
      </g>
     </g>
    </g>
    <g id="ytick_11">
     <g id="line2d_46">
      <path clip-path="url(#p3b3dc2d1d2)" d="M 368.7 29.821679 
L 648.675 29.821679 
" style="fill:none;stroke:#b0b0b0;stroke-linecap:square;stroke-width:0.8;"/>
     </g>
     <g id="line2d_47">
      <g>
       <use style="stroke:#000000;stroke-width:0.8;" x="368.7" xlink:href="#m983a48d73f" y="29.821679"/>
      </g>
     </g>
     <g id="text_18">
      <!-- 60 -->
      <g transform="translate(348.975 33.620898)scale(0.1 -0.1)">
       <defs>
        <path d="M 2113 2584 
Q 1688 2584 1439 2293 
Q 1191 2003 1191 1497 
Q 1191 994 1439 701 
Q 1688 409 2113 409 
Q 2538 409 2786 701 
Q 3034 994 3034 1497 
Q 3034 2003 2786 2293 
Q 2538 2584 2113 2584 
z
M 3366 4563 
L 3366 3988 
Q 3128 4100 2886 4159 
Q 2644 4219 2406 4219 
Q 1781 4219 1451 3797 
Q 1122 3375 1075 2522 
Q 1259 2794 1537 2939 
Q 1816 3084 2150 3084 
Q 2853 3084 3261 2657 
Q 3669 2231 3669 1497 
Q 3669 778 3244 343 
Q 2819 -91 2113 -91 
Q 1303 -91 875 529 
Q 447 1150 447 2328 
Q 447 3434 972 4092 
Q 1497 4750 2381 4750 
Q 2619 4750 2861 4703 
Q 3103 4656 3366 4563 
z
" id="DejaVuSans-36" transform="scale(0.015625)"/>
       </defs>
       <use xlink:href="#DejaVuSans-36"/>
       <use x="63.623047" xlink:href="#DejaVuSans-30"/>
      </g>
     </g>
    </g>
   </g>
   <g id="line2d_48">
    <path clip-path="url(#p3b3dc2d1d2)" d="M 381.426136 183.003352 
L 394.822069 183.003352 
L 394.822069 164.718997 
L 408.218002 164.718997 
L 408.218002 150.546977 
L 421.613935 150.546977 
L 421.613935 136.931988 
L 435.009868 136.931988 
L 435.009868 126.660481 
L 448.405801 126.660481 
L 448.405801 118.086647 
L 461.801734 118.086647 
L 461.801734 111.193251 
L 475.197667 111.193251 
L 475.197667 106.623795 
L 488.5936 106.623795 
L 488.5936 101.732085 
L 501.989533 101.732085 
L 501.989533 96.446254 
L 515.385467 96.446254 
L 515.385467 92.325564 
L 528.7814 92.325564 
L 528.7814 88.390269 
L 542.177333 88.390269 
L 542.177333 84.567143 
L 555.573266 84.567143 
L 555.573266 81.450322 
L 568.969199 81.450322 
L 568.969199 78.570976 
L 582.365132 78.570976 
L 582.365132 76.023008 
L 595.761065 76.023008 
L 595.761065 73.901172 
L 609.156998 73.901172 
L 609.156998 71.22744 
L 622.552931 71.22744 
L 622.552931 68.807728 
L 635.948864 68.807728 
L 635.948864 66.780312 
" style="fill:none;stroke:#000000;stroke-linecap:square;stroke-width:1.5;"/>
   </g>
   <g id="line2d_49">
    <path clip-path="url(#p3b3dc2d1d2)" d="M 381.426136 162.002682 
L 394.822069 162.002682 
L 394.822069 138.052702 
L 408.218002 138.052702 
L 408.218002 120.153893 
L 421.613935 120.153893 
L 421.613935 105.723407 
L 435.009868 105.723407 
L 435.009868 95.771781 
L 448.405801 95.771781 
L 448.405801 86.955486 
L 461.801734 86.955486 
L 461.801734 80.268173 
L 475.197667 80.268173 
L 475.197667 74.904611 
L 488.5936 74.904611 
L 488.5936 69.888491 
L 501.989533 69.888491 
L 501.989533 64.912907 
L 515.385467 64.912907 
L 515.385467 60.497745 
L 528.7814 60.497745 
L 528.7814 56.562602 
L 542.177333 56.562602 
L 542.177333 52.856686 
L 555.573266 52.856686 
L 555.573266 49.82118 
L 568.969199 49.82118 
L 568.969199 46.524655 
L 582.365132 46.524655 
L 582.365132 43.881045 
L 595.761065 43.881045 
L 595.761065 40.959453 
L 609.156998 40.959453 
L 609.156998 38.69051 
L 622.552931 38.69051 
L 622.552931 36.218572 
L 635.948864 36.218572 
L 635.948864 34.238255 
" style="fill:none;stroke:#0000ff;stroke-linecap:square;stroke-width:1.5;"/>
   </g>
   <g id="line2d_50">
    <path clip-path="url(#p3b3dc2d1d2)" d="M 381.426136 182.166011 
L 394.822069 182.166011 
L 394.822069 163.495346 
L 408.218002 163.495346 
L 408.218002 149.216621 
L 421.613935 149.216621 
L 421.613935 135.860607 
L 435.009868 135.860607 
L 435.009868 125.782518 
L 448.405801 125.782518 
L 448.405801 117.411042 
L 461.801734 117.411042 
L 461.801734 111.133661 
L 475.197667 111.133661 
L 475.197667 106.398914 
L 488.5936 106.398914 
L 488.5936 101.287919 
L 501.989533 101.287919 
L 501.989533 96.114313 
L 515.385467 96.114313 
L 515.385467 91.994697 
L 528.7814 91.994697 
L 528.7814 88.401759 
L 542.177333 88.401759 
L 542.177333 84.623095 
L 555.573266 84.623095 
L 555.573266 81.513251 
L 568.969199 81.513251 
L 568.969199 78.936946 
L 582.365132 78.936946 
L 582.365132 76.622683 
L 595.761065 76.622683 
L 595.761065 74.492039 
L 609.156998 74.492039 
L 609.156998 71.884044 
L 622.552931 71.884044 
L 622.552931 69.57294 
L 635.948864 69.57294 
L 635.948864 67.681696 
" style="fill:none;stroke:#ff0000;stroke-linecap:square;stroke-width:1.5;"/>
   </g>
   <g id="line2d_51">
    <path clip-path="url(#p3b3dc2d1d2)" d="M 381.426136 179.99051 
L 394.822069 179.99051 
L 394.822069 162.3182 
L 408.218002 162.3182 
L 408.218002 148.987812 
L 421.613935 148.987812 
L 421.613935 137.037284 
L 435.009868 137.037284 
L 435.009868 126.903121 
L 448.405801 126.903121 
L 448.405801 118.885184 
L 461.801734 118.885184 
L 461.801734 111.390255 
L 475.197667 111.390255 
L 475.197667 105.322743 
L 488.5936 105.322743 
L 488.5936 99.999727 
L 501.989533 99.999727 
L 501.989533 95.242478 
L 515.385467 95.242478 
L 515.385467 91.622256 
L 528.7814 91.622256 
L 528.7814 88.367034 
L 542.177333 88.367034 
L 542.177333 84.628723 
L 555.573266 84.628723 
L 555.573266 81.207361 
L 568.969199 81.207361 
L 568.969199 77.603698 
L 582.365132 77.603698 
L 582.365132 74.741523 
L 595.761065 74.741523 
L 595.761065 72.178081 
L 609.156998 72.178081 
L 609.156998 69.72767 
L 622.552931 69.72767 
L 622.552931 67.329425 
L 635.948864 67.329425 
L 635.948864 64.739513 
" style="fill:none;stroke:#008000;stroke-linecap:square;stroke-width:1.5;"/>
   </g>
   <g id="line2d_52">
    <path clip-path="url(#p3b3dc2d1d2)" d="M 381.426136 177.861505 
L 394.822069 177.861505 
L 394.822069 157.050328 
L 408.218002 157.050328 
L 408.218002 141.339108 
L 421.613935 141.339108 
L 421.613935 128.357198 
L 435.009868 128.357198 
L 435.009868 118.780661 
L 448.405801 118.780661 
L 448.405801 109.82098 
L 461.801734 109.82098 
L 461.801734 102.391985 
L 475.197667 102.391985 
L 475.197667 96.173447 
L 488.5936 96.173447 
L 488.5936 90.571278 
L 501.989533 90.571278 
L 501.989533 85.305828 
L 515.385467 85.305828 
L 515.385467 80.410656 
L 528.7814 80.410656 
L 528.7814 76.579451 
L 542.177333 76.579451 
L 542.177333 72.794524 
L 555.573266 72.794524 
L 555.573266 69.698996 
L 568.969199 69.698996 
L 568.969199 66.742675 
L 582.365132 66.742675 
L 582.365132 63.723536 
L 595.761065 63.723536 
L 595.761065 60.813738 
L 609.156998 60.813738 
L 609.156998 58.206523 
L 622.552931 58.206523 
L 622.552931 55.645849 
L 635.948864 55.645849 
L 635.948864 53.163842 
" style="fill:none;stroke:#ffa500;stroke-linecap:square;stroke-width:1.5;"/>
   </g>
   <g id="patch_9">
    <path d="M 368.7 190.441607 
L 368.7 26.8 
" style="fill:none;stroke:#000000;stroke-linecap:square;stroke-linejoin:miter;stroke-width:0.8;"/>
   </g>
   <g id="patch_10">
    <path d="M 648.675 190.441607 
L 648.675 26.8 
" style="fill:none;stroke:#000000;stroke-linecap:square;stroke-linejoin:miter;stroke-width:0.8;"/>
   </g>
   <g id="patch_11">
    <path d="M 368.7 190.441607 
L 648.675 190.441607 
" style="fill:none;stroke:#000000;stroke-linecap:square;stroke-linejoin:miter;stroke-width:0.8;"/>
   </g>
   <g id="patch_12">
    <path d="M 368.7 26.8 
L 648.675 26.8 
" style="fill:none;stroke:#000000;stroke-linecap:square;stroke-linejoin:miter;stroke-width:0.8;"/>
   </g>
   <g id="text_19">
    <!-- MetFrag -->
    <g transform="translate(480.760312 20.8)scale(0.12 -0.12)">
     <defs>
      <path d="M 4031 1759 
L 4031 1441 
L 1416 1441 
Q 1456 1047 1700 850 
Q 1944 653 2381 653 
Q 2734 653 3104 758 
Q 3475 863 3866 1075 
L 3866 213 
Q 3469 63 3072 -14 
Q 2675 -91 2278 -91 
Q 1328 -91 801 392 
Q 275 875 275 1747 
Q 275 2603 792 3093 
Q 1309 3584 2216 3584 
Q 3041 3584 3536 3087 
Q 4031 2591 4031 1759 
z
M 2881 2131 
Q 2881 2450 2695 2645 
Q 2509 2841 2209 2841 
Q 1884 2841 1681 2658 
Q 1478 2475 1428 2131 
L 2881 2131 
z
" id="DejaVuSans-Bold-65" transform="scale(0.015625)"/>
      <path d="M 1759 4494 
L 1759 3500 
L 2913 3500 
L 2913 2700 
L 1759 2700 
L 1759 1216 
Q 1759 972 1856 886 
Q 1953 800 2241 800 
L 2816 800 
L 2816 0 
L 1856 0 
Q 1194 0 917 276 
Q 641 553 641 1216 
L 641 2700 
L 84 2700 
L 84 3500 
L 641 3500 
L 641 4494 
L 1759 4494 
z
" id="DejaVuSans-Bold-74" transform="scale(0.015625)"/>
      <path d="M 3138 2547 
Q 2991 2616 2845 2648 
Q 2700 2681 2553 2681 
Q 2122 2681 1889 2404 
Q 1656 2128 1656 1613 
L 1656 0 
L 538 0 
L 538 3500 
L 1656 3500 
L 1656 2925 
Q 1872 3269 2151 3426 
Q 2431 3584 2822 3584 
Q 2878 3584 2943 3579 
Q 3009 3575 3134 3559 
L 3138 2547 
z
" id="DejaVuSans-Bold-72" transform="scale(0.015625)"/>
      <path d="M 2106 1575 
Q 1756 1575 1579 1456 
Q 1403 1338 1403 1106 
Q 1403 894 1545 773 
Q 1688 653 1941 653 
Q 2256 653 2472 879 
Q 2688 1106 2688 1447 
L 2688 1575 
L 2106 1575 
z
M 3816 1997 
L 3816 0 
L 2688 0 
L 2688 519 
Q 2463 200 2181 54 
Q 1900 -91 1497 -91 
Q 953 -91 614 226 
Q 275 544 275 1050 
Q 275 1666 698 1953 
Q 1122 2241 2028 2241 
L 2688 2241 
L 2688 2328 
Q 2688 2594 2478 2717 
Q 2269 2841 1825 2841 
Q 1466 2841 1156 2769 
Q 847 2697 581 2553 
L 581 3406 
Q 941 3494 1303 3539 
Q 1666 3584 2028 3584 
Q 2975 3584 3395 3211 
Q 3816 2838 3816 1997 
z
" id="DejaVuSans-Bold-61" transform="scale(0.015625)"/>
      <path d="M 2919 594 
Q 2688 288 2409 144 
Q 2131 0 1766 0 
Q 1125 0 706 504 
Q 288 1009 288 1791 
Q 288 2575 706 3076 
Q 1125 3578 1766 3578 
Q 2131 3578 2409 3434 
Q 2688 3291 2919 2981 
L 2919 3500 
L 4044 3500 
L 4044 353 
Q 4044 -491 3511 -936 
Q 2978 -1381 1966 -1381 
Q 1638 -1381 1331 -1331 
Q 1025 -1281 716 -1178 
L 716 -306 
Q 1009 -475 1290 -558 
Q 1572 -641 1856 -641 
Q 2406 -641 2662 -400 
Q 2919 -159 2919 353 
L 2919 594 
z
M 2181 2772 
Q 1834 2772 1640 2515 
Q 1447 2259 1447 1791 
Q 1447 1309 1634 1061 
Q 1822 813 2181 813 
Q 2531 813 2725 1069 
Q 2919 1325 2919 1791 
Q 2919 2259 2725 2515 
Q 2531 2772 2181 2772 
z
" id="DejaVuSans-Bold-67" transform="scale(0.015625)"/>
     </defs>
     <use xlink:href="#DejaVuSans-Bold-4d"/>
     <use x="99.511719" xlink:href="#DejaVuSans-Bold-65"/>
     <use x="167.333984" xlink:href="#DejaVuSans-Bold-74"/>
     <use x="215.136719" xlink:href="#DejaVuSans-Bold-46"/>
     <use x="277.072266" xlink:href="#DejaVuSans-Bold-72"/>
     <use x="326.388672" xlink:href="#DejaVuSans-Bold-61"/>
     <use x="393.869141" xlink:href="#DejaVuSans-Bold-67"/>
    </g>
   </g>
  </g>
  <g id="axes_3">
   <g id="patch_13">
    <path d="M 681.225 190.441607 
L 961.2 190.441607 
L 961.2 26.8 
L 681.225 26.8 
z
" style="fill:#ffffff;"/>
   </g>
   <g id="matplotlib.axis_5">
    <g id="xtick_11">
     <g id="line2d_53">
      <g>
       <use style="stroke:#000000;stroke-width:0.8;" x="693.951136" xlink:href="#mf188b31e14" y="190.441607"/>
      </g>
     </g>
    </g>
    <g id="xtick_12">
     <g id="line2d_54">
      <g>
       <use style="stroke:#000000;stroke-width:0.8;" x="747.534868" xlink:href="#mf188b31e14" y="190.441607"/>
      </g>
     </g>
    </g>
    <g id="xtick_13">
     <g id="line2d_55">
      <g>
       <use style="stroke:#000000;stroke-width:0.8;" x="814.514533" xlink:href="#mf188b31e14" y="190.441607"/>
      </g>
     </g>
    </g>
    <g id="xtick_14">
     <g id="line2d_56">
      <g>
       <use style="stroke:#000000;stroke-width:0.8;" x="881.494199" xlink:href="#mf188b31e14" y="190.441607"/>
      </g>
     </g>
    </g>
    <g id="xtick_15">
     <g id="line2d_57">
      <g>
       <use style="stroke:#000000;stroke-width:0.8;" x="948.473864" xlink:href="#mf188b31e14" y="190.441607"/>
      </g>
     </g>
    </g>
   </g>
   <g id="matplotlib.axis_6">
    <g id="ytick_12">
     <g id="line2d_58">
      <path clip-path="url(#pf1b3ae5ac8)" d="M 681.225 165.790701 
L 961.2 165.790701 
" style="fill:none;stroke:#b0b0b0;stroke-linecap:square;stroke-width:0.8;"/>
     </g>
     <g id="line2d_59">
      <g>
       <use style="stroke:#000000;stroke-width:0.8;" x="681.225" xlink:href="#m983a48d73f" y="165.790701"/>
      </g>
     </g>
     <g id="text_20">
      <!-- 40 -->
      <g transform="translate(661.5 169.589919)scale(0.1 -0.1)">
       <use xlink:href="#DejaVuSans-34"/>
       <use x="63.623047" xlink:href="#DejaVuSans-30"/>
      </g>
     </g>
    </g>
    <g id="ytick_13">
     <g id="line2d_60">
      <path clip-path="url(#pf1b3ae5ac8)" d="M 681.225 132.114897 
L 961.2 132.114897 
" style="fill:none;stroke:#b0b0b0;stroke-linecap:square;stroke-width:0.8;"/>
     </g>
     <g id="line2d_61">
      <g>
       <use style="stroke:#000000;stroke-width:0.8;" x="681.225" xlink:href="#m983a48d73f" y="132.114897"/>
      </g>
     </g>
     <g id="text_21">
      <!-- 50 -->
      <g transform="translate(661.5 135.914116)scale(0.1 -0.1)">
       <use xlink:href="#DejaVuSans-35"/>
       <use x="63.623047" xlink:href="#DejaVuSans-30"/>
      </g>
     </g>
    </g>
    <g id="ytick_14">
     <g id="line2d_62">
      <path clip-path="url(#pf1b3ae5ac8)" d="M 681.225 98.439094 
L 961.2 98.439094 
" style="fill:none;stroke:#b0b0b0;stroke-linecap:square;stroke-width:0.8;"/>
     </g>
     <g id="line2d_63">
      <g>
       <use style="stroke:#000000;stroke-width:0.8;" x="681.225" xlink:href="#m983a48d73f" y="98.439094"/>
      </g>
     </g>
     <g id="text_22">
      <!-- 60 -->
      <g transform="translate(661.5 102.238313)scale(0.1 -0.1)">
       <use xlink:href="#DejaVuSans-36"/>
       <use x="63.623047" xlink:href="#DejaVuSans-30"/>
      </g>
     </g>
    </g>
    <g id="ytick_15">
     <g id="line2d_64">
      <path clip-path="url(#pf1b3ae5ac8)" d="M 681.225 64.763291 
L 961.2 64.763291 
" style="fill:none;stroke:#b0b0b0;stroke-linecap:square;stroke-width:0.8;"/>
     </g>
     <g id="line2d_65">
      <g>
       <use style="stroke:#000000;stroke-width:0.8;" x="681.225" xlink:href="#m983a48d73f" y="64.763291"/>
      </g>
     </g>
     <g id="text_23">
      <!-- 70 -->
      <g transform="translate(661.5 68.562509)scale(0.1 -0.1)">
       <defs>
        <path d="M 525 4666 
L 3525 4666 
L 3525 4397 
L 1831 0 
L 1172 0 
L 2766 4134 
L 525 4134 
L 525 4666 
z
" id="DejaVuSans-37" transform="scale(0.015625)"/>
       </defs>
       <use xlink:href="#DejaVuSans-37"/>
       <use x="63.623047" xlink:href="#DejaVuSans-30"/>
      </g>
     </g>
    </g>
    <g id="ytick_16">
     <g id="line2d_66">
      <path clip-path="url(#pf1b3ae5ac8)" d="M 681.225 31.087487 
L 961.2 31.087487 
" style="fill:none;stroke:#b0b0b0;stroke-linecap:square;stroke-width:0.8;"/>
     </g>
     <g id="line2d_67">
      <g>
       <use style="stroke:#000000;stroke-width:0.8;" x="681.225" xlink:href="#m983a48d73f" y="31.087487"/>
      </g>
     </g>
     <g id="text_24">
      <!-- 80 -->
      <g transform="translate(661.5 34.886706)scale(0.1 -0.1)">
       <defs>
        <path d="M 2034 2216 
Q 1584 2216 1326 1975 
Q 1069 1734 1069 1313 
Q 1069 891 1326 650 
Q 1584 409 2034 409 
Q 2484 409 2743 651 
Q 3003 894 3003 1313 
Q 3003 1734 2745 1975 
Q 2488 2216 2034 2216 
z
M 1403 2484 
Q 997 2584 770 2862 
Q 544 3141 544 3541 
Q 544 4100 942 4425 
Q 1341 4750 2034 4750 
Q 2731 4750 3128 4425 
Q 3525 4100 3525 3541 
Q 3525 3141 3298 2862 
Q 3072 2584 2669 2484 
Q 3125 2378 3379 2068 
Q 3634 1759 3634 1313 
Q 3634 634 3220 271 
Q 2806 -91 2034 -91 
Q 1263 -91 848 271 
Q 434 634 434 1313 
Q 434 1759 690 2068 
Q 947 2378 1403 2484 
z
M 1172 3481 
Q 1172 3119 1398 2916 
Q 1625 2713 2034 2713 
Q 2441 2713 2670 2916 
Q 2900 3119 2900 3481 
Q 2900 3844 2670 4047 
Q 2441 4250 2034 4250 
Q 1625 4250 1398 4047 
Q 1172 3844 1172 3481 
z
" id="DejaVuSans-38" transform="scale(0.015625)"/>
       </defs>
       <use xlink:href="#DejaVuSans-38"/>
       <use x="63.623047" xlink:href="#DejaVuSans-30"/>
      </g>
     </g>
    </g>
   </g>
   <g id="line2d_68">
    <path clip-path="url(#pf1b3ae5ac8)" d="M 693.951136 179.615927 
L 707.347069 179.615927 
L 707.347069 135.019138 
L 720.743002 135.019138 
L 720.743002 112.545163 
L 734.138935 112.545163 
L 734.138935 98.939169 
L 747.534868 98.939169 
L 747.534868 87.408479 
L 760.930801 87.408479 
L 760.930801 80.436071 
L 774.326734 80.436071 
L 774.326734 72.540392 
L 787.722667 72.540392 
L 787.722667 66.824448 
L 801.1186 66.824448 
L 801.1186 63.624112 
L 814.514533 63.624112 
L 814.514533 59.278571 
L 827.910467 59.278571 
L 827.910467 56.06821 
L 841.3064 56.06821 
L 841.3064 54.416286 
L 854.702333 54.416286 
L 854.702333 51.469738 
L 868.098266 51.469738 
L 868.098266 48.871673 
L 881.494199 48.871673 
L 881.494199 46.762384 
L 894.890132 46.762384 
L 894.890132 44.93898 
L 908.286065 44.93898 
L 908.286065 43.33784 
L 921.681998 43.33784 
L 921.681998 41.792743 
L 935.077931 41.792743 
L 935.077931 40.142187 
L 948.473864 40.142187 
L 948.473864 39.136754 
" style="fill:none;stroke:#000000;stroke-linecap:square;stroke-width:1.5;"/>
   </g>
   <g id="line2d_69">
    <path clip-path="url(#pf1b3ae5ac8)" d="M 693.951136 172.217375 
L 707.347069 172.217375 
L 707.347069 127.780388 
L 720.743002 127.780388 
L 720.743002 103.994684 
L 734.138935 103.994684 
L 734.138935 89.67554 
L 747.534868 89.67554 
L 747.534868 78.157578 
L 760.930801 78.157578 
L 760.930801 71.055975 
L 774.326734 71.055975 
L 774.326734 64.555189 
L 787.722667 64.555189 
L 787.722667 60.254075 
L 801.1186 60.254075 
L 801.1186 56.686453 
L 814.514533 56.686453 
L 814.514533 53.271586 
L 827.910467 53.271586 
L 827.910467 50.290278 
L 841.3064 50.290278 
L 841.3064 47.84966 
L 854.702333 47.84966 
L 854.702333 45.61516 
L 868.098266 45.61516 
L 868.098266 43.772381 
L 881.494199 43.772381 
L 881.494199 42.055742 
L 894.890132 42.055742 
L 894.890132 39.876317 
L 908.286065 39.876317 
L 908.286065 38.355152 
L 921.681998 38.355152 
L 921.681998 36.869493 
L 935.077931 36.869493 
L 935.077931 35.760099 
L 948.473864 35.760099 
L 948.473864 34.238255 
" style="fill:none;stroke:#0000ff;stroke-linecap:square;stroke-width:1.5;"/>
   </g>
   <g id="line2d_70">
    <path clip-path="url(#pf1b3ae5ac8)" d="M 693.951136 183.003352 
L 707.347069 183.003352 
L 707.347069 139.832284 
L 720.743002 139.832284 
L 720.743002 118.233248 
L 734.138935 118.233248 
L 734.138935 105.00429 
L 747.534868 105.00429 
L 747.534868 93.780891 
L 760.930801 93.780891 
L 760.930801 86.694818 
L 774.326734 86.694818 
L 774.326734 79.151655 
L 787.722667 79.151655 
L 787.722667 73.984941 
L 801.1186 73.984941 
L 801.1186 70.903665 
L 814.514533 70.903665 
L 814.514533 66.72435 
L 827.910467 66.72435 
L 827.910467 63.614552 
L 841.3064 63.614552 
L 841.3064 61.819961 
L 854.702333 61.819961 
L 854.702333 58.834413 
L 868.098266 58.834413 
L 868.098266 56.318327 
L 881.494199 56.318327 
L 881.494199 54.366928 
L 894.890132 54.366928 
L 894.890132 52.723667 
L 908.286065 52.723667 
L 908.286065 51.02105 
L 921.681998 51.02105 
L 921.681998 49.517149 
L 935.077931 49.517149 
L 935.077931 48.292344 
L 948.473864 48.292344 
L 948.473864 47.339273 
" style="fill:none;stroke:#ff0000;stroke-linecap:square;stroke-width:1.5;"/>
   </g>
   <g id="line2d_71">
    <path clip-path="url(#pf1b3ae5ac8)" d="M 693.951136 181.255947 
L 707.347069 181.255947 
L 707.347069 137.403319 
L 720.743002 137.403319 
L 720.743002 114.712883 
L 734.138935 114.712883 
L 734.138935 100.64262 
L 747.534868 100.64262 
L 747.534868 88.978643 
L 760.930801 88.978643 
L 760.930801 81.327079 
L 774.326734 81.327079 
L 774.326734 74.42108 
L 787.722667 74.42108 
L 787.722667 68.763416 
L 801.1186 68.763416 
L 801.1186 63.949896 
L 814.514533 63.949896 
L 814.514533 60.905697 
L 827.910467 60.905697 
L 827.910467 57.765595 
L 841.3064 57.765595 
L 841.3064 55.481551 
L 854.702333 55.481551 
L 854.702333 52.426664 
L 868.098266 52.426664 
L 868.098266 50.311123 
L 881.494199 50.311123 
L 881.494199 48.162982 
L 894.890132 48.162982 
L 894.890132 45.558381 
L 908.286065 45.558381 
L 908.286065 43.739834 
L 921.681998 43.739834 
L 921.681998 42.014716 
L 935.077931 42.014716 
L 935.077931 40.518377 
L 948.473864 40.518377 
L 948.473864 39.205131 
" style="fill:none;stroke:#008000;stroke-linecap:square;stroke-width:1.5;"/>
   </g>
   <g id="line2d_72">
    <path clip-path="url(#pf1b3ae5ac8)" d="M 693.951136 176.578497 
L 707.347069 176.578497 
L 707.347069 131.237956 
L 720.743002 131.237956 
L 720.743002 107.886644 
L 734.138935 107.886644 
L 734.138935 94.038924 
L 747.534868 94.038924 
L 747.534868 82.771933 
L 760.930801 82.771933 
L 760.930801 74.476218 
L 774.326734 74.476218 
L 774.326734 67.231219 
L 787.722667 67.231219 
L 787.722667 62.838069 
L 801.1186 62.838069 
L 801.1186 58.660742 
L 814.514533 58.660742 
L 814.514533 54.899471 
L 827.910467 54.899471 
L 827.910467 52.195892 
L 841.3064 52.195892 
L 841.3064 49.932314 
L 854.702333 49.932314 
L 854.702333 47.259001 
L 868.098266 47.259001 
L 868.098266 45.265119 
L 881.494199 45.265119 
L 881.494199 43.01875 
L 894.890132 43.01875 
L 894.890132 41.160951 
L 908.286065 41.160951 
L 908.286065 39.408718 
L 921.681998 39.408718 
L 921.681998 37.740541 
L 935.077931 37.740541 
L 935.077931 36.342772 
L 948.473864 36.342772 
L 948.473864 34.90962 
" style="fill:none;stroke:#ffa500;stroke-linecap:square;stroke-width:1.5;"/>
   </g>
   <g id="patch_14">
    <path d="M 681.225 190.441607 
L 681.225 26.8 
" style="fill:none;stroke:#000000;stroke-linecap:square;stroke-linejoin:miter;stroke-width:0.8;"/>
   </g>
   <g id="patch_15">
    <path d="M 961.2 190.441607 
L 961.2 26.8 
" style="fill:none;stroke:#000000;stroke-linecap:square;stroke-linejoin:miter;stroke-width:0.8;"/>
   </g>
   <g id="patch_16">
    <path d="M 681.225 190.441607 
L 961.2 190.441607 
" style="fill:none;stroke:#000000;stroke-linecap:square;stroke-linejoin:miter;stroke-width:0.8;"/>
   </g>
   <g id="patch_17">
    <path d="M 681.225 26.8 
L 961.2 26.8 
" style="fill:none;stroke:#000000;stroke-linecap:square;stroke-linejoin:miter;stroke-width:0.8;"/>
   </g>
   <g id="text_25">
    <!-- SIRIUS -->
    <g transform="translate(798.614062 20.8)scale(0.12 -0.12)">
     <defs>
      <path d="M 3834 4519 
L 3834 3531 
Q 3450 3703 3084 3790 
Q 2719 3878 2394 3878 
Q 1963 3878 1756 3759 
Q 1550 3641 1550 3391 
Q 1550 3203 1689 3098 
Q 1828 2994 2194 2919 
L 2706 2816 
Q 3484 2659 3812 2340 
Q 4141 2022 4141 1434 
Q 4141 663 3683 286 
Q 3225 -91 2284 -91 
Q 1841 -91 1394 -6 
Q 947 78 500 244 
L 500 1259 
Q 947 1022 1364 901 
Q 1781 781 2169 781 
Q 2563 781 2772 912 
Q 2981 1044 2981 1288 
Q 2981 1506 2839 1625 
Q 2697 1744 2272 1838 
L 1806 1941 
Q 1106 2091 782 2419 
Q 459 2747 459 3303 
Q 459 4000 909 4375 
Q 1359 4750 2203 4750 
Q 2588 4750 2994 4692 
Q 3400 4634 3834 4519 
z
" id="DejaVuSans-Bold-53" transform="scale(0.015625)"/>
      <path d="M 2297 2597 
Q 2675 2597 2839 2737 
Q 3003 2878 3003 3200 
Q 3003 3519 2839 3656 
Q 2675 3794 2297 3794 
L 1791 3794 
L 1791 2597 
L 2297 2597 
z
M 1791 1766 
L 1791 0 
L 588 0 
L 588 4666 
L 2425 4666 
Q 3347 4666 3776 4356 
Q 4206 4047 4206 3378 
Q 4206 2916 3982 2619 
Q 3759 2322 3309 2181 
Q 3556 2125 3751 1926 
Q 3947 1728 4147 1325 
L 4800 0 
L 3519 0 
L 2950 1159 
Q 2778 1509 2601 1637 
Q 2425 1766 2131 1766 
L 1791 1766 
z
" id="DejaVuSans-Bold-52" transform="scale(0.015625)"/>
      <path d="M 588 4666 
L 1791 4666 
L 1791 1869 
Q 1791 1291 1980 1042 
Q 2169 794 2597 794 
Q 3028 794 3217 1042 
Q 3406 1291 3406 1869 
L 3406 4666 
L 4609 4666 
L 4609 1869 
Q 4609 878 4112 393 
Q 3616 -91 2597 -91 
Q 1581 -91 1084 393 
Q 588 878 588 1869 
L 588 4666 
z
" id="DejaVuSans-Bold-55" transform="scale(0.015625)"/>
     </defs>
     <use xlink:href="#DejaVuSans-Bold-53"/>
     <use x="72.021484" xlink:href="#DejaVuSans-Bold-49"/>
     <use x="109.228516" xlink:href="#DejaVuSans-Bold-52"/>
     <use x="186.230469" xlink:href="#DejaVuSans-Bold-49"/>
     <use x="223.4375" xlink:href="#DejaVuSans-Bold-55"/>
     <use x="304.638672" xlink:href="#DejaVuSans-Bold-53"/>
    </g>
   </g>
  </g>
  <g id="axes_4">
   <g id="patch_18">
    <path d="M 56.175 372.2 
L 336.15 372.2 
L 336.15 208.558393 
L 56.175 208.558393 
z
" style="fill:#ffffff;"/>
   </g>
   <g id="matplotlib.axis_7">
    <g id="xtick_16">
     <g id="line2d_73">
      <g>
       <use style="stroke:#000000;stroke-width:0.8;" x="68.901136" xlink:href="#mf188b31e14" y="372.2"/>
      </g>
     </g>
     <g id="text_26">
      <!-- 1 -->
      <g transform="translate(65.719886 386.798437)scale(0.1 -0.1)">
       <use xlink:href="#DejaVuSans-31"/>
      </g>
     </g>
    </g>
    <g id="xtick_17">
     <g id="line2d_74">
      <g>
       <use style="stroke:#000000;stroke-width:0.8;" x="122.484868" xlink:href="#mf188b31e14" y="372.2"/>
      </g>
     </g>
     <g id="text_27">
      <!-- 5 -->
      <g transform="translate(119.303618 386.798437)scale(0.1 -0.1)">
       <use xlink:href="#DejaVuSans-35"/>
      </g>
     </g>
    </g>
    <g id="xtick_18">
     <g id="line2d_75">
      <g>
       <use style="stroke:#000000;stroke-width:0.8;" x="189.464533" xlink:href="#mf188b31e14" y="372.2"/>
      </g>
     </g>
     <g id="text_28">
      <!-- 10 -->
      <g transform="translate(183.102033 386.798437)scale(0.1 -0.1)">
       <use xlink:href="#DejaVuSans-31"/>
       <use x="63.623047" xlink:href="#DejaVuSans-30"/>
      </g>
     </g>
    </g>
    <g id="xtick_19">
     <g id="line2d_76">
      <g>
       <use style="stroke:#000000;stroke-width:0.8;" x="256.444199" xlink:href="#mf188b31e14" y="372.2"/>
      </g>
     </g>
     <g id="text_29">
      <!-- 15 -->
      <g transform="translate(250.081699 386.798437)scale(0.1 -0.1)">
       <use xlink:href="#DejaVuSans-31"/>
       <use x="63.623047" xlink:href="#DejaVuSans-35"/>
      </g>
     </g>
    </g>
    <g id="xtick_20">
     <g id="line2d_77">
      <g>
       <use style="stroke:#000000;stroke-width:0.8;" x="323.423864" xlink:href="#mf188b31e14" y="372.2"/>
      </g>
     </g>
     <g id="text_30">
      <!-- 20 -->
      <g transform="translate(317.061364 386.798437)scale(0.1 -0.1)">
       <use xlink:href="#DejaVuSans-32"/>
       <use x="63.623047" xlink:href="#DejaVuSans-30"/>
      </g>
     </g>
    </g>
    <g id="text_31">
     <!-- k -->
     <g transform="translate(193.267187 400.476562)scale(0.1 -0.1)">
      <use xlink:href="#DejaVuSans-6b"/>
     </g>
    </g>
   </g>
   <g id="matplotlib.axis_8">
    <g id="ytick_17">
     <g id="line2d_78">
      <path clip-path="url(#p5d89bbb0a4)" d="M 56.175 352.255873 
L 336.15 352.255873 
" style="fill:none;stroke:#b0b0b0;stroke-linecap:square;stroke-width:0.8;"/>
     </g>
     <g id="line2d_79">
      <g>
       <use style="stroke:#000000;stroke-width:0.8;" x="56.175" xlink:href="#m983a48d73f" y="352.255873"/>
      </g>
     </g>
     <g id="text_32">
      <!-- 0 -->
      <g transform="translate(42.8125 356.055092)scale(0.1 -0.1)">
       <use xlink:href="#DejaVuSans-30"/>
      </g>
     </g>
    </g>
    <g id="ytick_18">
     <g id="line2d_80">
      <path clip-path="url(#p5d89bbb0a4)" d="M 56.175 316.317777 
L 336.15 316.317777 
" style="fill:none;stroke:#b0b0b0;stroke-linecap:square;stroke-width:0.8;"/>
     </g>
     <g id="line2d_81">
      <g>
       <use style="stroke:#000000;stroke-width:0.8;" x="56.175" xlink:href="#m983a48d73f" y="316.317777"/>
      </g>
     </g>
     <g id="text_33">
      <!-- 2 -->
      <g transform="translate(42.8125 320.116996)scale(0.1 -0.1)">
       <use xlink:href="#DejaVuSans-32"/>
      </g>
     </g>
    </g>
    <g id="ytick_19">
     <g id="line2d_82">
      <path clip-path="url(#p5d89bbb0a4)" d="M 56.175 280.379682 
L 336.15 280.379682 
" style="fill:none;stroke:#b0b0b0;stroke-linecap:square;stroke-width:0.8;"/>
     </g>
     <g id="line2d_83">
      <g>
       <use style="stroke:#000000;stroke-width:0.8;" x="56.175" xlink:href="#m983a48d73f" y="280.379682"/>
      </g>
     </g>
     <g id="text_34">
      <!-- 4 -->
      <g transform="translate(42.8125 284.178901)scale(0.1 -0.1)">
       <use xlink:href="#DejaVuSans-34"/>
      </g>
     </g>
    </g>
    <g id="ytick_20">
     <g id="line2d_84">
      <path clip-path="url(#p5d89bbb0a4)" d="M 56.175 244.441586 
L 336.15 244.441586 
" style="fill:none;stroke:#b0b0b0;stroke-linecap:square;stroke-width:0.8;"/>
     </g>
     <g id="line2d_85">
      <g>
       <use style="stroke:#000000;stroke-width:0.8;" x="56.175" xlink:href="#m983a48d73f" y="244.441586"/>
      </g>
     </g>
     <g id="text_35">
      <!-- 6 -->
      <g transform="translate(42.8125 248.240805)scale(0.1 -0.1)">
       <use xlink:href="#DejaVuSans-36"/>
      </g>
     </g>
    </g>
    <g id="text_36">
     <!-- Top-k accuracy -->
     <g transform="translate(22.8795 335.121384)rotate(-90)scale(0.12 -0.12)">
      <use xlink:href="#DejaVuSans-54"/>
      <use x="44.083984" xlink:href="#DejaVuSans-6f"/>
      <use x="105.265625" xlink:href="#DejaVuSans-70"/>
      <use x="168.742188" xlink:href="#DejaVuSans-2d"/>
      <use x="204.826172" xlink:href="#DejaVuSans-6b"/>
      <use x="262.736328" xlink:href="#DejaVuSans-20"/>
      <use x="294.523438" xlink:href="#DejaVuSans-61"/>
      <use x="355.802734" xlink:href="#DejaVuSans-63"/>
      <use x="410.783203" xlink:href="#DejaVuSans-63"/>
      <use x="465.763672" xlink:href="#DejaVuSans-75"/>
      <use x="529.142578" xlink:href="#DejaVuSans-72"/>
      <use x="570.255859" xlink:href="#DejaVuSans-61"/>
      <use x="631.535156" xlink:href="#DejaVuSans-63"/>
      <use x="686.515625" xlink:href="#DejaVuSans-79"/>
     </g>
     <!-- improvement (%p) -->
     <g transform="translate(36.316875 346.735134)rotate(-90)scale(0.12 -0.12)">
      <defs>
       <path d="M 603 3500 
L 1178 3500 
L 1178 0 
L 603 0 
L 603 3500 
z
M 603 4863 
L 1178 4863 
L 1178 4134 
L 603 4134 
L 603 4863 
z
" id="DejaVuSans-69" transform="scale(0.015625)"/>
       <path d="M 3328 2828 
Q 3544 3216 3844 3400 
Q 4144 3584 4550 3584 
Q 5097 3584 5394 3201 
Q 5691 2819 5691 2113 
L 5691 0 
L 5113 0 
L 5113 2094 
Q 5113 2597 4934 2840 
Q 4756 3084 4391 3084 
Q 3944 3084 3684 2787 
Q 3425 2491 3425 1978 
L 3425 0 
L 2847 0 
L 2847 2094 
Q 2847 2600 2669 2842 
Q 2491 3084 2119 3084 
Q 1678 3084 1418 2786 
Q 1159 2488 1159 1978 
L 1159 0 
L 581 0 
L 581 3500 
L 1159 3500 
L 1159 2956 
Q 1356 3278 1631 3431 
Q 1906 3584 2284 3584 
Q 2666 3584 2933 3390 
Q 3200 3197 3328 2828 
z
" id="DejaVuSans-6d" transform="scale(0.015625)"/>
       <path d="M 191 3500 
L 800 3500 
L 1894 563 
L 2988 3500 
L 3597 3500 
L 2284 0 
L 1503 0 
L 191 3500 
z
" id="DejaVuSans-76" transform="scale(0.015625)"/>
       <path d="M 3597 1894 
L 3597 1613 
L 953 1613 
Q 991 1019 1311 708 
Q 1631 397 2203 397 
Q 2534 397 2845 478 
Q 3156 559 3463 722 
L 3463 178 
Q 3153 47 2828 -22 
Q 2503 -91 2169 -91 
Q 1331 -91 842 396 
Q 353 884 353 1716 
Q 353 2575 817 3079 
Q 1281 3584 2069 3584 
Q 2775 3584 3186 3129 
Q 3597 2675 3597 1894 
z
M 3022 2063 
Q 3016 2534 2758 2815 
Q 2500 3097 2075 3097 
Q 1594 3097 1305 2825 
Q 1016 2553 972 2059 
L 3022 2063 
z
" id="DejaVuSans-65" transform="scale(0.015625)"/>
      </defs>
      <use xlink:href="#DejaVuSans-69"/>
      <use x="27.783203" xlink:href="#DejaVuSans-6d"/>
      <use x="125.195312" xlink:href="#DejaVuSans-70"/>
      <use x="188.671875" xlink:href="#DejaVuSans-72"/>
      <use x="227.535156" xlink:href="#DejaVuSans-6f"/>
      <use x="288.716797" xlink:href="#DejaVuSans-76"/>
      <use x="347.896484" xlink:href="#DejaVuSans-65"/>
      <use x="409.419922" xlink:href="#DejaVuSans-6d"/>
      <use x="506.832031" xlink:href="#DejaVuSans-65"/>
      <use x="568.355469" xlink:href="#DejaVuSans-6e"/>
      <use x="631.734375" xlink:href="#DejaVuSans-74"/>
      <use x="670.943359" xlink:href="#DejaVuSans-20"/>
      <use x="702.730469" xlink:href="#DejaVuSans-28"/>
      <use x="741.744141" xlink:href="#DejaVuSans-25"/>
      <use x="836.763672" xlink:href="#DejaVuSans-70"/>
      <use x="900.240234" xlink:href="#DejaVuSans-29"/>
     </g>
    </g>
   </g>
   <g id="LineCollection_1">
    <path clip-path="url(#p5d89bbb0a4)" d="M 68.901136 352.255873 
L 323.423864 352.255873 
" style="fill:none;stroke:#000000;stroke-width:1.5;"/>
   </g>
   <g id="line2d_86">
    <path clip-path="url(#p5d89bbb0a4)" d="M 68.901136 296.135849 
L 82.297069 296.135849 
L 82.297069 270.581606 
L 95.693002 270.581606 
L 95.693002 256.672237 
L 109.088935 256.672237 
L 109.088935 255.113364 
L 122.484868 255.113364 
L 122.484868 250.766083 
L 135.880801 250.766083 
L 135.880801 245.099183 
L 149.276734 245.099183 
L 149.276734 243.448345 
L 162.672667 243.448345 
L 162.672667 236.679066 
L 176.0686 236.679066 
L 176.0686 232.245694 
L 189.464533 232.245694 
L 189.464533 225.528023 
L 202.860467 225.528023 
L 202.860467 222.612125 
L 216.2564 222.612125 
L 216.2564 225.408669 
L 229.652333 225.408669 
L 229.652333 223.413803 
L 243.048266 223.413803 
L 243.048266 221.704168 
L 256.444199 221.704168 
L 256.444199 218.133308 
L 269.840132 218.133308 
L 269.840132 215.996648 
L 283.236065 215.996648 
L 283.236065 217.584511 
L 296.631998 217.584511 
L 296.631998 223.642137 
L 310.027931 223.642137 
L 310.027931 224.668997 
L 323.423864 224.668997 
L 323.423864 222.774715 
" style="fill:none;stroke:#0000ff;stroke-linecap:square;stroke-width:1.5;"/>
   </g>
   <g id="line2d_87">
    <path clip-path="url(#p5d89bbb0a4)" d="M 68.901136 347.858607 
L 82.297069 347.858607 
L 82.297069 347.986922 
L 95.693002 347.986922 
L 95.693002 346.303465 
L 109.088935 346.303465 
L 109.088935 347.776139 
L 122.484868 347.776139 
L 122.484868 346.797582 
L 135.880801 346.797582 
L 135.880801 347.556852 
L 149.276734 347.556852 
L 149.276734 348.618095 
L 162.672667 348.618095 
L 162.672667 346.651951 
L 176.0686 346.651951 
L 176.0686 347.679164 
L 189.464533 347.679164 
L 189.464533 344.965681 
L 202.860467 344.965681 
L 202.860467 347.930145 
L 216.2564 347.930145 
L 216.2564 347.535082 
L 229.652333 347.535082 
L 229.652333 348.070135 
L 243.048266 348.070135 
L 243.048266 347.223099 
L 256.444199 347.223099 
L 256.444199 346.707248 
L 269.840132 346.707248 
L 269.840132 346.275944 
L 283.236065 346.275944 
L 283.236065 347.691561 
L 296.631998 347.691561 
L 296.631998 348.154818 
L 310.027931 348.154818 
L 310.027931 348.73827 
L 323.423864 348.73827 
L 323.423864 345.588271 
" style="fill:none;stroke:#ff0000;stroke-linecap:square;stroke-width:1.5;"/>
   </g>
   <g id="line2d_88">
    <path clip-path="url(#p5d89bbb0a4)" d="M 68.901136 339.488898 
L 82.297069 339.488898 
L 82.297069 328.723794 
L 95.693002 328.723794 
L 95.693002 335.391884 
L 109.088935 335.391884 
L 109.088935 347.597913 
L 122.484868 347.597913 
L 122.484868 356.001856 
L 135.880801 356.001856 
L 135.880801 357.318186 
L 149.276734 357.318186 
L 149.276734 355.165134 
L 162.672667 355.165134 
L 162.672667 352.498453 
L 176.0686 352.498453 
L 176.0686 355.723074 
L 189.464533 355.723074 
L 189.464533 349.205823 
L 202.860467 349.205823 
L 202.860467 346.720788 
L 216.2564 346.720788 
L 216.2564 352.119377 
L 229.652333 352.119377 
L 229.652333 352.42621 
L 243.048266 352.42621 
L 243.048266 356.056999 
L 256.444199 356.056999 
L 256.444199 354.496162 
L 269.840132 354.496162 
L 269.840132 352.334145 
L 283.236065 352.334145 
L 283.236065 355.022092 
L 296.631998 355.022092 
L 296.631998 361.142038 
L 310.027931 361.142038 
L 310.027931 362.955668 
L 323.423864 362.955668 
L 323.423864 364.761745 
" style="fill:none;stroke:#008000;stroke-linecap:square;stroke-width:1.5;"/>
   </g>
   <g id="line2d_89">
    <path clip-path="url(#p5d89bbb0a4)" d="M 68.901136 330.195719 
L 82.297069 330.195719 
L 82.297069 318.312613 
L 95.693002 318.312613 
L 95.693002 310.452401 
L 109.088935 310.452401 
L 109.088935 306.14034 
L 122.484868 306.14034 
L 122.484868 292.288676 
L 135.880801 292.288676 
L 135.880801 286.937681 
L 149.276734 286.937681 
L 149.276734 289.825027 
L 162.672667 289.825027 
L 162.672667 286.771526 
L 176.0686 286.771526 
L 176.0686 280.571785 
L 189.464533 280.571785 
L 189.464533 273.835721 
L 202.860467 273.835721 
L 202.860467 268.33919 
L 216.2564 268.33919 
L 216.2564 272.894665 
L 229.652333 272.894665 
L 229.652333 269.958586 
L 243.048266 269.958586 
L 243.048266 266.640783 
L 256.444199 266.640783 
L 256.444199 262.856906 
L 269.840132 262.856906 
L 269.840132 260.453977 
L 283.236065 260.453977 
L 283.236065 261.860671 
L 296.631998 261.860671 
L 296.631998 266.400513 
L 310.027931 266.400513 
L 310.027931 265.110605 
L 323.423864 265.110605 
L 323.423864 263.306478 
" style="fill:none;stroke:#ffa500;stroke-linecap:square;stroke-width:1.5;"/>
   </g>
   <g id="patch_19">
    <path d="M 56.175 372.2 
L 56.175 208.558393 
" style="fill:none;stroke:#000000;stroke-linecap:square;stroke-linejoin:miter;stroke-width:0.8;"/>
   </g>
   <g id="patch_20">
    <path d="M 336.15 372.2 
L 336.15 208.558393 
" style="fill:none;stroke:#000000;stroke-linecap:square;stroke-linejoin:miter;stroke-width:0.8;"/>
   </g>
   <g id="patch_21">
    <path d="M 56.175 372.2 
L 336.15 372.2 
" style="fill:none;stroke:#000000;stroke-linecap:square;stroke-linejoin:miter;stroke-width:0.8;"/>
   </g>
   <g id="patch_22">
    <path d="M 56.175 208.558393 
L 336.15 208.558393 
" style="fill:none;stroke:#000000;stroke-linecap:square;stroke-linejoin:miter;stroke-width:0.8;"/>
   </g>
  </g>
  <g id="axes_5">
   <g id="patch_23">
    <path d="M 368.7 372.2 
L 648.675 372.2 
L 648.675 208.558393 
L 368.7 208.558393 
z
" style="fill:#ffffff;"/>
   </g>
   <g id="matplotlib.axis_9">
    <g id="xtick_21">
     <g id="line2d_90">
      <g>
       <use style="stroke:#000000;stroke-width:0.8;" x="381.426136" xlink:href="#mf188b31e14" y="372.2"/>
      </g>
     </g>
     <g id="text_37">
      <!-- 1 -->
      <g transform="translate(378.244886 386.798437)scale(0.1 -0.1)">
       <use xlink:href="#DejaVuSans-31"/>
      </g>
     </g>
    </g>
    <g id="xtick_22">
     <g id="line2d_91">
      <g>
       <use style="stroke:#000000;stroke-width:0.8;" x="435.009868" xlink:href="#mf188b31e14" y="372.2"/>
      </g>
     </g>
     <g id="text_38">
      <!-- 5 -->
      <g transform="translate(431.828618 386.798437)scale(0.1 -0.1)">
       <use xlink:href="#DejaVuSans-35"/>
      </g>
     </g>
    </g>
    <g id="xtick_23">
     <g id="line2d_92">
      <g>
       <use style="stroke:#000000;stroke-width:0.8;" x="501.989533" xlink:href="#mf188b31e14" y="372.2"/>
      </g>
     </g>
     <g id="text_39">
      <!-- 10 -->
      <g transform="translate(495.627033 386.798437)scale(0.1 -0.1)">
       <use xlink:href="#DejaVuSans-31"/>
       <use x="63.623047" xlink:href="#DejaVuSans-30"/>
      </g>
     </g>
    </g>
    <g id="xtick_24">
     <g id="line2d_93">
      <g>
       <use style="stroke:#000000;stroke-width:0.8;" x="568.969199" xlink:href="#mf188b31e14" y="372.2"/>
      </g>
     </g>
     <g id="text_40">
      <!-- 15 -->
      <g transform="translate(562.606699 386.798437)scale(0.1 -0.1)">
       <use xlink:href="#DejaVuSans-31"/>
       <use x="63.623047" xlink:href="#DejaVuSans-35"/>
      </g>
     </g>
    </g>
    <g id="xtick_25">
     <g id="line2d_94">
      <g>
       <use style="stroke:#000000;stroke-width:0.8;" x="635.948864" xlink:href="#mf188b31e14" y="372.2"/>
      </g>
     </g>
     <g id="text_41">
      <!-- 20 -->
      <g transform="translate(629.586364 386.798437)scale(0.1 -0.1)">
       <use xlink:href="#DejaVuSans-32"/>
       <use x="63.623047" xlink:href="#DejaVuSans-30"/>
      </g>
     </g>
    </g>
    <g id="text_42">
     <!-- k -->
     <g transform="translate(505.792188 400.476562)scale(0.1 -0.1)">
      <use xlink:href="#DejaVuSans-6b"/>
     </g>
    </g>
   </g>
   <g id="matplotlib.axis_10">
    <g id="ytick_21">
     <g id="line2d_95">
      <path clip-path="url(#pd130060fa3)" d="M 368.7 360.799508 
L 648.675 360.799508 
" style="fill:none;stroke:#b0b0b0;stroke-linecap:square;stroke-width:0.8;"/>
     </g>
     <g id="line2d_96">
      <g>
       <use style="stroke:#000000;stroke-width:0.8;" x="368.7" xlink:href="#m983a48d73f" y="360.799508"/>
      </g>
     </g>
     <g id="text_43">
      <!-- 0 -->
      <g transform="translate(355.3375 364.598726)scale(0.1 -0.1)">
       <use xlink:href="#DejaVuSans-30"/>
      </g>
     </g>
    </g>
    <g id="ytick_22">
     <g id="line2d_97">
      <path clip-path="url(#pd130060fa3)" d="M 368.7 335.461159 
L 648.675 335.461159 
" style="fill:none;stroke:#b0b0b0;stroke-linecap:square;stroke-width:0.8;"/>
     </g>
     <g id="line2d_98">
      <g>
       <use style="stroke:#000000;stroke-width:0.8;" x="368.7" xlink:href="#m983a48d73f" y="335.461159"/>
      </g>
     </g>
     <g id="text_44">
      <!-- 2 -->
      <g transform="translate(355.3375 339.260378)scale(0.1 -0.1)">
       <use xlink:href="#DejaVuSans-32"/>
      </g>
     </g>
    </g>
    <g id="ytick_23">
     <g id="line2d_99">
      <path clip-path="url(#pd130060fa3)" d="M 368.7 310.12281 
L 648.675 310.12281 
" style="fill:none;stroke:#b0b0b0;stroke-linecap:square;stroke-width:0.8;"/>
     </g>
     <g id="line2d_100">
      <g>
       <use style="stroke:#000000;stroke-width:0.8;" x="368.7" xlink:href="#m983a48d73f" y="310.12281"/>
      </g>
     </g>
     <g id="text_45">
      <!-- 4 -->
      <g transform="translate(355.3375 313.922029)scale(0.1 -0.1)">
       <use xlink:href="#DejaVuSans-34"/>
      </g>
     </g>
    </g>
    <g id="ytick_24">
     <g id="line2d_101">
      <path clip-path="url(#pd130060fa3)" d="M 368.7 284.784462 
L 648.675 284.784462 
" style="fill:none;stroke:#b0b0b0;stroke-linecap:square;stroke-width:0.8;"/>
     </g>
     <g id="line2d_102">
      <g>
       <use style="stroke:#000000;stroke-width:0.8;" x="368.7" xlink:href="#m983a48d73f" y="284.784462"/>
      </g>
     </g>
     <g id="text_46">
      <!-- 6 -->
      <g transform="translate(355.3375 288.58368)scale(0.1 -0.1)">
       <use xlink:href="#DejaVuSans-36"/>
      </g>
     </g>
    </g>
    <g id="ytick_25">
     <g id="line2d_103">
      <path clip-path="url(#pd130060fa3)" d="M 368.7 259.446113 
L 648.675 259.446113 
" style="fill:none;stroke:#b0b0b0;stroke-linecap:square;stroke-width:0.8;"/>
     </g>
     <g id="line2d_104">
      <g>
       <use style="stroke:#000000;stroke-width:0.8;" x="368.7" xlink:href="#m983a48d73f" y="259.446113"/>
      </g>
     </g>
     <g id="text_47">
      <!-- 8 -->
      <g transform="translate(355.3375 263.245332)scale(0.1 -0.1)">
       <use xlink:href="#DejaVuSans-38"/>
      </g>
     </g>
    </g>
    <g id="ytick_26">
     <g id="line2d_105">
      <path clip-path="url(#pd130060fa3)" d="M 368.7 234.107764 
L 648.675 234.107764 
" style="fill:none;stroke:#b0b0b0;stroke-linecap:square;stroke-width:0.8;"/>
     </g>
     <g id="line2d_106">
      <g>
       <use style="stroke:#000000;stroke-width:0.8;" x="368.7" xlink:href="#m983a48d73f" y="234.107764"/>
      </g>
     </g>
     <g id="text_48">
      <!-- 10 -->
      <g transform="translate(348.975 237.906983)scale(0.1 -0.1)">
       <use xlink:href="#DejaVuSans-31"/>
       <use x="63.623047" xlink:href="#DejaVuSans-30"/>
      </g>
     </g>
    </g>
    <g id="ytick_27">
     <g id="line2d_107">
      <path clip-path="url(#pd130060fa3)" d="M 368.7 208.769415 
L 648.675 208.769415 
" style="fill:none;stroke:#b0b0b0;stroke-linecap:square;stroke-width:0.8;"/>
     </g>
     <g id="line2d_108">
      <g>
       <use style="stroke:#000000;stroke-width:0.8;" x="368.7" xlink:href="#m983a48d73f" y="208.769415"/>
      </g>
     </g>
     <g id="text_49">
      <!-- 12 -->
      <g transform="translate(348.975 212.568634)scale(0.1 -0.1)">
       <use xlink:href="#DejaVuSans-31"/>
       <use x="63.623047" xlink:href="#DejaVuSans-32"/>
      </g>
     </g>
    </g>
   </g>
   <g id="LineCollection_2">
    <path clip-path="url(#pd130060fa3)" d="M 381.426136 360.799508 
L 635.948864 360.799508 
" style="fill:none;stroke:#000000;stroke-width:1.5;"/>
   </g>
   <g id="line2d_109">
    <path clip-path="url(#pd130060fa3)" d="M 381.426136 268.48626 
L 394.822069 268.48626 
L 394.822069 243.581707 
L 408.218002 243.581707 
L 408.218002 227.199757 
L 421.613935 227.199757 
L 421.613935 223.615052 
L 435.009868 223.615052 
L 435.009868 225.021161 
L 448.405801 225.021161 
L 448.405801 223.955366 
L 461.801734 223.955366 
L 461.801734 224.861254 
L 475.197667 224.861254 
L 475.197667 221.370576 
L 488.5936 221.370576 
L 488.5936 220.823705 
L 501.989533 220.823705 
L 501.989533 222.187472 
L 515.385467 222.187472 
L 515.385467 220.89305 
L 528.7814 220.89305 
L 528.7814 220.893719 
L 542.177333 220.893719 
L 542.177333 221.408944 
L 555.573266 221.408944 
L 555.573266 221.766381 
L 568.969199 221.766381 
L 568.969199 219.932576 
L 582.365132 219.932576 
L 582.365132 219.512157 
L 595.761065 219.512157 
L 595.761065 215.996648 
L 609.156998 215.996648 
L 609.156998 217.775993 
L 622.552931 217.775993 
L 622.552931 217.546421 
L 635.948864 217.546421 
L 635.948864 217.753451 
" style="fill:none;stroke:#0000ff;stroke-linecap:square;stroke-width:1.5;"/>
   </g>
   <g id="line2d_110">
    <path clip-path="url(#pd130060fa3)" d="M 381.426136 357.118784 
L 394.822069 357.118784 
L 394.822069 355.420668 
L 408.218002 355.420668 
L 408.218002 354.951623 
L 421.613935 354.951623 
L 421.613935 356.090005 
L 435.009868 356.090005 
L 435.009868 356.940219 
L 448.405801 356.940219 
L 448.405801 357.829731 
L 461.801734 357.829731 
L 461.801734 360.537568 
L 475.197667 360.537568 
L 475.197667 359.810988 
L 488.5936 359.810988 
L 488.5936 358.847073 
L 501.989533 358.847073 
L 501.989533 359.340386 
L 515.385467 359.340386 
L 515.385467 359.345108 
L 528.7814 359.345108 
L 528.7814 360.850016 
L 542.177333 360.850016 
L 542.177333 361.045458 
L 555.573266 361.045458 
L 555.573266 361.076126 
L 568.969199 361.076126 
L 568.969199 362.408213 
L 582.365132 362.408213 
L 582.365132 363.435517 
L 595.761065 363.435517 
L 595.761065 363.396797 
L 609.156998 363.396797 
L 609.156998 363.685765 
L 622.552931 363.685765 
L 622.552931 364.163174 
L 635.948864 364.163174 
L 635.948864 364.761745 
" style="fill:none;stroke:#ff0000;stroke-linecap:square;stroke-width:1.5;"/>
   </g>
   <g id="line2d_111">
    <path clip-path="url(#pd130060fa3)" d="M 381.426136 347.555869 
L 394.822069 347.555869 
L 394.822069 350.246256 
L 408.218002 350.246256 
L 408.218002 353.945844 
L 421.613935 353.945844 
L 421.613935 361.262359 
L 435.009868 361.262359 
L 435.009868 361.866087 
L 448.405801 361.866087 
L 448.405801 364.309658 
L 461.801734 364.309658 
L 461.801734 361.665483 
L 475.197667 361.665483 
L 475.197667 355.080436 
L 488.5936 355.080436 
L 488.5936 353.184531 
L 501.989533 353.184531 
L 501.989533 355.508036 
L 515.385467 355.508036 
L 515.385467 357.70796 
L 528.7814 357.70796 
L 528.7814 360.697376 
L 542.177333 360.697376 
L 542.177333 361.070197 
L 555.573266 361.070197 
L 555.573266 359.731519 
L 568.969199 359.731519 
L 568.969199 356.547617 
L 582.365132 356.547617 
L 582.365132 355.166447 
L 595.761065 355.166447 
L 595.761065 353.225268 
L 609.156998 353.225268 
L 609.156998 354.206927 
L 622.552931 354.206927 
L 622.552931 354.301292 
L 635.948864 354.301292 
L 635.948864 351.828705 
" style="fill:none;stroke:#008000;stroke-linecap:square;stroke-width:1.5;"/>
   </g>
   <g id="line2d_112">
    <path clip-path="url(#pd130060fa3)" d="M 381.426136 338.197341 
L 394.822069 338.197341 
L 394.822069 327.090117 
L 408.218002 327.090117 
L 408.218002 320.324216 
L 421.613935 320.324216 
L 421.613935 323.107055 
L 435.009868 323.107055 
L 435.009868 326.161953 
L 448.405801 326.161953 
L 448.405801 324.465875 
L 461.801734 324.465875 
L 461.801734 322.111529 
L 475.197667 322.111529 
L 475.197667 314.862612 
L 488.5936 314.862612 
L 488.5936 311.739626 
L 501.989533 311.739626 
L 501.989533 311.829221 
L 515.385467 311.829221 
L 515.385467 308.424808 
L 528.7814 308.424808 
L 528.7814 308.882358 
L 542.177333 308.882358 
L 542.177333 309.05027 
L 555.573266 309.05027 
L 555.573266 309.143871 
L 568.969199 309.143871 
L 568.969199 308.805505 
L 582.365132 308.805505 
L 582.365132 306.734366 
L 595.761065 306.734366 
L 595.761065 303.2707 
L 609.156998 303.2707 
L 609.156998 303.563089 
L 622.552931 303.563089 
L 622.552931 302.94346 
L 635.948864 302.94346 
L 635.948864 300.945197 
" style="fill:none;stroke:#ffa500;stroke-linecap:square;stroke-width:1.5;"/>
   </g>
   <g id="patch_24">
    <path d="M 368.7 372.2 
L 368.7 208.558393 
" style="fill:none;stroke:#000000;stroke-linecap:square;stroke-linejoin:miter;stroke-width:0.8;"/>
   </g>
   <g id="patch_25">
    <path d="M 648.675 372.2 
L 648.675 208.558393 
" style="fill:none;stroke:#000000;stroke-linecap:square;stroke-linejoin:miter;stroke-width:0.8;"/>
   </g>
   <g id="patch_26">
    <path d="M 368.7 372.2 
L 648.675 372.2 
" style="fill:none;stroke:#000000;stroke-linecap:square;stroke-linejoin:miter;stroke-width:0.8;"/>
   </g>
   <g id="patch_27">
    <path d="M 368.7 208.558393 
L 648.675 208.558393 
" style="fill:none;stroke:#000000;stroke-linecap:square;stroke-linejoin:miter;stroke-width:0.8;"/>
   </g>
  </g>
  <g id="axes_6">
   <g id="patch_28">
    <path d="M 681.225 372.2 
L 961.2 372.2 
L 961.2 208.558393 
L 681.225 208.558393 
z
" style="fill:#ffffff;"/>
   </g>
   <g id="matplotlib.axis_11">
    <g id="xtick_26">
     <g id="line2d_113">
      <g>
       <use style="stroke:#000000;stroke-width:0.8;" x="693.951136" xlink:href="#mf188b31e14" y="372.2"/>
      </g>
     </g>
     <g id="text_50">
      <!-- 1 -->
      <g transform="translate(690.769886 386.798437)scale(0.1 -0.1)">
       <use xlink:href="#DejaVuSans-31"/>
      </g>
     </g>
    </g>
    <g id="xtick_27">
     <g id="line2d_114">
      <g>
       <use style="stroke:#000000;stroke-width:0.8;" x="747.534868" xlink:href="#mf188b31e14" y="372.2"/>
      </g>
     </g>
     <g id="text_51">
      <!-- 5 -->
      <g transform="translate(744.353618 386.798437)scale(0.1 -0.1)">
       <use xlink:href="#DejaVuSans-35"/>
      </g>
     </g>
    </g>
    <g id="xtick_28">
     <g id="line2d_115">
      <g>
       <use style="stroke:#000000;stroke-width:0.8;" x="814.514533" xlink:href="#mf188b31e14" y="372.2"/>
      </g>
     </g>
     <g id="text_52">
      <!-- 10 -->
      <g transform="translate(808.152033 386.798437)scale(0.1 -0.1)">
       <use xlink:href="#DejaVuSans-31"/>
       <use x="63.623047" xlink:href="#DejaVuSans-30"/>
      </g>
     </g>
    </g>
    <g id="xtick_29">
     <g id="line2d_116">
      <g>
       <use style="stroke:#000000;stroke-width:0.8;" x="881.494199" xlink:href="#mf188b31e14" y="372.2"/>
      </g>
     </g>
     <g id="text_53">
      <!-- 15 -->
      <g transform="translate(875.131699 386.798437)scale(0.1 -0.1)">
       <use xlink:href="#DejaVuSans-31"/>
       <use x="63.623047" xlink:href="#DejaVuSans-35"/>
      </g>
     </g>
    </g>
    <g id="xtick_30">
     <g id="line2d_117">
      <g>
       <use style="stroke:#000000;stroke-width:0.8;" x="948.473864" xlink:href="#mf188b31e14" y="372.2"/>
      </g>
     </g>
     <g id="text_54">
      <!-- 20 -->
      <g transform="translate(942.111364 386.798437)scale(0.1 -0.1)">
       <use xlink:href="#DejaVuSans-32"/>
       <use x="63.623047" xlink:href="#DejaVuSans-30"/>
      </g>
     </g>
    </g>
    <g id="text_55">
     <!-- k -->
     <g transform="translate(818.317187 400.476562)scale(0.1 -0.1)">
      <use xlink:href="#DejaVuSans-6b"/>
     </g>
    </g>
   </g>
   <g id="matplotlib.axis_12">
    <g id="ytick_28">
     <g id="line2d_118">
      <path clip-path="url(#pad20ea2b0c)" d="M 681.225 352.346542 
L 961.2 352.346542 
" style="fill:none;stroke:#b0b0b0;stroke-linecap:square;stroke-width:0.8;"/>
     </g>
     <g id="line2d_119">
      <g>
       <use style="stroke:#000000;stroke-width:0.8;" x="681.225" xlink:href="#m983a48d73f" y="352.346542"/>
      </g>
     </g>
     <g id="text_56">
      <!-- 2 -->
      <g transform="translate(659.482812 356.145761)scale(0.1 -0.1)">
       <defs>
        <path d="M 678 2272 
L 4684 2272 
L 4684 1741 
L 678 1741 
L 678 2272 
z
" id="DejaVuSans-2212" transform="scale(0.015625)"/>
       </defs>
       <use xlink:href="#DejaVuSans-2212"/>
       <use x="83.789062" xlink:href="#DejaVuSans-32"/>
      </g>
     </g>
    </g>
    <g id="ytick_29">
     <g id="line2d_120">
      <path clip-path="url(#pad20ea2b0c)" d="M 681.225 323.853715 
L 961.2 323.853715 
" style="fill:none;stroke:#b0b0b0;stroke-linecap:square;stroke-width:0.8;"/>
     </g>
     <g id="line2d_121">
      <g>
       <use style="stroke:#000000;stroke-width:0.8;" x="681.225" xlink:href="#m983a48d73f" y="323.853715"/>
      </g>
     </g>
     <g id="text_57">
      <!-- 1 -->
      <g transform="translate(659.482812 327.652934)scale(0.1 -0.1)">
       <use xlink:href="#DejaVuSans-2212"/>
       <use x="83.789062" xlink:href="#DejaVuSans-31"/>
      </g>
     </g>
    </g>
    <g id="ytick_30">
     <g id="line2d_122">
      <path clip-path="url(#pad20ea2b0c)" d="M 681.225 295.360888 
L 961.2 295.360888 
" style="fill:none;stroke:#b0b0b0;stroke-linecap:square;stroke-width:0.8;"/>
     </g>
     <g id="line2d_123">
      <g>
       <use style="stroke:#000000;stroke-width:0.8;" x="681.225" xlink:href="#m983a48d73f" y="295.360888"/>
      </g>
     </g>
     <g id="text_58">
      <!-- 0 -->
      <g transform="translate(667.8625 299.160107)scale(0.1 -0.1)">
       <use xlink:href="#DejaVuSans-30"/>
      </g>
     </g>
    </g>
    <g id="ytick_31">
     <g id="line2d_124">
      <path clip-path="url(#pad20ea2b0c)" d="M 681.225 266.868061 
L 961.2 266.868061 
" style="fill:none;stroke:#b0b0b0;stroke-linecap:square;stroke-width:0.8;"/>
     </g>
     <g id="line2d_125">
      <g>
       <use style="stroke:#000000;stroke-width:0.8;" x="681.225" xlink:href="#m983a48d73f" y="266.868061"/>
      </g>
     </g>
     <g id="text_59">
      <!-- 1 -->
      <g transform="translate(667.8625 270.667279)scale(0.1 -0.1)">
       <use xlink:href="#DejaVuSans-31"/>
      </g>
     </g>
    </g>
    <g id="ytick_32">
     <g id="line2d_126">
      <path clip-path="url(#pad20ea2b0c)" d="M 681.225 238.375233 
L 961.2 238.375233 
" style="fill:none;stroke:#b0b0b0;stroke-linecap:square;stroke-width:0.8;"/>
     </g>
     <g id="line2d_127">
      <g>
       <use style="stroke:#000000;stroke-width:0.8;" x="681.225" xlink:href="#m983a48d73f" y="238.375233"/>
      </g>
     </g>
     <g id="text_60">
      <!-- 2 -->
      <g transform="translate(667.8625 242.174452)scale(0.1 -0.1)">
       <use xlink:href="#DejaVuSans-32"/>
      </g>
     </g>
    </g>
    <g id="ytick_33">
     <g id="line2d_128">
      <path clip-path="url(#pad20ea2b0c)" d="M 681.225 209.882406 
L 961.2 209.882406 
" style="fill:none;stroke:#b0b0b0;stroke-linecap:square;stroke-width:0.8;"/>
     </g>
     <g id="line2d_129">
      <g>
       <use style="stroke:#000000;stroke-width:0.8;" x="681.225" xlink:href="#m983a48d73f" y="209.882406"/>
      </g>
     </g>
     <g id="text_61">
      <!-- 3 -->
      <g transform="translate(667.8625 213.681625)scale(0.1 -0.1)">
       <use xlink:href="#DejaVuSans-33"/>
      </g>
     </g>
    </g>
   </g>
   <g id="LineCollection_3">
    <path clip-path="url(#pad20ea2b0c)" d="M 693.951136 295.360888 
L 948.473864 295.360888 
" style="fill:none;stroke:#000000;stroke-width:1.5;"/>
   </g>
   <g id="line2d_130">
    <path clip-path="url(#pad20ea2b0c)" d="M 693.951136 232.762338 
L 707.347069 232.762338 
L 707.347069 234.114407 
L 720.743002 234.114407 
L 720.743002 223.015964 
L 734.138935 223.015964 
L 734.138935 216.982061 
L 747.534868 216.982061 
L 747.534868 217.089753 
L 760.930801 217.089753 
L 760.930801 215.996648 
L 774.326734 215.996648 
L 774.326734 227.798725 
L 787.722667 227.798725 
L 787.722667 239.769482 
L 801.1186 239.769482 
L 801.1186 236.661911 
L 814.514533 236.661911 
L 814.514533 244.536265 
L 827.910467 244.536265 
L 827.910467 246.474267 
L 841.3064 246.474267 
L 841.3064 239.801196 
L 854.702333 239.801196 
L 854.702333 245.825765 
L 868.098266 245.825765 
L 868.098266 252.216184 
L 881.494199 252.216184 
L 881.494199 255.538363 
L 894.890132 255.538363 
L 894.890132 252.526099 
L 908.286065 252.526099 
L 908.286065 253.202766 
L 921.681998 253.202766 
L 921.681998 253.705668 
L 935.077931 253.705668 
L 935.077931 258.284394 
L 948.473864 258.284394 
L 948.473864 253.915081 
" style="fill:none;stroke:#0000ff;stroke-linecap:square;stroke-width:1.5;"/>
   </g>
   <g id="line2d_131">
    <path clip-path="url(#pad20ea2b0c)" d="M 693.951136 324.021626 
L 707.347069 324.021626 
L 707.347069 336.084531 
L 720.743002 336.084531 
L 720.743002 343.487316 
L 734.138935 343.487316 
L 734.138935 346.677391 
L 747.534868 346.677391 
L 747.534868 349.277354 
L 760.930801 349.277354 
L 760.930801 348.315645 
L 774.326734 348.315645 
L 774.326734 351.298252 
L 787.722667 351.298252 
L 787.722667 355.94524 
L 801.1186 355.94524 
L 801.1186 356.952601 
L 814.514533 356.952601 
L 814.514533 358.359031 
L 827.910467 358.359031 
L 827.910467 359.209889 
L 841.3064 359.209889 
L 841.3064 358.00279 
L 854.702333 358.00279 
L 854.702333 357.672812 
L 868.098266 357.672812 
L 868.098266 358.366432 
L 881.494199 358.366432 
L 881.494199 359.702325 
L 894.890132 359.702325 
L 894.890132 361.226495 
L 908.286065 361.226495 
L 908.286065 360.367911 
L 921.681998 360.367911 
L 921.681998 360.716469 
L 935.077931 360.716469 
L 935.077931 364.318708 
L 948.473864 364.318708 
L 948.473864 364.761745 
" style="fill:none;stroke:#ff0000;stroke-linecap:square;stroke-width:1.5;"/>
   </g>
   <g id="line2d_132">
    <path clip-path="url(#pad20ea2b0c)" d="M 693.951136 309.236968 
L 707.347069 309.236968 
L 707.347069 315.53325 
L 720.743002 315.53325 
L 720.743002 313.70179 
L 734.138935 313.70179 
L 734.138935 309.773645 
L 747.534868 309.773645 
L 747.534868 308.645921 
L 760.930801 308.645921 
L 760.930801 302.899636 
L 774.326734 302.899636 
L 774.326734 311.273239 
L 787.722667 311.273239 
L 787.722667 311.766336 
L 801.1186 311.766336 
L 801.1186 298.117321 
L 814.514533 298.117321 
L 814.514533 309.127866 
L 827.910467 309.127866 
L 827.910467 309.722325 
L 841.3064 309.722325 
L 841.3064 304.374015 
L 854.702333 304.374015 
L 854.702333 303.457355 
L 868.098266 303.457355 
L 868.098266 307.53996 
L 881.494199 307.53996 
L 881.494199 307.211227 
L 894.890132 307.211227 
L 894.890132 300.601589 
L 908.286065 300.601589 
L 908.286065 298.762128 
L 921.681998 298.762128 
L 921.681998 297.238987 
L 935.077931 297.238987 
L 935.077931 298.543796 
L 948.473864 298.543796 
L 948.473864 295.939418 
" style="fill:none;stroke:#008000;stroke-linecap:square;stroke-width:1.5;"/>
   </g>
   <g id="line2d_133">
    <path clip-path="url(#pad20ea2b0c)" d="M 693.951136 269.661443 
L 707.347069 269.661443 
L 707.347069 263.368608 
L 720.743002 263.368608 
L 720.743002 255.945524 
L 734.138935 255.945524 
L 734.138935 253.900306 
L 747.534868 253.900306 
L 747.534868 256.13144 
L 760.930801 256.13144 
L 760.930801 244.935051 
L 774.326734 244.935051 
L 774.326734 250.440401 
L 787.722667 250.440401 
L 787.722667 261.632452 
L 801.1186 261.632452 
L 801.1186 253.366211 
L 814.514533 253.366211 
L 814.514533 258.309672 
L 827.910467 258.309672 
L 827.910467 262.597522 
L 841.3064 262.597522 
L 841.3064 257.422361 
L 854.702333 257.422361 
L 854.702333 259.734173 
L 868.098266 259.734173 
L 868.098266 264.846121 
L 881.494199 264.846121 
L 881.494199 263.686295 
L 894.890132 263.686295 
L 894.890132 263.395288 
L 908.286065 263.395288 
L 908.286065 262.116906 
L 921.681998 262.116906 
L 921.681998 261.075534 
L 935.077931 261.075534 
L 935.077931 263.214344 
L 948.473864 263.214344 
L 948.473864 259.595449 
" style="fill:none;stroke:#ffa500;stroke-linecap:square;stroke-width:1.5;"/>
   </g>
   <g id="patch_29">
    <path d="M 681.225 372.2 
L 681.225 208.558393 
" style="fill:none;stroke:#000000;stroke-linecap:square;stroke-linejoin:miter;stroke-width:0.8;"/>
   </g>
   <g id="patch_30">
    <path d="M 961.2 372.2 
L 961.2 208.558393 
" style="fill:none;stroke:#000000;stroke-linecap:square;stroke-linejoin:miter;stroke-width:0.8;"/>
   </g>
   <g id="patch_31">
    <path d="M 681.225 372.2 
L 961.2 372.2 
" style="fill:none;stroke:#000000;stroke-linecap:square;stroke-linejoin:miter;stroke-width:0.8;"/>
   </g>
   <g id="patch_32">
    <path d="M 681.225 208.558393 
L 961.2 208.558393 
" style="fill:none;stroke:#000000;stroke-linecap:square;stroke-linejoin:miter;stroke-width:0.8;"/>
   </g>
  </g>
 </g>
 <defs>
  <clipPath id="p05cbe3c3de">
   <rect height="163.641607" width="279.975" x="56.175" y="26.8"/>
  </clipPath>
  <clipPath id="p3b3dc2d1d2">
   <rect height="163.641607" width="279.975" x="368.7" y="26.8"/>
  </clipPath>
  <clipPath id="pf1b3ae5ac8">
   <rect height="163.641607" width="279.975" x="681.225" y="26.8"/>
  </clipPath>
  <clipPath id="p5d89bbb0a4">
   <rect height="163.641607" width="279.975" x="56.175" y="208.558393"/>
  </clipPath>
  <clipPath id="pd130060fa3">
   <rect height="163.641607" width="279.975" x="368.7" y="208.558393"/>
  </clipPath>
  <clipPath id="pad20ea2b0c">
   <rect height="163.641607" width="279.975" x="681.225" y="208.558393"/>
  </clipPath>
 </defs>
</svg>
