<?xml version="1.0" encoding="utf-8" standalone="no"?>
<!DOCTYPE svg PUBLIC "-//W3C//DTD SVG 1.1//EN"
  "http://www.w3.org/Graphics/SVG/1.1/DTD/svg11.dtd">
<svg height="414pt" version="1.1" viewBox="0 0 972 414" width="972pt" xmlns="http://www.w3.org/2000/svg" xmlns:xlink="http://www.w3.org/1999/xlink">
 <metadata>
  <rdf:RDF xmlns:cc="http://creativecommons.org/ns#" xmlns:dc="http://purl.org/dc/elements/1.1/" xmlns:rdf="http://www.w3.org/1999/02/22-rdf-syntax-ns#">
   <cc:Work>
    <dc:type rdf:resource="http://purl.org/dc/dcmitype/StillImage"/>
    <dc:date>2022-05-11T16:34:52.465195</dc:date>
    <dc:format>image/svg+xml</dc:format>
    <dc:creator>
     <cc:Agent>
      <dc:title>Matplotlib v3.4.3, https://matplotlib.org/</dc:title>
     </cc:Agent>
    </dc:creator>
   </cc:Work>
  </rdf:RDF>
 </metadata>
 <defs>
  <style type="text/css">*{stroke-linecap:butt;stroke-linejoin:round;}</style>
 </defs>
 <g id="figure_1">
  <g id="patch_1">
   <path d="M 0 414 
L 972 414 
L 972 0 
L 0 0 
z
" style="fill:none;"/>
  </g>
  <g id="axes_1">
   <g id="patch_2">
    <path d="M 56.175 192.35 
L 337.483333 192.35 
L 337.483333 26.8 
L 56.175 26.8 
z
" style="fill:#ffffff;"/>
   </g>
   <g id="matplotlib.axis_1">
    <g id="xtick_1">
     <g id="line2d_1">
      <defs>
       <path d="M 0 0 
L 0 3.5 
" id="m2b9ed5eb93" style="stroke:#000000;stroke-width:0.8;"/>
      </defs>
      <g>
       <use style="stroke:#000000;stroke-width:0.8;" x="68.961742" xlink:href="#m2b9ed5eb93" y="192.35"/>
      </g>
     </g>
    </g>
    <g id="xtick_2">
     <g id="line2d_2">
      <g>
       <use style="stroke:#000000;stroke-width:0.8;" x="122.800658" xlink:href="#m2b9ed5eb93" y="192.35"/>
      </g>
     </g>
    </g>
    <g id="xtick_3">
     <g id="line2d_3">
      <g>
       <use style="stroke:#000000;stroke-width:0.8;" x="190.099302" xlink:href="#m2b9ed5eb93" y="192.35"/>
      </g>
     </g>
    </g>
    <g id="xtick_4">
     <g id="line2d_4">
      <g>
       <use style="stroke:#000000;stroke-width:0.8;" x="257.397947" xlink:href="#m2b9ed5eb93" y="192.35"/>
      </g>
     </g>
    </g>
    <g id="xtick_5">
     <g id="line2d_5">
      <g>
       <use style="stroke:#000000;stroke-width:0.8;" x="324.696591" xlink:href="#m2b9ed5eb93" y="192.35"/>
      </g>
     </g>
    </g>
   </g>
   <g id="matplotlib.axis_2">
    <g id="ytick_1">
     <g id="line2d_6">
      <path clip-path="url(#pb42a59d635)" d="M 56.175 157.37519 
L 337.483333 157.37519 
" style="fill:none;stroke:#b0b0b0;stroke-linecap:square;stroke-width:0.8;"/>
     </g>
     <g id="line2d_7">
      <defs>
       <path d="M 0 0 
L -3.5 0 
" id="m34ab636571" style="stroke:#000000;stroke-width:0.8;"/>
      </defs>
      <g>
       <use style="stroke:#000000;stroke-width:0.8;" x="56.175" xlink:href="#m34ab636571" y="157.37519"/>
      </g>
     </g>
     <g id="text_1">
      <!-- 10 -->
      <g transform="translate(36.45 161.174409)scale(0.1 -0.1)">
       <defs>
        <path d="M 794 531 
L 1825 531 
L 1825 4091 
L 703 3866 
L 703 4441 
L 1819 4666 
L 2450 4666 
L 2450 531 
L 3481 531 
L 3481 0 
L 794 0 
L 794 531 
z
" id="DejaVuSans-31" transform="scale(0.015625)"/>
        <path d="M 2034 4250 
Q 1547 4250 1301 3770 
Q 1056 3291 1056 2328 
Q 1056 1369 1301 889 
Q 1547 409 2034 409 
Q 2525 409 2770 889 
Q 3016 1369 3016 2328 
Q 3016 3291 2770 3770 
Q 2525 4250 2034 4250 
z
M 2034 4750 
Q 2819 4750 3233 4129 
Q 3647 3509 3647 2328 
Q 3647 1150 3233 529 
Q 2819 -91 2034 -91 
Q 1250 -91 836 529 
Q 422 1150 422 2328 
Q 422 3509 836 4129 
Q 1250 4750 2034 4750 
z
" id="DejaVuSans-30" transform="scale(0.015625)"/>
       </defs>
       <use xlink:href="#DejaVuSans-31"/>
       <use x="63.623047" xlink:href="#DejaVuSans-30"/>
      </g>
     </g>
    </g>
    <g id="ytick_2">
     <g id="line2d_8">
      <path clip-path="url(#pb42a59d635)" d="M 56.175 118.24908 
L 337.483333 118.24908 
" style="fill:none;stroke:#b0b0b0;stroke-linecap:square;stroke-width:0.8;"/>
     </g>
     <g id="line2d_9">
      <g>
       <use style="stroke:#000000;stroke-width:0.8;" x="56.175" xlink:href="#m34ab636571" y="118.24908"/>
      </g>
     </g>
     <g id="text_2">
      <!-- 20 -->
      <g transform="translate(36.45 122.048299)scale(0.1 -0.1)">
       <defs>
        <path d="M 1228 531 
L 3431 531 
L 3431 0 
L 469 0 
L 469 531 
Q 828 903 1448 1529 
Q 2069 2156 2228 2338 
Q 2531 2678 2651 2914 
Q 2772 3150 2772 3378 
Q 2772 3750 2511 3984 
Q 2250 4219 1831 4219 
Q 1534 4219 1204 4116 
Q 875 4013 500 3803 
L 500 4441 
Q 881 4594 1212 4672 
Q 1544 4750 1819 4750 
Q 2544 4750 2975 4387 
Q 3406 4025 3406 3419 
Q 3406 3131 3298 2873 
Q 3191 2616 2906 2266 
Q 2828 2175 2409 1742 
Q 1991 1309 1228 531 
z
" id="DejaVuSans-32" transform="scale(0.015625)"/>
       </defs>
       <use xlink:href="#DejaVuSans-32"/>
       <use x="63.623047" xlink:href="#DejaVuSans-30"/>
      </g>
     </g>
    </g>
    <g id="ytick_3">
     <g id="line2d_10">
      <path clip-path="url(#pb42a59d635)" d="M 56.175 79.12297 
L 337.483333 79.12297 
" style="fill:none;stroke:#b0b0b0;stroke-linecap:square;stroke-width:0.8;"/>
     </g>
     <g id="line2d_11">
      <g>
       <use style="stroke:#000000;stroke-width:0.8;" x="56.175" xlink:href="#m34ab636571" y="79.12297"/>
      </g>
     </g>
     <g id="text_3">
      <!-- 30 -->
      <g transform="translate(36.45 82.922189)scale(0.1 -0.1)">
       <defs>
        <path d="M 2597 2516 
Q 3050 2419 3304 2112 
Q 3559 1806 3559 1356 
Q 3559 666 3084 287 
Q 2609 -91 1734 -91 
Q 1441 -91 1130 -33 
Q 819 25 488 141 
L 488 750 
Q 750 597 1062 519 
Q 1375 441 1716 441 
Q 2309 441 2620 675 
Q 2931 909 2931 1356 
Q 2931 1769 2642 2001 
Q 2353 2234 1838 2234 
L 1294 2234 
L 1294 2753 
L 1863 2753 
Q 2328 2753 2575 2939 
Q 2822 3125 2822 3475 
Q 2822 3834 2567 4026 
Q 2313 4219 1838 4219 
Q 1578 4219 1281 4162 
Q 984 4106 628 3988 
L 628 4550 
Q 988 4650 1302 4700 
Q 1616 4750 1894 4750 
Q 2613 4750 3031 4423 
Q 3450 4097 3450 3541 
Q 3450 3153 3228 2886 
Q 3006 2619 2597 2516 
z
" id="DejaVuSans-33" transform="scale(0.015625)"/>
       </defs>
       <use xlink:href="#DejaVuSans-33"/>
       <use x="63.623047" xlink:href="#DejaVuSans-30"/>
      </g>
     </g>
    </g>
    <g id="ytick_4">
     <g id="line2d_12">
      <path clip-path="url(#pb42a59d635)" d="M 56.175 39.996861 
L 337.483333 39.996861 
" style="fill:none;stroke:#b0b0b0;stroke-linecap:square;stroke-width:0.8;"/>
     </g>
     <g id="line2d_13">
      <g>
       <use style="stroke:#000000;stroke-width:0.8;" x="56.175" xlink:href="#m34ab636571" y="39.996861"/>
      </g>
     </g>
     <g id="text_4">
      <!-- 40 -->
      <g transform="translate(36.45 43.796079)scale(0.1 -0.1)">
       <defs>
        <path d="M 2419 4116 
L 825 1625 
L 2419 1625 
L 2419 4116 
z
M 2253 4666 
L 3047 4666 
L 3047 1625 
L 3713 1625 
L 3713 1100 
L 3047 1100 
L 3047 0 
L 2419 0 
L 2419 1100 
L 313 1100 
L 313 1709 
L 2253 4666 
z
" id="DejaVuSans-34" transform="scale(0.015625)"/>
       </defs>
       <use xlink:href="#DejaVuSans-34"/>
       <use x="63.623047" xlink:href="#DejaVuSans-30"/>
      </g>
     </g>
    </g>
    <g id="text_5">
     <!-- Top-k accuracy (%) -->
     <g transform="translate(29.954375 166.606875)rotate(-90)scale(0.12 -0.12)">
      <defs>
       <path d="M -19 4666 
L 3928 4666 
L 3928 4134 
L 2272 4134 
L 2272 0 
L 1638 0 
L 1638 4134 
L -19 4134 
L -19 4666 
z
" id="DejaVuSans-54" transform="scale(0.015625)"/>
       <path d="M 1959 3097 
Q 1497 3097 1228 2736 
Q 959 2375 959 1747 
Q 959 1119 1226 758 
Q 1494 397 1959 397 
Q 2419 397 2687 759 
Q 2956 1122 2956 1747 
Q 2956 2369 2687 2733 
Q 2419 3097 1959 3097 
z
M 1959 3584 
Q 2709 3584 3137 3096 
Q 3566 2609 3566 1747 
Q 3566 888 3137 398 
Q 2709 -91 1959 -91 
Q 1206 -91 779 398 
Q 353 888 353 1747 
Q 353 2609 779 3096 
Q 1206 3584 1959 3584 
z
" id="DejaVuSans-6f" transform="scale(0.015625)"/>
       <path d="M 1159 525 
L 1159 -1331 
L 581 -1331 
L 581 3500 
L 1159 3500 
L 1159 2969 
Q 1341 3281 1617 3432 
Q 1894 3584 2278 3584 
Q 2916 3584 3314 3078 
Q 3713 2572 3713 1747 
Q 3713 922 3314 415 
Q 2916 -91 2278 -91 
Q 1894 -91 1617 61 
Q 1341 213 1159 525 
z
M 3116 1747 
Q 3116 2381 2855 2742 
Q 2594 3103 2138 3103 
Q 1681 3103 1420 2742 
Q 1159 2381 1159 1747 
Q 1159 1113 1420 752 
Q 1681 391 2138 391 
Q 2594 391 2855 752 
Q 3116 1113 3116 1747 
z
" id="DejaVuSans-70" transform="scale(0.015625)"/>
       <path d="M 313 2009 
L 1997 2009 
L 1997 1497 
L 313 1497 
L 313 2009 
z
" id="DejaVuSans-2d" transform="scale(0.015625)"/>
       <path d="M 581 4863 
L 1159 4863 
L 1159 1991 
L 2875 3500 
L 3609 3500 
L 1753 1863 
L 3688 0 
L 2938 0 
L 1159 1709 
L 1159 0 
L 581 0 
L 581 4863 
z
" id="DejaVuSans-6b" transform="scale(0.015625)"/>
       <path id="DejaVuSans-20" transform="scale(0.015625)"/>
       <path d="M 2194 1759 
Q 1497 1759 1228 1600 
Q 959 1441 959 1056 
Q 959 750 1161 570 
Q 1363 391 1709 391 
Q 2188 391 2477 730 
Q 2766 1069 2766 1631 
L 2766 1759 
L 2194 1759 
z
M 3341 1997 
L 3341 0 
L 2766 0 
L 2766 531 
Q 2569 213 2275 61 
Q 1981 -91 1556 -91 
Q 1019 -91 701 211 
Q 384 513 384 1019 
Q 384 1609 779 1909 
Q 1175 2209 1959 2209 
L 2766 2209 
L 2766 2266 
Q 2766 2663 2505 2880 
Q 2244 3097 1772 3097 
Q 1472 3097 1187 3025 
Q 903 2953 641 2809 
L 641 3341 
Q 956 3463 1253 3523 
Q 1550 3584 1831 3584 
Q 2591 3584 2966 3190 
Q 3341 2797 3341 1997 
z
" id="DejaVuSans-61" transform="scale(0.015625)"/>
       <path d="M 3122 3366 
L 3122 2828 
Q 2878 2963 2633 3030 
Q 2388 3097 2138 3097 
Q 1578 3097 1268 2742 
Q 959 2388 959 1747 
Q 959 1106 1268 751 
Q 1578 397 2138 397 
Q 2388 397 2633 464 
Q 2878 531 3122 666 
L 3122 134 
Q 2881 22 2623 -34 
Q 2366 -91 2075 -91 
Q 1284 -91 818 406 
Q 353 903 353 1747 
Q 353 2603 823 3093 
Q 1294 3584 2113 3584 
Q 2378 3584 2631 3529 
Q 2884 3475 3122 3366 
z
" id="DejaVuSans-63" transform="scale(0.015625)"/>
       <path d="M 544 1381 
L 544 3500 
L 1119 3500 
L 1119 1403 
Q 1119 906 1312 657 
Q 1506 409 1894 409 
Q 2359 409 2629 706 
Q 2900 1003 2900 1516 
L 2900 3500 
L 3475 3500 
L 3475 0 
L 2900 0 
L 2900 538 
Q 2691 219 2414 64 
Q 2138 -91 1772 -91 
Q 1169 -91 856 284 
Q 544 659 544 1381 
z
M 1991 3584 
L 1991 3584 
z
" id="DejaVuSans-75" transform="scale(0.015625)"/>
       <path d="M 2631 2963 
Q 2534 3019 2420 3045 
Q 2306 3072 2169 3072 
Q 1681 3072 1420 2755 
Q 1159 2438 1159 1844 
L 1159 0 
L 581 0 
L 581 3500 
L 1159 3500 
L 1159 2956 
Q 1341 3275 1631 3429 
Q 1922 3584 2338 3584 
Q 2397 3584 2469 3576 
Q 2541 3569 2628 3553 
L 2631 2963 
z
" id="DejaVuSans-72" transform="scale(0.015625)"/>
       <path d="M 2059 -325 
Q 1816 -950 1584 -1140 
Q 1353 -1331 966 -1331 
L 506 -1331 
L 506 -850 
L 844 -850 
Q 1081 -850 1212 -737 
Q 1344 -625 1503 -206 
L 1606 56 
L 191 3500 
L 800 3500 
L 1894 763 
L 2988 3500 
L 3597 3500 
L 2059 -325 
z
" id="DejaVuSans-79" transform="scale(0.015625)"/>
       <path d="M 1984 4856 
Q 1566 4138 1362 3434 
Q 1159 2731 1159 2009 
Q 1159 1288 1364 580 
Q 1569 -128 1984 -844 
L 1484 -844 
Q 1016 -109 783 600 
Q 550 1309 550 2009 
Q 550 2706 781 3412 
Q 1013 4119 1484 4856 
L 1984 4856 
z
" id="DejaVuSans-28" transform="scale(0.015625)"/>
       <path d="M 4653 2053 
Q 4381 2053 4226 1822 
Q 4072 1591 4072 1178 
Q 4072 772 4226 539 
Q 4381 306 4653 306 
Q 4919 306 5073 539 
Q 5228 772 5228 1178 
Q 5228 1588 5073 1820 
Q 4919 2053 4653 2053 
z
M 4653 2450 
Q 5147 2450 5437 2106 
Q 5728 1763 5728 1178 
Q 5728 594 5436 251 
Q 5144 -91 4653 -91 
Q 4153 -91 3862 251 
Q 3572 594 3572 1178 
Q 3572 1766 3864 2108 
Q 4156 2450 4653 2450 
z
M 1428 4353 
Q 1159 4353 1004 4120 
Q 850 3888 850 3481 
Q 850 3069 1003 2837 
Q 1156 2606 1428 2606 
Q 1700 2606 1854 2837 
Q 2009 3069 2009 3481 
Q 2009 3884 1853 4118 
Q 1697 4353 1428 4353 
z
M 4250 4750 
L 4750 4750 
L 1831 -91 
L 1331 -91 
L 4250 4750 
z
M 1428 4750 
Q 1922 4750 2215 4408 
Q 2509 4066 2509 3481 
Q 2509 2891 2217 2550 
Q 1925 2209 1428 2209 
Q 931 2209 642 2551 
Q 353 2894 353 3481 
Q 353 4063 643 4406 
Q 934 4750 1428 4750 
z
" id="DejaVuSans-25" transform="scale(0.015625)"/>
       <path d="M 513 4856 
L 1013 4856 
Q 1481 4119 1714 3412 
Q 1947 2706 1947 2009 
Q 1947 1309 1714 600 
Q 1481 -109 1013 -844 
L 513 -844 
Q 928 -128 1133 580 
Q 1338 1288 1338 2009 
Q 1338 2731 1133 3434 
Q 928 4138 513 4856 
z
" id="DejaVuSans-29" transform="scale(0.015625)"/>
      </defs>
      <use xlink:href="#DejaVuSans-54"/>
      <use x="44.083984" xlink:href="#DejaVuSans-6f"/>
      <use x="105.265625" xlink:href="#DejaVuSans-70"/>
      <use x="168.742188" xlink:href="#DejaVuSans-2d"/>
      <use x="204.826172" xlink:href="#DejaVuSans-6b"/>
      <use x="262.736328" xlink:href="#DejaVuSans-20"/>
      <use x="294.523438" xlink:href="#DejaVuSans-61"/>
      <use x="355.802734" xlink:href="#DejaVuSans-63"/>
      <use x="410.783203" xlink:href="#DejaVuSans-63"/>
      <use x="465.763672" xlink:href="#DejaVuSans-75"/>
      <use x="529.142578" xlink:href="#DejaVuSans-72"/>
      <use x="570.255859" xlink:href="#DejaVuSans-61"/>
      <use x="631.535156" xlink:href="#DejaVuSans-63"/>
      <use x="686.515625" xlink:href="#DejaVuSans-79"/>
      <use x="745.695312" xlink:href="#DejaVuSans-20"/>
      <use x="777.482422" xlink:href="#DejaVuSans-28"/>
      <use x="816.496094" xlink:href="#DejaVuSans-25"/>
      <use x="911.515625" xlink:href="#DejaVuSans-29"/>
     </g>
    </g>
   </g>
   <g id="line2d_14">
    <path clip-path="url(#pb42a59d635)" d="M 68.961742 184.825 
L 82.421471 184.825 
L 82.421471 176.844136 
L 95.8812 176.844136 
L 95.8812 166.406456 
L 109.340929 166.406456 
L 109.340929 155.894577 
L 122.800658 155.894577 
L 122.800658 147.806952 
L 136.260387 147.806952 
L 136.260387 138.869315 
L 149.720116 138.869315 
L 149.720116 131.080189 
L 163.179844 131.080189 
L 163.179844 123.745581 
L 176.639573 123.745581 
L 176.639573 116.994002 
L 190.099302 116.994002 
L 190.099302 110.672167 
L 203.559031 110.672167 
L 203.559031 104.962745 
L 217.01876 104.962745 
L 217.01876 100.974389 
L 230.478489 100.974389 
L 230.478489 95.864365 
L 243.938218 95.864365 
L 243.938218 92.168211 
L 257.397947 92.168211 
L 257.397947 88.412545 
L 270.857675 88.412545 
L 270.857675 84.871013 
L 284.317404 84.871013 
L 284.317404 81.346146 
L 297.777133 81.346146 
L 297.777133 77.625153 
L 311.236862 77.625153 
L 311.236862 73.880968 
L 324.696591 73.880968 
L 324.696591 70.263514 
" style="fill:none;stroke:#000000;stroke-linecap:square;stroke-width:1.5;"/>
   </g>
   <g id="line2d_15">
    <path clip-path="url(#pb42a59d635)" d="M 68.961742 183.213313 
L 82.421471 183.213313 
L 82.421471 174.131944 
L 95.8812 174.131944 
L 95.8812 163.29724 
L 109.340929 163.29724 
L 109.340929 152.708863 
L 122.800658 152.708863 
L 122.800658 144.109835 
L 136.260387 144.109835 
L 136.260387 135.230908 
L 149.720116 135.230908 
L 149.720116 127.681263 
L 163.179844 127.681263 
L 163.179844 120.885285 
L 176.639573 120.885285 
L 176.639573 113.863341 
L 190.099302 113.863341 
L 190.099302 106.884324 
L 203.559031 106.884324 
L 203.559031 99.684819 
L 217.01876 99.684819 
L 217.01876 94.022239 
L 230.478489 94.022239 
L 230.478489 88.775302 
L 243.938218 88.775302 
L 243.938218 83.812409 
L 257.397947 83.812409 
L 257.397947 78.460165 
L 270.857675 78.460165 
L 270.857675 73.656809 
L 284.317404 73.656809 
L 284.317404 69.001068 
L 297.777133 69.001068 
L 297.777133 64.086343 
L 311.236862 64.086343 
L 311.236862 60.228232 
L 324.696591 60.228232 
L 324.696591 56.589126 
" style="fill:none;stroke:#0000ff;stroke-dasharray:5.55,2.4;stroke-dashoffset:0;stroke-width:1.5;"/>
   </g>
   <g id="line2d_16">
    <path clip-path="url(#pb42a59d635)" d="M 68.961742 174.635737 
L 82.421471 174.635737 
L 82.421471 159.851167 
L 95.8812 159.851167 
L 95.8812 146.862787 
L 109.340929 146.862787 
L 109.340929 135.210655 
L 122.800658 135.210655 
L 122.800658 124.188155 
L 136.260387 124.188155 
L 136.260387 114.156456 
L 149.720116 114.156456 
L 149.720116 106.306685 
L 163.179844 106.306685 
L 163.179844 98.900079 
L 176.639573 98.900079 
L 176.639573 92.08861 
L 190.099302 92.08861 
L 190.099302 84.607433 
L 203.559031 84.607433 
L 203.559031 77.781385 
L 217.01876 77.781385 
L 217.01876 70.709107 
L 230.478489 70.709107 
L 230.478489 65.197044 
L 243.938218 65.197044 
L 243.938218 59.362542 
L 257.397947 59.362542 
L 257.397947 53.840267 
L 270.857675 53.840267 
L 270.857675 49.523492 
L 284.317404 49.523492 
L 284.317404 45.970542 
L 297.777133 45.970542 
L 297.777133 42.46412 
L 311.236862 42.46412 
L 311.236862 38.619055 
L 324.696591 38.619055 
L 324.696591 34.325 
" style="fill:none;stroke:#0000ff;stroke-dasharray:1.5,2.475;stroke-dashoffset:0;stroke-width:1.5;"/>
   </g>
   <g id="patch_3">
    <path d="M 56.175 192.35 
L 56.175 26.8 
" style="fill:none;stroke:#000000;stroke-linecap:square;stroke-linejoin:miter;stroke-width:0.8;"/>
   </g>
   <g id="patch_4">
    <path d="M 337.483333 192.35 
L 337.483333 26.8 
" style="fill:none;stroke:#000000;stroke-linecap:square;stroke-linejoin:miter;stroke-width:0.8;"/>
   </g>
   <g id="patch_5">
    <path d="M 56.175 192.35 
L 337.483333 192.35 
" style="fill:none;stroke:#000000;stroke-linecap:square;stroke-linejoin:miter;stroke-width:0.8;"/>
   </g>
   <g id="patch_6">
    <path d="M 56.175 26.8 
L 337.483333 26.8 
" style="fill:none;stroke:#000000;stroke-linecap:square;stroke-linejoin:miter;stroke-width:0.8;"/>
   </g>
   <g id="text_6">
    <!-- CFM-ID -->
    <g transform="translate(172.652917 20.8)scale(0.12 -0.12)">
     <defs>
      <path d="M 4288 256 
Q 3956 84 3597 -3 
Q 3238 -91 2847 -91 
Q 1681 -91 1000 561 
Q 319 1213 319 2328 
Q 319 3447 1000 4098 
Q 1681 4750 2847 4750 
Q 3238 4750 3597 4662 
Q 3956 4575 4288 4403 
L 4288 3438 
Q 3953 3666 3628 3772 
Q 3303 3878 2944 3878 
Q 2300 3878 1931 3465 
Q 1563 3053 1563 2328 
Q 1563 1606 1931 1193 
Q 2300 781 2944 781 
Q 3303 781 3628 887 
Q 3953 994 4288 1222 
L 4288 256 
z
" id="DejaVuSans-Bold-43" transform="scale(0.015625)"/>
      <path d="M 588 4666 
L 3834 4666 
L 3834 3756 
L 1791 3756 
L 1791 2888 
L 3713 2888 
L 3713 1978 
L 1791 1978 
L 1791 0 
L 588 0 
L 588 4666 
z
" id="DejaVuSans-Bold-46" transform="scale(0.015625)"/>
      <path d="M 588 4666 
L 2119 4666 
L 3181 2169 
L 4250 4666 
L 5778 4666 
L 5778 0 
L 4641 0 
L 4641 3413 
L 3566 897 
L 2803 897 
L 1728 3413 
L 1728 0 
L 588 0 
L 588 4666 
z
" id="DejaVuSans-Bold-4d" transform="scale(0.015625)"/>
      <path d="M 347 2297 
L 2309 2297 
L 2309 1388 
L 347 1388 
L 347 2297 
z
" id="DejaVuSans-Bold-2d" transform="scale(0.015625)"/>
      <path d="M 588 4666 
L 1791 4666 
L 1791 0 
L 588 0 
L 588 4666 
z
" id="DejaVuSans-Bold-49" transform="scale(0.015625)"/>
      <path d="M 1791 3756 
L 1791 909 
L 2222 909 
Q 2959 909 3348 1275 
Q 3738 1641 3738 2338 
Q 3738 3031 3350 3393 
Q 2963 3756 2222 3756 
L 1791 3756 
z
M 588 4666 
L 1856 4666 
Q 2919 4666 3439 4514 
Q 3959 4363 4331 4000 
Q 4659 3684 4818 3271 
Q 4978 2859 4978 2338 
Q 4978 1809 4818 1395 
Q 4659 981 4331 666 
Q 3956 303 3431 151 
Q 2906 0 1856 0 
L 588 0 
L 588 4666 
z
" id="DejaVuSans-Bold-44" transform="scale(0.015625)"/>
     </defs>
     <use xlink:href="#DejaVuSans-Bold-43"/>
     <use x="73.388672" xlink:href="#DejaVuSans-Bold-46"/>
     <use x="141.699219" xlink:href="#DejaVuSans-Bold-4d"/>
     <use x="241.210938" xlink:href="#DejaVuSans-Bold-2d"/>
     <use x="282.714844" xlink:href="#DejaVuSans-Bold-49"/>
     <use x="319.921875" xlink:href="#DejaVuSans-Bold-44"/>
    </g>
   </g>
   <g id="legend_1">
    <g id="patch_7">
     <path d="M 63.175 82 
L 186.375 82 
Q 188.375 82 188.375 80 
L 188.375 33.8 
Q 188.375 31.8 186.375 31.8 
L 63.175 31.8 
Q 61.175 31.8 61.175 33.8 
L 61.175 80 
Q 61.175 82 63.175 82 
z
" style="fill:#ffffff;opacity:0.8;stroke:#cccccc;stroke-linejoin:miter;"/>
    </g>
    <g id="line2d_17">
     <path d="M 65.175 41.4 
L 85.175 41.4 
" style="fill:none;stroke:#000000;stroke-linecap:square;stroke-width:1.5;"/>
    </g>
    <g id="line2d_18"/>
    <g id="text_7">
     <!-- Only-MS$^2$ -->
     <g transform="translate(93.175 44.9)scale(0.1 -0.1)">
      <defs>
       <path d="M 2522 4238 
Q 1834 4238 1429 3725 
Q 1025 3213 1025 2328 
Q 1025 1447 1429 934 
Q 1834 422 2522 422 
Q 3209 422 3611 934 
Q 4013 1447 4013 2328 
Q 4013 3213 3611 3725 
Q 3209 4238 2522 4238 
z
M 2522 4750 
Q 3503 4750 4090 4092 
Q 4678 3434 4678 2328 
Q 4678 1225 4090 567 
Q 3503 -91 2522 -91 
Q 1538 -91 948 565 
Q 359 1222 359 2328 
Q 359 3434 948 4092 
Q 1538 4750 2522 4750 
z
" id="DejaVuSans-4f" transform="scale(0.015625)"/>
       <path d="M 3513 2113 
L 3513 0 
L 2938 0 
L 2938 2094 
Q 2938 2591 2744 2837 
Q 2550 3084 2163 3084 
Q 1697 3084 1428 2787 
Q 1159 2491 1159 1978 
L 1159 0 
L 581 0 
L 581 3500 
L 1159 3500 
L 1159 2956 
Q 1366 3272 1645 3428 
Q 1925 3584 2291 3584 
Q 2894 3584 3203 3211 
Q 3513 2838 3513 2113 
z
" id="DejaVuSans-6e" transform="scale(0.015625)"/>
       <path d="M 603 4863 
L 1178 4863 
L 1178 0 
L 603 0 
L 603 4863 
z
" id="DejaVuSans-6c" transform="scale(0.015625)"/>
       <path d="M 628 4666 
L 1569 4666 
L 2759 1491 
L 3956 4666 
L 4897 4666 
L 4897 0 
L 4281 0 
L 4281 4097 
L 3078 897 
L 2444 897 
L 1241 4097 
L 1241 0 
L 628 0 
L 628 4666 
z
" id="DejaVuSans-4d" transform="scale(0.015625)"/>
       <path d="M 3425 4513 
L 3425 3897 
Q 3066 4069 2747 4153 
Q 2428 4238 2131 4238 
Q 1616 4238 1336 4038 
Q 1056 3838 1056 3469 
Q 1056 3159 1242 3001 
Q 1428 2844 1947 2747 
L 2328 2669 
Q 3034 2534 3370 2195 
Q 3706 1856 3706 1288 
Q 3706 609 3251 259 
Q 2797 -91 1919 -91 
Q 1588 -91 1214 -16 
Q 841 59 441 206 
L 441 856 
Q 825 641 1194 531 
Q 1563 422 1919 422 
Q 2459 422 2753 634 
Q 3047 847 3047 1241 
Q 3047 1584 2836 1778 
Q 2625 1972 2144 2069 
L 1759 2144 
Q 1053 2284 737 2584 
Q 422 2884 422 3419 
Q 422 4038 858 4394 
Q 1294 4750 2059 4750 
Q 2388 4750 2728 4690 
Q 3069 4631 3425 4513 
z
" id="DejaVuSans-53" transform="scale(0.015625)"/>
      </defs>
      <use transform="translate(0 0.765625)" xlink:href="#DejaVuSans-4f"/>
      <use transform="translate(78.710938 0.765625)" xlink:href="#DejaVuSans-6e"/>
      <use transform="translate(142.089844 0.765625)" xlink:href="#DejaVuSans-6c"/>
      <use transform="translate(169.873047 0.765625)" xlink:href="#DejaVuSans-79"/>
      <use transform="translate(229.052734 0.765625)" xlink:href="#DejaVuSans-2d"/>
      <use transform="translate(265.136719 0.765625)" xlink:href="#DejaVuSans-4d"/>
      <use transform="translate(351.416016 0.765625)" xlink:href="#DejaVuSans-53"/>
      <use transform="translate(415.849609 39.046875)scale(0.7)" xlink:href="#DejaVuSans-32"/>
     </g>
    </g>
    <g id="line2d_19">
     <path d="M 65.175 56.920312 
L 85.175 56.920312 
" style="fill:none;stroke:#0000ff;stroke-dasharray:5.55,2.4;stroke-dashoffset:0;stroke-width:1.5;"/>
    </g>
    <g id="line2d_20"/>
    <g id="text_8">
     <!-- LC-MS$^2$Struct (2D) -->
     <g transform="translate(93.175 60.420312)scale(0.1 -0.1)">
      <defs>
       <path d="M 628 4666 
L 1259 4666 
L 1259 531 
L 3531 531 
L 3531 0 
L 628 0 
L 628 4666 
z
" id="DejaVuSans-4c" transform="scale(0.015625)"/>
       <path d="M 4122 4306 
L 4122 3641 
Q 3803 3938 3442 4084 
Q 3081 4231 2675 4231 
Q 1875 4231 1450 3742 
Q 1025 3253 1025 2328 
Q 1025 1406 1450 917 
Q 1875 428 2675 428 
Q 3081 428 3442 575 
Q 3803 722 4122 1019 
L 4122 359 
Q 3791 134 3420 21 
Q 3050 -91 2638 -91 
Q 1578 -91 968 557 
Q 359 1206 359 2328 
Q 359 3453 968 4101 
Q 1578 4750 2638 4750 
Q 3056 4750 3426 4639 
Q 3797 4528 4122 4306 
z
" id="DejaVuSans-43" transform="scale(0.015625)"/>
       <path d="M 1172 4494 
L 1172 3500 
L 2356 3500 
L 2356 3053 
L 1172 3053 
L 1172 1153 
Q 1172 725 1289 603 
Q 1406 481 1766 481 
L 2356 481 
L 2356 0 
L 1766 0 
Q 1100 0 847 248 
Q 594 497 594 1153 
L 594 3053 
L 172 3053 
L 172 3500 
L 594 3500 
L 594 4494 
L 1172 4494 
z
" id="DejaVuSans-74" transform="scale(0.015625)"/>
       <path d="M 1259 4147 
L 1259 519 
L 2022 519 
Q 2988 519 3436 956 
Q 3884 1394 3884 2338 
Q 3884 3275 3436 3711 
Q 2988 4147 2022 4147 
L 1259 4147 
z
M 628 4666 
L 1925 4666 
Q 3281 4666 3915 4102 
Q 4550 3538 4550 2338 
Q 4550 1131 3912 565 
Q 3275 0 1925 0 
L 628 0 
L 628 4666 
z
" id="DejaVuSans-44" transform="scale(0.015625)"/>
      </defs>
      <use transform="translate(0 0.765625)" xlink:href="#DejaVuSans-4c"/>
      <use transform="translate(55.712891 0.765625)" xlink:href="#DejaVuSans-43"/>
      <use transform="translate(125.537109 0.765625)" xlink:href="#DejaVuSans-2d"/>
      <use transform="translate(161.621094 0.765625)" xlink:href="#DejaVuSans-4d"/>
      <use transform="translate(247.900391 0.765625)" xlink:href="#DejaVuSans-53"/>
      <use transform="translate(312.333984 39.046875)scale(0.7)" xlink:href="#DejaVuSans-32"/>
      <use transform="translate(359.604492 0.765625)" xlink:href="#DejaVuSans-53"/>
      <use transform="translate(423.081055 0.765625)" xlink:href="#DejaVuSans-74"/>
      <use transform="translate(462.290039 0.765625)" xlink:href="#DejaVuSans-72"/>
      <use transform="translate(503.40332 0.765625)" xlink:href="#DejaVuSans-75"/>
      <use transform="translate(566.782227 0.765625)" xlink:href="#DejaVuSans-63"/>
      <use transform="translate(621.762695 0.765625)" xlink:href="#DejaVuSans-74"/>
      <use transform="translate(660.97168 0.765625)" xlink:href="#DejaVuSans-20"/>
      <use transform="translate(692.758789 0.765625)" xlink:href="#DejaVuSans-28"/>
      <use transform="translate(731.772461 0.765625)" xlink:href="#DejaVuSans-32"/>
      <use transform="translate(795.395508 0.765625)" xlink:href="#DejaVuSans-44"/>
      <use transform="translate(872.397461 0.765625)" xlink:href="#DejaVuSans-29"/>
     </g>
    </g>
    <g id="line2d_21">
     <path d="M 65.175 72.420312 
L 85.175 72.420312 
" style="fill:none;stroke:#0000ff;stroke-dasharray:1.5,2.475;stroke-dashoffset:0;stroke-width:1.5;"/>
    </g>
    <g id="line2d_22"/>
    <g id="text_9">
     <!-- LC-MS$^2$Struct (3D) -->
     <g transform="translate(93.175 75.920312)scale(0.1 -0.1)">
      <use transform="translate(0 0.765625)" xlink:href="#DejaVuSans-4c"/>
      <use transform="translate(55.712891 0.765625)" xlink:href="#DejaVuSans-43"/>
      <use transform="translate(125.537109 0.765625)" xlink:href="#DejaVuSans-2d"/>
      <use transform="translate(161.621094 0.765625)" xlink:href="#DejaVuSans-4d"/>
      <use transform="translate(247.900391 0.765625)" xlink:href="#DejaVuSans-53"/>
      <use transform="translate(312.333984 39.046875)scale(0.7)" xlink:href="#DejaVuSans-32"/>
      <use transform="translate(359.604492 0.765625)" xlink:href="#DejaVuSans-53"/>
      <use transform="translate(423.081055 0.765625)" xlink:href="#DejaVuSans-74"/>
      <use transform="translate(462.290039 0.765625)" xlink:href="#DejaVuSans-72"/>
      <use transform="translate(503.40332 0.765625)" xlink:href="#DejaVuSans-75"/>
      <use transform="translate(566.782227 0.765625)" xlink:href="#DejaVuSans-63"/>
      <use transform="translate(621.762695 0.765625)" xlink:href="#DejaVuSans-74"/>
      <use transform="translate(660.97168 0.765625)" xlink:href="#DejaVuSans-20"/>
      <use transform="translate(692.758789 0.765625)" xlink:href="#DejaVuSans-28"/>
      <use transform="translate(731.772461 0.765625)" xlink:href="#DejaVuSans-33"/>
      <use transform="translate(790.895508 0.765625)" xlink:href="#DejaVuSans-44"/>
      <use transform="translate(867.897461 0.765625)" xlink:href="#DejaVuSans-29"/>
     </g>
    </g>
   </g>
  </g>
  <g id="axes_2">
   <g id="patch_8">
    <path d="M 368.033333 192.35 
L 649.341667 192.35 
L 649.341667 26.8 
L 368.033333 26.8 
z
" style="fill:#ffffff;"/>
   </g>
   <g id="matplotlib.axis_3">
    <g id="xtick_6">
     <g id="line2d_23">
      <g>
       <use style="stroke:#000000;stroke-width:0.8;" x="380.820076" xlink:href="#m2b9ed5eb93" y="192.35"/>
      </g>
     </g>
    </g>
    <g id="xtick_7">
     <g id="line2d_24">
      <g>
       <use style="stroke:#000000;stroke-width:0.8;" x="434.658991" xlink:href="#m2b9ed5eb93" y="192.35"/>
      </g>
     </g>
    </g>
    <g id="xtick_8">
     <g id="line2d_25">
      <g>
       <use style="stroke:#000000;stroke-width:0.8;" x="501.957636" xlink:href="#m2b9ed5eb93" y="192.35"/>
      </g>
     </g>
    </g>
    <g id="xtick_9">
     <g id="line2d_26">
      <g>
       <use style="stroke:#000000;stroke-width:0.8;" x="569.25628" xlink:href="#m2b9ed5eb93" y="192.35"/>
      </g>
     </g>
    </g>
    <g id="xtick_10">
     <g id="line2d_27">
      <g>
       <use style="stroke:#000000;stroke-width:0.8;" x="636.554924" xlink:href="#m2b9ed5eb93" y="192.35"/>
      </g>
     </g>
    </g>
   </g>
   <g id="matplotlib.axis_4">
    <g id="ytick_5">
     <g id="line2d_28">
      <path clip-path="url(#p123ba90ff9)" d="M 368.033333 162.645352 
L 649.341667 162.645352 
" style="fill:none;stroke:#b0b0b0;stroke-linecap:square;stroke-width:0.8;"/>
     </g>
     <g id="line2d_29">
      <g>
       <use style="stroke:#000000;stroke-width:0.8;" x="368.033333" xlink:href="#m34ab636571" y="162.645352"/>
      </g>
     </g>
     <g id="text_10">
      <!-- 10 -->
      <g transform="translate(348.308333 166.444571)scale(0.1 -0.1)">
       <use xlink:href="#DejaVuSans-31"/>
       <use x="63.623047" xlink:href="#DejaVuSans-30"/>
      </g>
     </g>
    </g>
    <g id="ytick_6">
     <g id="line2d_30">
      <path clip-path="url(#p123ba90ff9)" d="M 368.033333 125.735022 
L 649.341667 125.735022 
" style="fill:none;stroke:#b0b0b0;stroke-linecap:square;stroke-width:0.8;"/>
     </g>
     <g id="line2d_31">
      <g>
       <use style="stroke:#000000;stroke-width:0.8;" x="368.033333" xlink:href="#m34ab636571" y="125.735022"/>
      </g>
     </g>
     <g id="text_11">
      <!-- 20 -->
      <g transform="translate(348.308333 129.53424)scale(0.1 -0.1)">
       <use xlink:href="#DejaVuSans-32"/>
       <use x="63.623047" xlink:href="#DejaVuSans-30"/>
      </g>
     </g>
    </g>
    <g id="ytick_7">
     <g id="line2d_32">
      <path clip-path="url(#p123ba90ff9)" d="M 368.033333 88.824691 
L 649.341667 88.824691 
" style="fill:none;stroke:#b0b0b0;stroke-linecap:square;stroke-width:0.8;"/>
     </g>
     <g id="line2d_33">
      <g>
       <use style="stroke:#000000;stroke-width:0.8;" x="368.033333" xlink:href="#m34ab636571" y="88.824691"/>
      </g>
     </g>
     <g id="text_12">
      <!-- 30 -->
      <g transform="translate(348.308333 92.62391)scale(0.1 -0.1)">
       <use xlink:href="#DejaVuSans-33"/>
       <use x="63.623047" xlink:href="#DejaVuSans-30"/>
      </g>
     </g>
    </g>
    <g id="ytick_8">
     <g id="line2d_34">
      <path clip-path="url(#p123ba90ff9)" d="M 368.033333 51.914361 
L 649.341667 51.914361 
" style="fill:none;stroke:#b0b0b0;stroke-linecap:square;stroke-width:0.8;"/>
     </g>
     <g id="line2d_35">
      <g>
       <use style="stroke:#000000;stroke-width:0.8;" x="368.033333" xlink:href="#m34ab636571" y="51.914361"/>
      </g>
     </g>
     <g id="text_13">
      <!-- 40 -->
      <g transform="translate(348.308333 55.71358)scale(0.1 -0.1)">
       <use xlink:href="#DejaVuSans-34"/>
       <use x="63.623047" xlink:href="#DejaVuSans-30"/>
      </g>
     </g>
    </g>
   </g>
   <g id="line2d_36">
    <path clip-path="url(#p123ba90ff9)" d="M 380.820076 184.825 
L 394.279805 184.825 
L 394.279805 172.0532 
L 407.739533 172.0532 
L 407.739533 160.591872 
L 421.199262 160.591872 
L 421.199262 149.192958 
L 434.658991 149.192958 
L 434.658991 139.709704 
L 448.11872 139.709704 
L 448.11872 130.901409 
L 461.578449 130.901409 
L 461.578449 123.368303 
L 475.038178 123.368303 
L 475.038178 116.692156 
L 488.497907 116.692156 
L 488.497907 110.543408 
L 501.957636 110.543408 
L 501.957636 104.675396 
L 515.417364 104.675396 
L 515.417364 99.807138 
L 528.877093 99.807138 
L 528.877093 94.699671 
L 542.336822 94.699671 
L 542.336822 89.348584 
L 555.796551 89.348584 
L 555.796551 83.889101 
L 569.25628 83.889101 
L 569.25628 79.332011 
L 582.716009 79.332011 
L 582.716009 74.957952 
L 596.175738 74.957952 
L 596.175738 71.071162 
L 609.635467 71.071162 
L 609.635467 67.398846 
L 623.095195 67.398846 
L 623.095195 63.999443 
L 636.554924 63.999443 
L 636.554924 60.849755 
" style="fill:none;stroke:#000000;stroke-linecap:square;stroke-width:1.5;"/>
   </g>
   <g id="line2d_37">
    <path clip-path="url(#p123ba90ff9)" d="M 380.820076 183.696146 
L 394.279805 183.696146 
L 394.279805 169.853982 
L 407.739533 169.853982 
L 407.739533 156.940075 
L 421.199262 156.940075 
L 421.199262 146.963099 
L 434.658991 146.963099 
L 434.658991 137.008979 
L 448.11872 137.008979 
L 448.11872 127.905282 
L 461.578449 127.905282 
L 461.578449 120.279991 
L 475.038178 120.279991 
L 475.038178 113.324301 
L 488.497907 113.324301 
L 488.497907 107.274601 
L 501.957636 107.274601 
L 501.957636 101.362695 
L 515.417364 101.362695 
L 515.417364 95.175722 
L 528.877093 95.175722 
L 528.877093 89.785203 
L 542.336822 89.785203 
L 542.336822 84.648026 
L 555.796551 84.648026 
L 555.796551 79.652777 
L 569.25628 79.652777 
L 569.25628 75.117409 
L 582.716009 75.117409 
L 582.716009 70.633446 
L 596.175738 70.633446 
L 596.175738 66.69143 
L 609.635467 66.69143 
L 609.635467 63.068382 
L 623.095195 63.068382 
L 623.095195 59.654968 
L 636.554924 59.654968 
L 636.554924 56.545154 
" style="fill:none;stroke:#0000ff;stroke-dasharray:5.55,2.4;stroke-dashoffset:0;stroke-width:1.5;"/>
   </g>
   <g id="line2d_38">
    <path clip-path="url(#p123ba90ff9)" d="M 380.820076 170.703646 
L 394.279805 170.703646 
L 394.279805 151.753521 
L 407.739533 151.753521 
L 407.739533 137.248626 
L 421.199262 137.248626 
L 421.199262 127.316021 
L 434.658991 127.316021 
L 434.658991 119.255524 
L 448.11872 119.255524 
L 448.11872 110.674538 
L 461.578449 110.674538 
L 461.578449 101.012446 
L 475.038178 101.012446 
L 475.038178 94.085536 
L 488.497907 94.085536 
L 488.497907 87.784326 
L 501.957636 87.784326 
L 501.957636 80.835803 
L 515.417364 80.835803 
L 515.417364 74.096919 
L 528.877093 74.096919 
L 528.877093 67.969161 
L 542.336822 67.969161 
L 542.336822 63.279536 
L 555.796551 63.279536 
L 555.796551 57.916249 
L 569.25628 57.916249 
L 569.25628 53.569614 
L 582.716009 53.569614 
L 582.716009 49.117976 
L 596.175738 49.117976 
L 596.175738 45.796175 
L 609.635467 45.796175 
L 609.635467 42.221128 
L 623.095195 42.221128 
L 623.095195 38.327231 
L 636.554924 38.327231 
L 636.554924 34.325 
" style="fill:none;stroke:#0000ff;stroke-dasharray:1.5,2.475;stroke-dashoffset:0;stroke-width:1.5;"/>
   </g>
   <g id="patch_9">
    <path d="M 368.033333 192.35 
L 368.033333 26.8 
" style="fill:none;stroke:#000000;stroke-linecap:square;stroke-linejoin:miter;stroke-width:0.8;"/>
   </g>
   <g id="patch_10">
    <path d="M 649.341667 192.35 
L 649.341667 26.8 
" style="fill:none;stroke:#000000;stroke-linecap:square;stroke-linejoin:miter;stroke-width:0.8;"/>
   </g>
   <g id="patch_11">
    <path d="M 368.033333 192.35 
L 649.341667 192.35 
" style="fill:none;stroke:#000000;stroke-linecap:square;stroke-linejoin:miter;stroke-width:0.8;"/>
   </g>
   <g id="patch_12">
    <path d="M 368.033333 26.8 
L 649.341667 26.8 
" style="fill:none;stroke:#000000;stroke-linecap:square;stroke-linejoin:miter;stroke-width:0.8;"/>
   </g>
   <g id="text_14">
    <!-- MetFrag -->
    <g transform="translate(480.760312 20.8)scale(0.12 -0.12)">
     <defs>
      <path d="M 4031 1759 
L 4031 1441 
L 1416 1441 
Q 1456 1047 1700 850 
Q 1944 653 2381 653 
Q 2734 653 3104 758 
Q 3475 863 3866 1075 
L 3866 213 
Q 3469 63 3072 -14 
Q 2675 -91 2278 -91 
Q 1328 -91 801 392 
Q 275 875 275 1747 
Q 275 2603 792 3093 
Q 1309 3584 2216 3584 
Q 3041 3584 3536 3087 
Q 4031 2591 4031 1759 
z
M 2881 2131 
Q 2881 2450 2695 2645 
Q 2509 2841 2209 2841 
Q 1884 2841 1681 2658 
Q 1478 2475 1428 2131 
L 2881 2131 
z
" id="DejaVuSans-Bold-65" transform="scale(0.015625)"/>
      <path d="M 1759 4494 
L 1759 3500 
L 2913 3500 
L 2913 2700 
L 1759 2700 
L 1759 1216 
Q 1759 972 1856 886 
Q 1953 800 2241 800 
L 2816 800 
L 2816 0 
L 1856 0 
Q 1194 0 917 276 
Q 641 553 641 1216 
L 641 2700 
L 84 2700 
L 84 3500 
L 641 3500 
L 641 4494 
L 1759 4494 
z
" id="DejaVuSans-Bold-74" transform="scale(0.015625)"/>
      <path d="M 3138 2547 
Q 2991 2616 2845 2648 
Q 2700 2681 2553 2681 
Q 2122 2681 1889 2404 
Q 1656 2128 1656 1613 
L 1656 0 
L 538 0 
L 538 3500 
L 1656 3500 
L 1656 2925 
Q 1872 3269 2151 3426 
Q 2431 3584 2822 3584 
Q 2878 3584 2943 3579 
Q 3009 3575 3134 3559 
L 3138 2547 
z
" id="DejaVuSans-Bold-72" transform="scale(0.015625)"/>
      <path d="M 2106 1575 
Q 1756 1575 1579 1456 
Q 1403 1338 1403 1106 
Q 1403 894 1545 773 
Q 1688 653 1941 653 
Q 2256 653 2472 879 
Q 2688 1106 2688 1447 
L 2688 1575 
L 2106 1575 
z
M 3816 1997 
L 3816 0 
L 2688 0 
L 2688 519 
Q 2463 200 2181 54 
Q 1900 -91 1497 -91 
Q 953 -91 614 226 
Q 275 544 275 1050 
Q 275 1666 698 1953 
Q 1122 2241 2028 2241 
L 2688 2241 
L 2688 2328 
Q 2688 2594 2478 2717 
Q 2269 2841 1825 2841 
Q 1466 2841 1156 2769 
Q 847 2697 581 2553 
L 581 3406 
Q 941 3494 1303 3539 
Q 1666 3584 2028 3584 
Q 2975 3584 3395 3211 
Q 3816 2838 3816 1997 
z
" id="DejaVuSans-Bold-61" transform="scale(0.015625)"/>
      <path d="M 2919 594 
Q 2688 288 2409 144 
Q 2131 0 1766 0 
Q 1125 0 706 504 
Q 288 1009 288 1791 
Q 288 2575 706 3076 
Q 1125 3578 1766 3578 
Q 2131 3578 2409 3434 
Q 2688 3291 2919 2981 
L 2919 3500 
L 4044 3500 
L 4044 353 
Q 4044 -491 3511 -936 
Q 2978 -1381 1966 -1381 
Q 1638 -1381 1331 -1331 
Q 1025 -1281 716 -1178 
L 716 -306 
Q 1009 -475 1290 -558 
Q 1572 -641 1856 -641 
Q 2406 -641 2662 -400 
Q 2919 -159 2919 353 
L 2919 594 
z
M 2181 2772 
Q 1834 2772 1640 2515 
Q 1447 2259 1447 1791 
Q 1447 1309 1634 1061 
Q 1822 813 2181 813 
Q 2531 813 2725 1069 
Q 2919 1325 2919 1791 
Q 2919 2259 2725 2515 
Q 2531 2772 2181 2772 
z
" id="DejaVuSans-Bold-67" transform="scale(0.015625)"/>
     </defs>
     <use xlink:href="#DejaVuSans-Bold-4d"/>
     <use x="99.511719" xlink:href="#DejaVuSans-Bold-65"/>
     <use x="167.333984" xlink:href="#DejaVuSans-Bold-74"/>
     <use x="215.136719" xlink:href="#DejaVuSans-Bold-46"/>
     <use x="277.072266" xlink:href="#DejaVuSans-Bold-72"/>
     <use x="326.388672" xlink:href="#DejaVuSans-Bold-61"/>
     <use x="393.869141" xlink:href="#DejaVuSans-Bold-67"/>
    </g>
   </g>
  </g>
  <g id="axes_3">
   <g id="patch_13">
    <path d="M 679.891667 192.35 
L 961.2 192.35 
L 961.2 26.8 
L 679.891667 26.8 
z
" style="fill:#ffffff;"/>
   </g>
   <g id="matplotlib.axis_5">
    <g id="xtick_11">
     <g id="line2d_39">
      <g>
       <use style="stroke:#000000;stroke-width:0.8;" x="692.678409" xlink:href="#m2b9ed5eb93" y="192.35"/>
      </g>
     </g>
    </g>
    <g id="xtick_12">
     <g id="line2d_40">
      <g>
       <use style="stroke:#000000;stroke-width:0.8;" x="746.517325" xlink:href="#m2b9ed5eb93" y="192.35"/>
      </g>
     </g>
    </g>
    <g id="xtick_13">
     <g id="line2d_41">
      <g>
       <use style="stroke:#000000;stroke-width:0.8;" x="813.815969" xlink:href="#m2b9ed5eb93" y="192.35"/>
      </g>
     </g>
    </g>
    <g id="xtick_14">
     <g id="line2d_42">
      <g>
       <use style="stroke:#000000;stroke-width:0.8;" x="881.114613" xlink:href="#m2b9ed5eb93" y="192.35"/>
      </g>
     </g>
    </g>
    <g id="xtick_15">
     <g id="line2d_43">
      <g>
       <use style="stroke:#000000;stroke-width:0.8;" x="948.413258" xlink:href="#m2b9ed5eb93" y="192.35"/>
      </g>
     </g>
    </g>
   </g>
   <g id="matplotlib.axis_6">
    <g id="ytick_9">
     <g id="line2d_44">
      <path clip-path="url(#pb6dfab0ad6)" d="M 679.891667 176.975725 
L 961.2 176.975725 
" style="fill:none;stroke:#b0b0b0;stroke-linecap:square;stroke-width:0.8;"/>
     </g>
     <g id="line2d_45">
      <g>
       <use style="stroke:#000000;stroke-width:0.8;" x="679.891667" xlink:href="#m34ab636571" y="176.975725"/>
      </g>
     </g>
     <g id="text_15">
      <!-- 10 -->
      <g transform="translate(660.166667 180.774944)scale(0.1 -0.1)">
       <use xlink:href="#DejaVuSans-31"/>
       <use x="63.623047" xlink:href="#DejaVuSans-30"/>
      </g>
     </g>
    </g>
    <g id="ytick_10">
     <g id="line2d_46">
      <path clip-path="url(#pb6dfab0ad6)" d="M 679.891667 147.699965 
L 961.2 147.699965 
" style="fill:none;stroke:#b0b0b0;stroke-linecap:square;stroke-width:0.8;"/>
     </g>
     <g id="line2d_47">
      <g>
       <use style="stroke:#000000;stroke-width:0.8;" x="679.891667" xlink:href="#m34ab636571" y="147.699965"/>
      </g>
     </g>
     <g id="text_16">
      <!-- 20 -->
      <g transform="translate(660.166667 151.499183)scale(0.1 -0.1)">
       <use xlink:href="#DejaVuSans-32"/>
       <use x="63.623047" xlink:href="#DejaVuSans-30"/>
      </g>
     </g>
    </g>
    <g id="ytick_11">
     <g id="line2d_48">
      <path clip-path="url(#pb6dfab0ad6)" d="M 679.891667 118.424205 
L 961.2 118.424205 
" style="fill:none;stroke:#b0b0b0;stroke-linecap:square;stroke-width:0.8;"/>
     </g>
     <g id="line2d_49">
      <g>
       <use style="stroke:#000000;stroke-width:0.8;" x="679.891667" xlink:href="#m34ab636571" y="118.424205"/>
      </g>
     </g>
     <g id="text_17">
      <!-- 30 -->
      <g transform="translate(660.166667 122.223423)scale(0.1 -0.1)">
       <use xlink:href="#DejaVuSans-33"/>
       <use x="63.623047" xlink:href="#DejaVuSans-30"/>
      </g>
     </g>
    </g>
    <g id="ytick_12">
     <g id="line2d_50">
      <path clip-path="url(#pb6dfab0ad6)" d="M 679.891667 89.148445 
L 961.2 89.148445 
" style="fill:none;stroke:#b0b0b0;stroke-linecap:square;stroke-width:0.8;"/>
     </g>
     <g id="line2d_51">
      <g>
       <use style="stroke:#000000;stroke-width:0.8;" x="679.891667" xlink:href="#m34ab636571" y="89.148445"/>
      </g>
     </g>
     <g id="text_18">
      <!-- 40 -->
      <g transform="translate(660.166667 92.947663)scale(0.1 -0.1)">
       <use xlink:href="#DejaVuSans-34"/>
       <use x="63.623047" xlink:href="#DejaVuSans-30"/>
      </g>
     </g>
    </g>
    <g id="ytick_13">
     <g id="line2d_52">
      <path clip-path="url(#pb6dfab0ad6)" d="M 679.891667 59.872685 
L 961.2 59.872685 
" style="fill:none;stroke:#b0b0b0;stroke-linecap:square;stroke-width:0.8;"/>
     </g>
     <g id="line2d_53">
      <g>
       <use style="stroke:#000000;stroke-width:0.8;" x="679.891667" xlink:href="#m34ab636571" y="59.872685"/>
      </g>
     </g>
     <g id="text_19">
      <!-- 50 -->
      <g transform="translate(660.166667 63.671903)scale(0.1 -0.1)">
       <defs>
        <path d="M 691 4666 
L 3169 4666 
L 3169 4134 
L 1269 4134 
L 1269 2991 
Q 1406 3038 1543 3061 
Q 1681 3084 1819 3084 
Q 2600 3084 3056 2656 
Q 3513 2228 3513 1497 
Q 3513 744 3044 326 
Q 2575 -91 1722 -91 
Q 1428 -91 1123 -41 
Q 819 9 494 109 
L 494 744 
Q 775 591 1075 516 
Q 1375 441 1709 441 
Q 2250 441 2565 725 
Q 2881 1009 2881 1497 
Q 2881 1984 2565 2268 
Q 2250 2553 1709 2553 
Q 1456 2553 1204 2497 
Q 953 2441 691 2322 
L 691 4666 
z
" id="DejaVuSans-35" transform="scale(0.015625)"/>
       </defs>
       <use xlink:href="#DejaVuSans-35"/>
       <use x="63.623047" xlink:href="#DejaVuSans-30"/>
      </g>
     </g>
    </g>
    <g id="ytick_14">
     <g id="line2d_54">
      <path clip-path="url(#pb6dfab0ad6)" d="M 679.891667 30.596925 
L 961.2 30.596925 
" style="fill:none;stroke:#b0b0b0;stroke-linecap:square;stroke-width:0.8;"/>
     </g>
     <g id="line2d_55">
      <g>
       <use style="stroke:#000000;stroke-width:0.8;" x="679.891667" xlink:href="#m34ab636571" y="30.596925"/>
      </g>
     </g>
     <g id="text_20">
      <!-- 60 -->
      <g transform="translate(660.166667 34.396143)scale(0.1 -0.1)">
       <defs>
        <path d="M 2113 2584 
Q 1688 2584 1439 2293 
Q 1191 2003 1191 1497 
Q 1191 994 1439 701 
Q 1688 409 2113 409 
Q 2538 409 2786 701 
Q 3034 994 3034 1497 
Q 3034 2003 2786 2293 
Q 2538 2584 2113 2584 
z
M 3366 4563 
L 3366 3988 
Q 3128 4100 2886 4159 
Q 2644 4219 2406 4219 
Q 1781 4219 1451 3797 
Q 1122 3375 1075 2522 
Q 1259 2794 1537 2939 
Q 1816 3084 2150 3084 
Q 2853 3084 3261 2657 
Q 3669 2231 3669 1497 
Q 3669 778 3244 343 
Q 2819 -91 2113 -91 
Q 1303 -91 875 529 
Q 447 1150 447 2328 
Q 447 3434 972 4092 
Q 1497 4750 2381 4750 
Q 2619 4750 2861 4703 
Q 3103 4656 3366 4563 
z
" id="DejaVuSans-36" transform="scale(0.015625)"/>
       </defs>
       <use xlink:href="#DejaVuSans-36"/>
       <use x="63.623047" xlink:href="#DejaVuSans-30"/>
      </g>
     </g>
    </g>
   </g>
   <g id="line2d_56">
    <path clip-path="url(#pb6dfab0ad6)" d="M 692.678409 184.825 
L 706.138138 184.825 
L 706.138138 166.162212 
L 719.597867 166.162212 
L 719.597867 149.526748 
L 733.057596 149.526748 
L 733.057596 138.65802 
L 746.517325 138.65802 
L 746.517325 128.39173 
L 759.977053 128.39173 
L 759.977053 119.949916 
L 773.436782 119.949916 
L 773.436782 113.129145 
L 786.896511 113.129145 
L 786.896511 106.378532 
L 800.35624 106.378532 
L 800.35624 100.24509 
L 813.815969 100.24509 
L 813.815969 94.310379 
L 827.275698 94.310379 
L 827.275698 88.134423 
L 840.735427 88.134423 
L 840.735427 82.703356 
L 854.195156 82.703356 
L 854.195156 77.653062 
L 867.654884 77.653062 
L 867.654884 73.249656 
L 881.114613 73.249656 
L 881.114613 68.867629 
L 894.574342 68.867629 
L 894.574342 63.981559 
L 908.034071 63.981559 
L 908.034071 59.372372 
L 921.4938 59.372372 
L 921.4938 55.428076 
L 934.953529 55.428076 
L 934.953529 51.397211 
L 948.413258 51.397211 
L 948.413258 47.758407 
" style="fill:none;stroke:#000000;stroke-linecap:square;stroke-width:1.5;"/>
   </g>
   <g id="line2d_57">
    <path clip-path="url(#pb6dfab0ad6)" d="M 692.678409 184.609956 
L 706.138138 184.609956 
L 706.138138 165.787566 
L 719.597867 165.787566 
L 719.597867 148.82028 
L 733.057596 148.82028 
L 733.057596 137.706645 
L 746.517325 137.706645 
L 746.517325 127.876913 
L 759.977053 127.876913 
L 759.977053 119.737986 
L 773.436782 119.737986 
L 773.436782 112.903343 
L 786.896511 112.903343 
L 786.896511 105.972823 
L 800.35624 105.972823 
L 800.35624 99.834652 
L 813.815969 99.834652 
L 813.815969 93.571846 
L 827.275698 93.571846 
L 827.275698 87.758236 
L 840.735427 87.758236 
L 840.735427 82.458379 
L 854.195156 82.458379 
L 854.195156 77.557978 
L 867.654884 77.557978 
L 867.654884 73.33602 
L 881.114613 73.33602 
L 881.114613 68.947871 
L 894.574342 68.947871 
L 894.574342 64.331009 
L 908.034071 64.331009 
L 908.034071 59.735275 
L 921.4938 59.735275 
L 921.4938 55.495791 
L 934.953529 55.495791 
L 934.953529 51.489648 
L 948.413258 51.489648 
L 948.413258 47.941853 
" style="fill:none;stroke:#0000ff;stroke-dasharray:5.55,2.4;stroke-dashoffset:0;stroke-width:1.5;"/>
   </g>
   <g id="line2d_58">
    <path clip-path="url(#pb6dfab0ad6)" d="M 692.678409 175.335556 
L 706.138138 175.335556 
L 706.138138 149.402904 
L 719.597867 149.402904 
L 719.597867 132.363384 
L 733.057596 132.363384 
L 733.057596 119.038231 
L 746.517325 119.038231 
L 746.517325 107.700979 
L 759.977053 107.700979 
L 759.977053 99.349839 
L 773.436782 99.349839 
L 773.436782 92.067674 
L 786.896511 92.067674 
L 786.896511 85.021604 
L 800.35624 85.021604 
L 800.35624 79.223508 
L 813.815969 79.223508 
L 813.815969 72.509688 
L 827.275698 72.509688 
L 827.275698 67.522159 
L 840.735427 67.522159 
L 840.735427 62.693267 
L 854.195156 62.693267 
L 854.195156 57.903368 
L 867.654884 57.903368 
L 867.654884 53.495049 
L 881.114613 53.495049 
L 881.114613 49.403666 
L 894.574342 49.403666 
L 894.574342 45.956285 
L 908.034071 45.956285 
L 908.034071 42.928565 
L 921.4938 42.928565 
L 921.4938 39.891291 
L 934.953529 39.891291 
L 934.953529 37.323251 
L 948.413258 37.323251 
L 948.413258 34.325 
" style="fill:none;stroke:#0000ff;stroke-dasharray:1.5,2.475;stroke-dashoffset:0;stroke-width:1.5;"/>
   </g>
   <g id="patch_14">
    <path d="M 679.891667 192.35 
L 679.891667 26.8 
" style="fill:none;stroke:#000000;stroke-linecap:square;stroke-linejoin:miter;stroke-width:0.8;"/>
   </g>
   <g id="patch_15">
    <path d="M 961.2 192.35 
L 961.2 26.8 
" style="fill:none;stroke:#000000;stroke-linecap:square;stroke-linejoin:miter;stroke-width:0.8;"/>
   </g>
   <g id="patch_16">
    <path d="M 679.891667 192.35 
L 961.2 192.35 
" style="fill:none;stroke:#000000;stroke-linecap:square;stroke-linejoin:miter;stroke-width:0.8;"/>
   </g>
   <g id="patch_17">
    <path d="M 679.891667 26.8 
L 961.2 26.8 
" style="fill:none;stroke:#000000;stroke-linecap:square;stroke-linejoin:miter;stroke-width:0.8;"/>
   </g>
   <g id="text_21">
    <!-- SIRIUS -->
    <g transform="translate(797.947396 20.8)scale(0.12 -0.12)">
     <defs>
      <path d="M 3834 4519 
L 3834 3531 
Q 3450 3703 3084 3790 
Q 2719 3878 2394 3878 
Q 1963 3878 1756 3759 
Q 1550 3641 1550 3391 
Q 1550 3203 1689 3098 
Q 1828 2994 2194 2919 
L 2706 2816 
Q 3484 2659 3812 2340 
Q 4141 2022 4141 1434 
Q 4141 663 3683 286 
Q 3225 -91 2284 -91 
Q 1841 -91 1394 -6 
Q 947 78 500 244 
L 500 1259 
Q 947 1022 1364 901 
Q 1781 781 2169 781 
Q 2563 781 2772 912 
Q 2981 1044 2981 1288 
Q 2981 1506 2839 1625 
Q 2697 1744 2272 1838 
L 1806 1941 
Q 1106 2091 782 2419 
Q 459 2747 459 3303 
Q 459 4000 909 4375 
Q 1359 4750 2203 4750 
Q 2588 4750 2994 4692 
Q 3400 4634 3834 4519 
z
" id="DejaVuSans-Bold-53" transform="scale(0.015625)"/>
      <path d="M 2297 2597 
Q 2675 2597 2839 2737 
Q 3003 2878 3003 3200 
Q 3003 3519 2839 3656 
Q 2675 3794 2297 3794 
L 1791 3794 
L 1791 2597 
L 2297 2597 
z
M 1791 1766 
L 1791 0 
L 588 0 
L 588 4666 
L 2425 4666 
Q 3347 4666 3776 4356 
Q 4206 4047 4206 3378 
Q 4206 2916 3982 2619 
Q 3759 2322 3309 2181 
Q 3556 2125 3751 1926 
Q 3947 1728 4147 1325 
L 4800 0 
L 3519 0 
L 2950 1159 
Q 2778 1509 2601 1637 
Q 2425 1766 2131 1766 
L 1791 1766 
z
" id="DejaVuSans-Bold-52" transform="scale(0.015625)"/>
      <path d="M 588 4666 
L 1791 4666 
L 1791 1869 
Q 1791 1291 1980 1042 
Q 2169 794 2597 794 
Q 3028 794 3217 1042 
Q 3406 1291 3406 1869 
L 3406 4666 
L 4609 4666 
L 4609 1869 
Q 4609 878 4112 393 
Q 3616 -91 2597 -91 
Q 1581 -91 1084 393 
Q 588 878 588 1869 
L 588 4666 
z
" id="DejaVuSans-Bold-55" transform="scale(0.015625)"/>
     </defs>
     <use xlink:href="#DejaVuSans-Bold-53"/>
     <use x="72.021484" xlink:href="#DejaVuSans-Bold-49"/>
     <use x="109.228516" xlink:href="#DejaVuSans-Bold-52"/>
     <use x="186.230469" xlink:href="#DejaVuSans-Bold-49"/>
     <use x="223.4375" xlink:href="#DejaVuSans-Bold-55"/>
     <use x="304.638672" xlink:href="#DejaVuSans-Bold-53"/>
    </g>
   </g>
  </g>
  <g id="axes_4">
   <g id="patch_18">
    <path d="M 56.175 372.2 
L 337.483333 372.2 
L 337.483333 206.65 
L 56.175 206.65 
z
" style="fill:#ffffff;"/>
   </g>
   <g id="matplotlib.axis_7">
    <g id="xtick_16">
     <g id="line2d_59">
      <g>
       <use style="stroke:#000000;stroke-width:0.8;" x="68.961742" xlink:href="#m2b9ed5eb93" y="372.2"/>
      </g>
     </g>
     <g id="text_22">
      <!-- 1 -->
      <g transform="translate(65.780492 386.798437)scale(0.1 -0.1)">
       <use xlink:href="#DejaVuSans-31"/>
      </g>
     </g>
    </g>
    <g id="xtick_17">
     <g id="line2d_60">
      <g>
       <use style="stroke:#000000;stroke-width:0.8;" x="122.800658" xlink:href="#m2b9ed5eb93" y="372.2"/>
      </g>
     </g>
     <g id="text_23">
      <!-- 5 -->
      <g transform="translate(119.619408 386.798437)scale(0.1 -0.1)">
       <use xlink:href="#DejaVuSans-35"/>
      </g>
     </g>
    </g>
    <g id="xtick_18">
     <g id="line2d_61">
      <g>
       <use style="stroke:#000000;stroke-width:0.8;" x="190.099302" xlink:href="#m2b9ed5eb93" y="372.2"/>
      </g>
     </g>
     <g id="text_24">
      <!-- 10 -->
      <g transform="translate(183.736802 386.798437)scale(0.1 -0.1)">
       <use xlink:href="#DejaVuSans-31"/>
       <use x="63.623047" xlink:href="#DejaVuSans-30"/>
      </g>
     </g>
    </g>
    <g id="xtick_19">
     <g id="line2d_62">
      <g>
       <use style="stroke:#000000;stroke-width:0.8;" x="257.397947" xlink:href="#m2b9ed5eb93" y="372.2"/>
      </g>
     </g>
     <g id="text_25">
      <!-- 15 -->
      <g transform="translate(251.035447 386.798437)scale(0.1 -0.1)">
       <use xlink:href="#DejaVuSans-31"/>
       <use x="63.623047" xlink:href="#DejaVuSans-35"/>
      </g>
     </g>
    </g>
    <g id="xtick_20">
     <g id="line2d_63">
      <g>
       <use style="stroke:#000000;stroke-width:0.8;" x="324.696591" xlink:href="#m2b9ed5eb93" y="372.2"/>
      </g>
     </g>
     <g id="text_26">
      <!-- 20 -->
      <g transform="translate(318.334091 386.798437)scale(0.1 -0.1)">
       <use xlink:href="#DejaVuSans-32"/>
       <use x="63.623047" xlink:href="#DejaVuSans-30"/>
      </g>
     </g>
    </g>
    <g id="text_27">
     <!-- k -->
     <g transform="translate(193.933854 400.476562)scale(0.1 -0.1)">
      <use xlink:href="#DejaVuSans-6b"/>
     </g>
    </g>
   </g>
   <g id="matplotlib.axis_8">
    <g id="ytick_15">
     <g id="line2d_64">
      <path clip-path="url(#p1a5c7b929f)" d="M 56.175 364.675 
L 337.483333 364.675 
" style="fill:none;stroke:#b0b0b0;stroke-linecap:square;stroke-width:0.8;"/>
     </g>
     <g id="line2d_65">
      <g>
       <use style="stroke:#000000;stroke-width:0.8;" x="56.175" xlink:href="#m34ab636571" y="364.675"/>
      </g>
     </g>
     <g id="text_28">
      <!-- 0 -->
      <g transform="translate(42.8125 368.474219)scale(0.1 -0.1)">
       <use xlink:href="#DejaVuSans-30"/>
      </g>
     </g>
    </g>
    <g id="ytick_16">
     <g id="line2d_66">
      <path clip-path="url(#p1a5c7b929f)" d="M 56.175 331.905256 
L 337.483333 331.905256 
" style="fill:none;stroke:#b0b0b0;stroke-linecap:square;stroke-width:0.8;"/>
     </g>
     <g id="line2d_67">
      <g>
       <use style="stroke:#000000;stroke-width:0.8;" x="56.175" xlink:href="#m34ab636571" y="331.905256"/>
      </g>
     </g>
     <g id="text_29">
      <!-- 2 -->
      <g transform="translate(42.8125 335.704475)scale(0.1 -0.1)">
       <use xlink:href="#DejaVuSans-32"/>
      </g>
     </g>
    </g>
    <g id="ytick_17">
     <g id="line2d_68">
      <path clip-path="url(#p1a5c7b929f)" d="M 56.175 299.135513 
L 337.483333 299.135513 
" style="fill:none;stroke:#b0b0b0;stroke-linecap:square;stroke-width:0.8;"/>
     </g>
     <g id="line2d_69">
      <g>
       <use style="stroke:#000000;stroke-width:0.8;" x="56.175" xlink:href="#m34ab636571" y="299.135513"/>
      </g>
     </g>
     <g id="text_30">
      <!-- 4 -->
      <g transform="translate(42.8125 302.934731)scale(0.1 -0.1)">
       <use xlink:href="#DejaVuSans-34"/>
      </g>
     </g>
    </g>
    <g id="ytick_18">
     <g id="line2d_70">
      <path clip-path="url(#p1a5c7b929f)" d="M 56.175 266.365769 
L 337.483333 266.365769 
" style="fill:none;stroke:#b0b0b0;stroke-linecap:square;stroke-width:0.8;"/>
     </g>
     <g id="line2d_71">
      <g>
       <use style="stroke:#000000;stroke-width:0.8;" x="56.175" xlink:href="#m34ab636571" y="266.365769"/>
      </g>
     </g>
     <g id="text_31">
      <!-- 6 -->
      <g transform="translate(42.8125 270.164988)scale(0.1 -0.1)">
       <use xlink:href="#DejaVuSans-36"/>
      </g>
     </g>
    </g>
    <g id="ytick_19">
     <g id="line2d_72">
      <path clip-path="url(#p1a5c7b929f)" d="M 56.175 233.596025 
L 337.483333 233.596025 
" style="fill:none;stroke:#b0b0b0;stroke-linecap:square;stroke-width:0.8;"/>
     </g>
     <g id="line2d_73">
      <g>
       <use style="stroke:#000000;stroke-width:0.8;" x="56.175" xlink:href="#m34ab636571" y="233.596025"/>
      </g>
     </g>
     <g id="text_32">
      <!-- 8 -->
      <g transform="translate(42.8125 237.395244)scale(0.1 -0.1)">
       <defs>
        <path d="M 2034 2216 
Q 1584 2216 1326 1975 
Q 1069 1734 1069 1313 
Q 1069 891 1326 650 
Q 1584 409 2034 409 
Q 2484 409 2743 651 
Q 3003 894 3003 1313 
Q 3003 1734 2745 1975 
Q 2488 2216 2034 2216 
z
M 1403 2484 
Q 997 2584 770 2862 
Q 544 3141 544 3541 
Q 544 4100 942 4425 
Q 1341 4750 2034 4750 
Q 2731 4750 3128 4425 
Q 3525 4100 3525 3541 
Q 3525 3141 3298 2862 
Q 3072 2584 2669 2484 
Q 3125 2378 3379 2068 
Q 3634 1759 3634 1313 
Q 3634 634 3220 271 
Q 2806 -91 2034 -91 
Q 1263 -91 848 271 
Q 434 634 434 1313 
Q 434 1759 690 2068 
Q 947 2378 1403 2484 
z
M 1172 3481 
Q 1172 3119 1398 2916 
Q 1625 2713 2034 2713 
Q 2441 2713 2670 2916 
Q 2900 3119 2900 3481 
Q 2900 3844 2670 4047 
Q 2441 4250 2034 4250 
Q 1625 4250 1398 4047 
Q 1172 3844 1172 3481 
z
" id="DejaVuSans-38" transform="scale(0.015625)"/>
       </defs>
       <use xlink:href="#DejaVuSans-38"/>
      </g>
     </g>
    </g>
    <g id="text_33">
     <!-- Top-k accuracy -->
     <g transform="translate(22.8795 334.167187)rotate(-90)scale(0.12 -0.12)">
      <use xlink:href="#DejaVuSans-54"/>
      <use x="44.083984" xlink:href="#DejaVuSans-6f"/>
      <use x="105.265625" xlink:href="#DejaVuSans-70"/>
      <use x="168.742188" xlink:href="#DejaVuSans-2d"/>
      <use x="204.826172" xlink:href="#DejaVuSans-6b"/>
      <use x="262.736328" xlink:href="#DejaVuSans-20"/>
      <use x="294.523438" xlink:href="#DejaVuSans-61"/>
      <use x="355.802734" xlink:href="#DejaVuSans-63"/>
      <use x="410.783203" xlink:href="#DejaVuSans-63"/>
      <use x="465.763672" xlink:href="#DejaVuSans-75"/>
      <use x="529.142578" xlink:href="#DejaVuSans-72"/>
      <use x="570.255859" xlink:href="#DejaVuSans-61"/>
      <use x="631.535156" xlink:href="#DejaVuSans-63"/>
      <use x="686.515625" xlink:href="#DejaVuSans-79"/>
     </g>
     <!-- improvement (%p) -->
     <g transform="translate(36.316875 345.780937)rotate(-90)scale(0.12 -0.12)">
      <defs>
       <path d="M 603 3500 
L 1178 3500 
L 1178 0 
L 603 0 
L 603 3500 
z
M 603 4863 
L 1178 4863 
L 1178 4134 
L 603 4134 
L 603 4863 
z
" id="DejaVuSans-69" transform="scale(0.015625)"/>
       <path d="M 3328 2828 
Q 3544 3216 3844 3400 
Q 4144 3584 4550 3584 
Q 5097 3584 5394 3201 
Q 5691 2819 5691 2113 
L 5691 0 
L 5113 0 
L 5113 2094 
Q 5113 2597 4934 2840 
Q 4756 3084 4391 3084 
Q 3944 3084 3684 2787 
Q 3425 2491 3425 1978 
L 3425 0 
L 2847 0 
L 2847 2094 
Q 2847 2600 2669 2842 
Q 2491 3084 2119 3084 
Q 1678 3084 1418 2786 
Q 1159 2488 1159 1978 
L 1159 0 
L 581 0 
L 581 3500 
L 1159 3500 
L 1159 2956 
Q 1356 3278 1631 3431 
Q 1906 3584 2284 3584 
Q 2666 3584 2933 3390 
Q 3200 3197 3328 2828 
z
" id="DejaVuSans-6d" transform="scale(0.015625)"/>
       <path d="M 191 3500 
L 800 3500 
L 1894 563 
L 2988 3500 
L 3597 3500 
L 2284 0 
L 1503 0 
L 191 3500 
z
" id="DejaVuSans-76" transform="scale(0.015625)"/>
       <path d="M 3597 1894 
L 3597 1613 
L 953 1613 
Q 991 1019 1311 708 
Q 1631 397 2203 397 
Q 2534 397 2845 478 
Q 3156 559 3463 722 
L 3463 178 
Q 3153 47 2828 -22 
Q 2503 -91 2169 -91 
Q 1331 -91 842 396 
Q 353 884 353 1716 
Q 353 2575 817 3079 
Q 1281 3584 2069 3584 
Q 2775 3584 3186 3129 
Q 3597 2675 3597 1894 
z
M 3022 2063 
Q 3016 2534 2758 2815 
Q 2500 3097 2075 3097 
Q 1594 3097 1305 2825 
Q 1016 2553 972 2059 
L 3022 2063 
z
" id="DejaVuSans-65" transform="scale(0.015625)"/>
      </defs>
      <use xlink:href="#DejaVuSans-69"/>
      <use x="27.783203" xlink:href="#DejaVuSans-6d"/>
      <use x="125.195312" xlink:href="#DejaVuSans-70"/>
      <use x="188.671875" xlink:href="#DejaVuSans-72"/>
      <use x="227.535156" xlink:href="#DejaVuSans-6f"/>
      <use x="288.716797" xlink:href="#DejaVuSans-76"/>
      <use x="347.896484" xlink:href="#DejaVuSans-65"/>
      <use x="409.419922" xlink:href="#DejaVuSans-6d"/>
      <use x="506.832031" xlink:href="#DejaVuSans-65"/>
      <use x="568.355469" xlink:href="#DejaVuSans-6e"/>
      <use x="631.734375" xlink:href="#DejaVuSans-74"/>
      <use x="670.943359" xlink:href="#DejaVuSans-20"/>
      <use x="702.730469" xlink:href="#DejaVuSans-28"/>
      <use x="741.744141" xlink:href="#DejaVuSans-25"/>
      <use x="836.763672" xlink:href="#DejaVuSans-70"/>
      <use x="900.240234" xlink:href="#DejaVuSans-29"/>
     </g>
    </g>
   </g>
   <g id="LineCollection_1">
    <path clip-path="url(#p1a5c7b929f)" d="M 68.961742 364.675 
L 324.696591 364.675 
" style="fill:none;stroke:#000000;stroke-width:1.5;"/>
   </g>
   <g id="line2d_74">
    <path clip-path="url(#p1a5c7b929f)" d="M 68.961742 357.925728 
L 82.421471 357.925728 
L 82.421471 353.317131 
L 95.8812 353.317131 
L 95.8812 351.654509 
L 109.340929 351.654509 
L 109.340929 351.334159 
L 122.800658 351.334159 
L 122.800658 349.192555 
L 136.260387 349.192555 
L 136.260387 349.438414 
L 149.720116 349.438414 
L 149.720116 350.441287 
L 163.179844 350.441287 
L 163.179844 352.696919 
L 176.639573 352.696919 
L 176.639573 351.564708 
L 190.099302 351.564708 
L 190.099302 348.812619 
L 203.559031 348.812619 
L 203.559031 342.572589 
L 217.01876 342.572589 
L 217.01876 335.561428 
L 230.478489 335.561428 
L 230.478489 334.988075 
L 243.938218 334.988075 
L 243.938218 329.683343 
L 257.397947 329.683343 
L 257.397947 322.997337 
L 270.857675 322.997337 
L 270.857675 317.713187 
L 284.317404 317.713187 
L 284.317404 312.977422 
L 297.777133 312.977422 
L 297.777133 307.978416 
L 311.236862 307.978416 
L 311.236862 307.501333 
L 324.696591 307.501333 
L 324.696591 307.410658 
" style="fill:none;stroke:#0000ff;stroke-dasharray:5.55,2.4;stroke-dashoffset:0;stroke-width:1.5;"/>
   </g>
   <g id="line2d_75">
    <path clip-path="url(#p1a5c7b929f)" d="M 68.961742 322.005341 
L 82.421471 322.005341 
L 82.421471 293.513409 
L 95.8812 293.513409 
L 95.8812 282.831823 
L 109.340929 282.831823 
L 109.340929 278.056776 
L 122.800658 278.056776 
L 122.800658 265.766379 
L 136.260387 265.766379 
L 136.260387 261.184766 
L 149.720116 261.184766 
L 149.720116 260.930799 
L 163.179844 260.930799 
L 163.179844 260.629297 
L 176.639573 260.629297 
L 176.639573 260.378493 
L 190.099302 260.378493 
L 190.099302 255.523506 
L 203.559031 255.523506 
L 203.559031 250.847405 
L 217.01876 250.847405 
L 217.01876 237.932843 
L 230.478489 237.932843 
L 230.478489 236.249217 
L 243.938218 236.249217 
L 243.938218 227.294441 
L 257.397947 227.294441 
L 257.397947 219.896397 
L 270.857675 219.896397 
L 270.857675 216.649907 
L 284.317404 216.649907 
L 284.317404 216.532306 
L 297.777133 216.532306 
L 297.777133 217.430862 
L 311.236862 217.430862 
L 311.236862 217.008412 
L 324.696591 217.008412 
L 324.696591 214.175 
" style="fill:none;stroke:#0000ff;stroke-dasharray:1.5,2.475;stroke-dashoffset:0;stroke-width:1.5;"/>
   </g>
   <g id="patch_19">
    <path d="M 56.175 372.2 
L 56.175 206.65 
" style="fill:none;stroke:#000000;stroke-linecap:square;stroke-linejoin:miter;stroke-width:0.8;"/>
   </g>
   <g id="patch_20">
    <path d="M 337.483333 372.2 
L 337.483333 206.65 
" style="fill:none;stroke:#000000;stroke-linecap:square;stroke-linejoin:miter;stroke-width:0.8;"/>
   </g>
   <g id="patch_21">
    <path d="M 56.175 372.2 
L 337.483333 372.2 
" style="fill:none;stroke:#000000;stroke-linecap:square;stroke-linejoin:miter;stroke-width:0.8;"/>
   </g>
   <g id="patch_22">
    <path d="M 56.175 206.65 
L 337.483333 206.65 
" style="fill:none;stroke:#000000;stroke-linecap:square;stroke-linejoin:miter;stroke-width:0.8;"/>
   </g>
  </g>
  <g id="axes_5">
   <g id="patch_23">
    <path d="M 368.033333 372.2 
L 649.341667 372.2 
L 649.341667 206.65 
L 368.033333 206.65 
z
" style="fill:#ffffff;"/>
   </g>
   <g id="matplotlib.axis_9">
    <g id="xtick_21">
     <g id="line2d_76">
      <g>
       <use style="stroke:#000000;stroke-width:0.8;" x="380.820076" xlink:href="#m2b9ed5eb93" y="372.2"/>
      </g>
     </g>
     <g id="text_34">
      <!-- 1 -->
      <g transform="translate(377.638826 386.798437)scale(0.1 -0.1)">
       <use xlink:href="#DejaVuSans-31"/>
      </g>
     </g>
    </g>
    <g id="xtick_22">
     <g id="line2d_77">
      <g>
       <use style="stroke:#000000;stroke-width:0.8;" x="434.658991" xlink:href="#m2b9ed5eb93" y="372.2"/>
      </g>
     </g>
     <g id="text_35">
      <!-- 5 -->
      <g transform="translate(431.477741 386.798437)scale(0.1 -0.1)">
       <use xlink:href="#DejaVuSans-35"/>
      </g>
     </g>
    </g>
    <g id="xtick_23">
     <g id="line2d_78">
      <g>
       <use style="stroke:#000000;stroke-width:0.8;" x="501.957636" xlink:href="#m2b9ed5eb93" y="372.2"/>
      </g>
     </g>
     <g id="text_36">
      <!-- 10 -->
      <g transform="translate(495.595136 386.798437)scale(0.1 -0.1)">
       <use xlink:href="#DejaVuSans-31"/>
       <use x="63.623047" xlink:href="#DejaVuSans-30"/>
      </g>
     </g>
    </g>
    <g id="xtick_24">
     <g id="line2d_79">
      <g>
       <use style="stroke:#000000;stroke-width:0.8;" x="569.25628" xlink:href="#m2b9ed5eb93" y="372.2"/>
      </g>
     </g>
     <g id="text_37">
      <!-- 15 -->
      <g transform="translate(562.89378 386.798437)scale(0.1 -0.1)">
       <use xlink:href="#DejaVuSans-31"/>
       <use x="63.623047" xlink:href="#DejaVuSans-35"/>
      </g>
     </g>
    </g>
    <g id="xtick_25">
     <g id="line2d_80">
      <g>
       <use style="stroke:#000000;stroke-width:0.8;" x="636.554924" xlink:href="#m2b9ed5eb93" y="372.2"/>
      </g>
     </g>
     <g id="text_38">
      <!-- 20 -->
      <g transform="translate(630.192424 386.798437)scale(0.1 -0.1)">
       <use xlink:href="#DejaVuSans-32"/>
       <use x="63.623047" xlink:href="#DejaVuSans-30"/>
      </g>
     </g>
    </g>
    <g id="text_39">
     <!-- k -->
     <g transform="translate(505.792187 400.476562)scale(0.1 -0.1)">
      <use xlink:href="#DejaVuSans-6b"/>
     </g>
    </g>
   </g>
   <g id="matplotlib.axis_10">
    <g id="ytick_20">
     <g id="line2d_81">
      <path clip-path="url(#p29b61e7424)" d="M 368.033333 364.675 
L 649.341667 364.675 
" style="fill:none;stroke:#b0b0b0;stroke-linecap:square;stroke-width:0.8;"/>
     </g>
     <g id="line2d_82">
      <g>
       <use style="stroke:#000000;stroke-width:0.8;" x="368.033333" xlink:href="#m34ab636571" y="364.675"/>
      </g>
     </g>
     <g id="text_40">
      <!-- 0 -->
      <g transform="translate(354.670833 368.474219)scale(0.1 -0.1)">
       <use xlink:href="#DejaVuSans-30"/>
      </g>
     </g>
    </g>
    <g id="ytick_21">
     <g id="line2d_83">
      <path clip-path="url(#p29b61e7424)" d="M 368.033333 343.893486 
L 649.341667 343.893486 
" style="fill:none;stroke:#b0b0b0;stroke-linecap:square;stroke-width:0.8;"/>
     </g>
     <g id="line2d_84">
      <g>
       <use style="stroke:#000000;stroke-width:0.8;" x="368.033333" xlink:href="#m34ab636571" y="343.893486"/>
      </g>
     </g>
     <g id="text_41">
      <!-- 1 -->
      <g transform="translate(354.670833 347.692705)scale(0.1 -0.1)">
       <use xlink:href="#DejaVuSans-31"/>
      </g>
     </g>
    </g>
    <g id="ytick_22">
     <g id="line2d_85">
      <path clip-path="url(#p29b61e7424)" d="M 368.033333 323.111972 
L 649.341667 323.111972 
" style="fill:none;stroke:#b0b0b0;stroke-linecap:square;stroke-width:0.8;"/>
     </g>
     <g id="line2d_86">
      <g>
       <use style="stroke:#000000;stroke-width:0.8;" x="368.033333" xlink:href="#m34ab636571" y="323.111972"/>
      </g>
     </g>
     <g id="text_42">
      <!-- 2 -->
      <g transform="translate(354.670833 326.91119)scale(0.1 -0.1)">
       <use xlink:href="#DejaVuSans-32"/>
      </g>
     </g>
    </g>
    <g id="ytick_23">
     <g id="line2d_87">
      <path clip-path="url(#p29b61e7424)" d="M 368.033333 302.330457 
L 649.341667 302.330457 
" style="fill:none;stroke:#b0b0b0;stroke-linecap:square;stroke-width:0.8;"/>
     </g>
     <g id="line2d_88">
      <g>
       <use style="stroke:#000000;stroke-width:0.8;" x="368.033333" xlink:href="#m34ab636571" y="302.330457"/>
      </g>
     </g>
     <g id="text_43">
      <!-- 3 -->
      <g transform="translate(354.670833 306.129676)scale(0.1 -0.1)">
       <use xlink:href="#DejaVuSans-33"/>
      </g>
     </g>
    </g>
    <g id="ytick_24">
     <g id="line2d_89">
      <path clip-path="url(#p29b61e7424)" d="M 368.033333 281.548943 
L 649.341667 281.548943 
" style="fill:none;stroke:#b0b0b0;stroke-linecap:square;stroke-width:0.8;"/>
     </g>
     <g id="line2d_90">
      <g>
       <use style="stroke:#000000;stroke-width:0.8;" x="368.033333" xlink:href="#m34ab636571" y="281.548943"/>
      </g>
     </g>
     <g id="text_44">
      <!-- 4 -->
      <g transform="translate(354.670833 285.348162)scale(0.1 -0.1)">
       <use xlink:href="#DejaVuSans-34"/>
      </g>
     </g>
    </g>
    <g id="ytick_25">
     <g id="line2d_91">
      <path clip-path="url(#p29b61e7424)" d="M 368.033333 260.767429 
L 649.341667 260.767429 
" style="fill:none;stroke:#b0b0b0;stroke-linecap:square;stroke-width:0.8;"/>
     </g>
     <g id="line2d_92">
      <g>
       <use style="stroke:#000000;stroke-width:0.8;" x="368.033333" xlink:href="#m34ab636571" y="260.767429"/>
      </g>
     </g>
     <g id="text_45">
      <!-- 5 -->
      <g transform="translate(354.670833 264.566648)scale(0.1 -0.1)">
       <use xlink:href="#DejaVuSans-35"/>
      </g>
     </g>
    </g>
    <g id="ytick_26">
     <g id="line2d_93">
      <path clip-path="url(#p29b61e7424)" d="M 368.033333 239.985915 
L 649.341667 239.985915 
" style="fill:none;stroke:#b0b0b0;stroke-linecap:square;stroke-width:0.8;"/>
     </g>
     <g id="line2d_94">
      <g>
       <use style="stroke:#000000;stroke-width:0.8;" x="368.033333" xlink:href="#m34ab636571" y="239.985915"/>
      </g>
     </g>
     <g id="text_46">
      <!-- 6 -->
      <g transform="translate(354.670833 243.785133)scale(0.1 -0.1)">
       <use xlink:href="#DejaVuSans-36"/>
      </g>
     </g>
    </g>
    <g id="ytick_27">
     <g id="line2d_95">
      <path clip-path="url(#p29b61e7424)" d="M 368.033333 219.2044 
L 649.341667 219.2044 
" style="fill:none;stroke:#b0b0b0;stroke-linecap:square;stroke-width:0.8;"/>
     </g>
     <g id="line2d_96">
      <g>
       <use style="stroke:#000000;stroke-width:0.8;" x="368.033333" xlink:href="#m34ab636571" y="219.2044"/>
      </g>
     </g>
     <g id="text_47">
      <!-- 7 -->
      <g transform="translate(354.670833 223.003619)scale(0.1 -0.1)">
       <defs>
        <path d="M 525 4666 
L 3525 4666 
L 3525 4397 
L 1831 0 
L 1172 0 
L 2766 4134 
L 525 4134 
L 525 4666 
z
" id="DejaVuSans-37" transform="scale(0.015625)"/>
       </defs>
       <use xlink:href="#DejaVuSans-37"/>
      </g>
     </g>
    </g>
   </g>
   <g id="LineCollection_2">
    <path clip-path="url(#p29b61e7424)" d="M 380.820076 364.675 
L 636.554924 364.675 
" style="fill:none;stroke:#000000;stroke-width:1.5;"/>
   </g>
   <g id="line2d_97">
    <path clip-path="url(#p29b61e7424)" d="M 380.820076 358.319248 
L 394.279805 358.319248 
L 394.279805 352.292805 
L 407.739533 352.292805 
L 407.739533 344.114397 
L 421.199262 344.114397 
L 421.199262 352.120293 
L 434.658991 352.120293 
L 434.658991 349.469186 
L 448.11872 349.469186 
L 448.11872 347.805991 
L 461.578449 347.805991 
L 461.578449 347.286967 
L 475.038178 347.286967 
L 475.038178 345.713064 
L 488.497907 345.713064 
L 488.497907 346.270731 
L 501.957636 346.270731 
L 501.957636 346.0236 
L 515.417364 346.0236 
L 515.417364 338.598879 
L 528.877093 338.598879 
L 528.877093 337.005217 
L 542.336822 337.005217 
L 542.336822 338.209588 
L 555.796551 338.209588 
L 555.796551 340.82335 
L 569.25628 340.82335 
L 569.25628 340.945655 
L 582.716009 340.945655 
L 582.716009 340.326863 
L 596.175738 340.326863 
L 596.175738 340.015925 
L 609.635467 340.015925 
L 609.635467 340.293317 
L 623.095195 340.293317 
L 623.095195 340.214434 
L 636.554924 340.214434 
L 636.554924 340.438927 
" style="fill:none;stroke:#0000ff;stroke-dasharray:5.55,2.4;stroke-dashoffset:0;stroke-width:1.5;"/>
   </g>
   <g id="line2d_98">
    <path clip-path="url(#p29b61e7424)" d="M 380.820076 285.16796 
L 394.279805 285.16796 
L 394.279805 250.38232 
L 407.739533 250.38232 
L 407.739533 233.246217 
L 421.199262 233.246217 
L 421.199262 241.50193 
L 434.658991 241.50193 
L 434.658991 249.512433 
L 448.11872 249.512433 
L 448.11872 250.792242 
L 461.578449 250.792242 
L 461.578449 238.805479 
L 475.038178 238.805479 
L 475.038178 237.393615 
L 488.497907 237.393615 
L 488.497907 236.535216 
L 501.957636 236.535216 
L 501.957636 230.451647 
L 515.417364 230.451647 
L 515.417364 219.919516 
L 528.877093 219.919516 
L 528.877093 214.175 
L 542.336822 214.175 
L 542.336822 217.899211 
L 555.796551 217.899211 
L 555.796551 218.440816 
L 569.25628 218.440816 
L 569.25628 219.625741 
L 582.716009 219.625741 
L 582.716009 219.188947 
L 596.175738 219.188947 
L 596.175738 222.36999 
L 609.635467 222.36999 
L 609.635467 222.917639 
L 623.095195 222.917639 
L 623.095195 220.133507 
L 636.554924 220.133507 
L 636.554924 215.333453 
" style="fill:none;stroke:#0000ff;stroke-dasharray:1.5,2.475;stroke-dashoffset:0;stroke-width:1.5;"/>
   </g>
   <g id="patch_24">
    <path d="M 368.033333 372.2 
L 368.033333 206.65 
" style="fill:none;stroke:#000000;stroke-linecap:square;stroke-linejoin:miter;stroke-width:0.8;"/>
   </g>
   <g id="patch_25">
    <path d="M 649.341667 372.2 
L 649.341667 206.65 
" style="fill:none;stroke:#000000;stroke-linecap:square;stroke-linejoin:miter;stroke-width:0.8;"/>
   </g>
   <g id="patch_26">
    <path d="M 368.033333 372.2 
L 649.341667 372.2 
" style="fill:none;stroke:#000000;stroke-linecap:square;stroke-linejoin:miter;stroke-width:0.8;"/>
   </g>
   <g id="patch_27">
    <path d="M 368.033333 206.65 
L 649.341667 206.65 
" style="fill:none;stroke:#000000;stroke-linecap:square;stroke-linejoin:miter;stroke-width:0.8;"/>
   </g>
  </g>
  <g id="axes_6">
   <g id="patch_28">
    <path d="M 679.891667 372.2 
L 961.2 372.2 
L 961.2 206.65 
L 679.891667 206.65 
z
" style="fill:#ffffff;"/>
   </g>
   <g id="matplotlib.axis_11">
    <g id="xtick_26">
     <g id="line2d_99">
      <g>
       <use style="stroke:#000000;stroke-width:0.8;" x="692.678409" xlink:href="#m2b9ed5eb93" y="372.2"/>
      </g>
     </g>
     <g id="text_48">
      <!-- 1 -->
      <g transform="translate(689.497159 386.798437)scale(0.1 -0.1)">
       <use xlink:href="#DejaVuSans-31"/>
      </g>
     </g>
    </g>
    <g id="xtick_27">
     <g id="line2d_100">
      <g>
       <use style="stroke:#000000;stroke-width:0.8;" x="746.517325" xlink:href="#m2b9ed5eb93" y="372.2"/>
      </g>
     </g>
     <g id="text_49">
      <!-- 5 -->
      <g transform="translate(743.336075 386.798437)scale(0.1 -0.1)">
       <use xlink:href="#DejaVuSans-35"/>
      </g>
     </g>
    </g>
    <g id="xtick_28">
     <g id="line2d_101">
      <g>
       <use style="stroke:#000000;stroke-width:0.8;" x="813.815969" xlink:href="#m2b9ed5eb93" y="372.2"/>
      </g>
     </g>
     <g id="text_50">
      <!-- 10 -->
      <g transform="translate(807.453469 386.798437)scale(0.1 -0.1)">
       <use xlink:href="#DejaVuSans-31"/>
       <use x="63.623047" xlink:href="#DejaVuSans-30"/>
      </g>
     </g>
    </g>
    <g id="xtick_29">
     <g id="line2d_102">
      <g>
       <use style="stroke:#000000;stroke-width:0.8;" x="881.114613" xlink:href="#m2b9ed5eb93" y="372.2"/>
      </g>
     </g>
     <g id="text_51">
      <!-- 15 -->
      <g transform="translate(874.752113 386.798437)scale(0.1 -0.1)">
       <use xlink:href="#DejaVuSans-31"/>
       <use x="63.623047" xlink:href="#DejaVuSans-35"/>
      </g>
     </g>
    </g>
    <g id="xtick_30">
     <g id="line2d_103">
      <g>
       <use style="stroke:#000000;stroke-width:0.8;" x="948.413258" xlink:href="#m2b9ed5eb93" y="372.2"/>
      </g>
     </g>
     <g id="text_52">
      <!-- 20 -->
      <g transform="translate(942.050758 386.798437)scale(0.1 -0.1)">
       <use xlink:href="#DejaVuSans-32"/>
       <use x="63.623047" xlink:href="#DejaVuSans-30"/>
      </g>
     </g>
    </g>
    <g id="text_53">
     <!-- k -->
     <g transform="translate(817.650521 400.476562)scale(0.1 -0.1)">
      <use xlink:href="#DejaVuSans-6b"/>
     </g>
    </g>
   </g>
   <g id="matplotlib.axis_12">
    <g id="ytick_28">
     <g id="line2d_104">
      <path clip-path="url(#p3fa54c1941)" d="M 679.891667 362.210734 
L 961.2 362.210734 
" style="fill:none;stroke:#b0b0b0;stroke-linecap:square;stroke-width:0.8;"/>
     </g>
     <g id="line2d_105">
      <g>
       <use style="stroke:#000000;stroke-width:0.8;" x="679.891667" xlink:href="#m34ab636571" y="362.210734"/>
      </g>
     </g>
     <g id="text_54">
      <!-- 0 -->
      <g transform="translate(666.529167 366.009952)scale(0.1 -0.1)">
       <use xlink:href="#DejaVuSans-30"/>
      </g>
     </g>
    </g>
    <g id="ytick_29">
     <g id="line2d_106">
      <path clip-path="url(#p3fa54c1941)" d="M 679.891667 322.451822 
L 961.2 322.451822 
" style="fill:none;stroke:#b0b0b0;stroke-linecap:square;stroke-width:0.8;"/>
     </g>
     <g id="line2d_107">
      <g>
       <use style="stroke:#000000;stroke-width:0.8;" x="679.891667" xlink:href="#m34ab636571" y="322.451822"/>
      </g>
     </g>
     <g id="text_55">
      <!-- 2 -->
      <g transform="translate(666.529167 326.251041)scale(0.1 -0.1)">
       <use xlink:href="#DejaVuSans-32"/>
      </g>
     </g>
    </g>
    <g id="ytick_30">
     <g id="line2d_108">
      <path clip-path="url(#p3fa54c1941)" d="M 679.891667 282.692911 
L 961.2 282.692911 
" style="fill:none;stroke:#b0b0b0;stroke-linecap:square;stroke-width:0.8;"/>
     </g>
     <g id="line2d_109">
      <g>
       <use style="stroke:#000000;stroke-width:0.8;" x="679.891667" xlink:href="#m34ab636571" y="282.692911"/>
      </g>
     </g>
     <g id="text_56">
      <!-- 4 -->
      <g transform="translate(666.529167 286.49213)scale(0.1 -0.1)">
       <use xlink:href="#DejaVuSans-34"/>
      </g>
     </g>
    </g>
    <g id="ytick_31">
     <g id="line2d_110">
      <path clip-path="url(#p3fa54c1941)" d="M 679.891667 242.934 
L 961.2 242.934 
" style="fill:none;stroke:#b0b0b0;stroke-linecap:square;stroke-width:0.8;"/>
     </g>
     <g id="line2d_111">
      <g>
       <use style="stroke:#000000;stroke-width:0.8;" x="679.891667" xlink:href="#m34ab636571" y="242.934"/>
      </g>
     </g>
     <g id="text_57">
      <!-- 6 -->
      <g transform="translate(666.529167 246.733219)scale(0.1 -0.1)">
       <use xlink:href="#DejaVuSans-36"/>
      </g>
     </g>
    </g>
   </g>
   <g id="LineCollection_3">
    <path clip-path="url(#p3fa54c1941)" d="M 692.678409 362.210734 
L 948.413258 362.210734 
" style="fill:none;stroke:#000000;stroke-width:1.5;"/>
   </g>
   <g id="line2d_112">
    <path clip-path="url(#p3fa54c1941)" d="M 692.678409 360.750498 
L 706.138138 360.750498 
L 706.138138 359.66673 
L 719.597867 359.66673 
L 719.597867 357.413525 
L 733.057596 357.413525 
L 733.057596 355.750503 
L 746.517325 355.750503 
L 746.517325 358.714919 
L 759.977053 358.714919 
L 759.977053 360.771635 
L 773.436782 360.771635 
L 773.436782 360.677442 
L 786.896511 360.677442 
L 786.896511 359.4558 
L 800.35624 359.4558 
L 800.35624 359.423694 
L 813.815969 359.423694 
L 813.815969 357.195793 
L 827.275698 357.195793 
L 827.275698 359.656264 
L 840.735427 359.656264 
L 840.735427 360.547239 
L 854.195156 360.547239 
L 854.195156 361.565075 
L 867.654884 361.565075 
L 867.654884 362.797177 
L 881.114613 362.797177 
L 881.114613 362.755609 
L 894.574342 362.755609 
L 894.574342 364.583649 
L 908.034071 364.583649 
L 908.034071 364.675 
L 921.4938 364.675 
L 921.4938 362.67055 
L 934.953529 362.67055 
L 934.953529 362.838424 
L 948.413258 362.838424 
L 948.413258 363.456408 
" style="fill:none;stroke:#0000ff;stroke-dasharray:5.55,2.4;stroke-dashoffset:0;stroke-width:1.5;"/>
   </g>
   <g id="line2d_113">
    <path clip-path="url(#p3fa54c1941)" d="M 692.678409 297.773474 
L 706.138138 297.773474 
L 706.138138 248.408079 
L 719.597867 248.408079 
L 719.597867 245.664375 
L 733.057596 245.664375 
L 733.057596 228.984231 
L 746.517325 228.984231 
L 746.517325 221.711955 
L 759.977053 221.711955 
L 759.977053 222.327658 
L 773.436782 222.327658 
L 773.436782 219.194602 
L 786.896511 219.194602 
L 786.896511 217.188333 
L 800.35624 217.188333 
L 800.35624 219.46547 
L 813.815969 219.46547 
L 813.815969 214.175 
L 827.275698 214.175 
L 827.275698 222.244909 
L 840.735427 222.244909 
L 840.735427 226.333931 
L 854.195156 226.333931 
L 854.195156 228.10212 
L 867.654884 228.10212 
L 867.654884 228.068757 
L 881.114613 228.068757 
L 881.114613 230.042347 
L 894.574342 230.042347 
L 894.574342 239.811648 
L 908.034071 239.811648 
L 908.034071 250.550465 
L 921.4938 250.550465 
L 921.4938 256.709522 
L 934.953529 256.709522 
L 934.953529 266.642707 
L 948.413258 266.642707 
L 948.413258 270.992325 
" style="fill:none;stroke:#0000ff;stroke-dasharray:1.5,2.475;stroke-dashoffset:0;stroke-width:1.5;"/>
   </g>
   <g id="patch_29">
    <path d="M 679.891667 372.2 
L 679.891667 206.65 
" style="fill:none;stroke:#000000;stroke-linecap:square;stroke-linejoin:miter;stroke-width:0.8;"/>
   </g>
   <g id="patch_30">
    <path d="M 961.2 372.2 
L 961.2 206.65 
" style="fill:none;stroke:#000000;stroke-linecap:square;stroke-linejoin:miter;stroke-width:0.8;"/>
   </g>
   <g id="patch_31">
    <path d="M 679.891667 372.2 
L 961.2 372.2 
" style="fill:none;stroke:#000000;stroke-linecap:square;stroke-linejoin:miter;stroke-width:0.8;"/>
   </g>
   <g id="patch_32">
    <path d="M 679.891667 206.65 
L 961.2 206.65 
" style="fill:none;stroke:#000000;stroke-linecap:square;stroke-linejoin:miter;stroke-width:0.8;"/>
   </g>
  </g>
 </g>
 <defs>
  <clipPath id="pb42a59d635">
   <rect height="165.55" width="281.308333" x="56.175" y="26.8"/>
  </clipPath>
  <clipPath id="p123ba90ff9">
   <rect height="165.55" width="281.308333" x="368.033333" y="26.8"/>
  </clipPath>
  <clipPath id="pb6dfab0ad6">
   <rect height="165.55" width="281.308333" x="679.891667" y="26.8"/>
  </clipPath>
  <clipPath id="p1a5c7b929f">
   <rect height="165.55" width="281.308333" x="56.175" y="206.65"/>
  </clipPath>
  <clipPath id="p29b61e7424">
   <rect height="165.55" width="281.308333" x="368.033333" y="206.65"/>
  </clipPath>
  <clipPath id="p3fa54c1941">
   <rect height="165.55" width="281.308333" x="679.891667" y="206.65"/>
  </clipPath>
 </defs>
</svg>
